<?xml version="1.0" encoding="UTF-8"?>
<svg id="Layer_2" data-name="Layer 2" xmlns="http://www.w3.org/2000/svg" viewBox="0 0 51.83 51.83">
  <defs>
    <style>
      .cls-1 {
        fill: #0f172a;
      }

      .cls-2 {
        fill: #f1f5f9;
      }
    </style>
  </defs>
  <g id="Layer_1-2" data-name="Layer 1">
    <g>
      <rect class="cls-2" width="51.83" height="51.83"/>
      <path class="cls-1" d="M20.17,27.26l-.93-4.11-.92,4.11h1.85ZM17.61,30.37l-.4,1.78h.84v3.13h-5.13v-3.13h1.17l3.64-15.61h3.19l3.46,15.61h1.12v3.13h-5.14v-3.13h.89l-.4-1.78h-3.24ZM34.98,31.24v-.02.02ZM33.52,23.85s-.05.08-.08.11c-.02.03-.05.06-.08.09-.03.04-.07.1-.12.17-.05.07-.09.12-.12.15-.09.1-.16.2-.22.28-.06.09-.11.17-.15.24h-.28c-.06.01-.12.02-.17.02h-1.09c-.28,0-.62-.04-1.02-.13-1-.2-1.51-.64-1.52-1.33.06-.71.56-1.17,1.5-1.39.07-.01.13-.02.17-.02.06,0,.11,0,.15-.02l.17-.04h.09c.56,0,1.12.16,1.66.49.54.33.95.75,1.21,1.27l-.11.11ZM38.91,27.66c0-1.25-.79-2.08-2.37-2.5-.45-.15-.85-.22-1.22-.22-.64-.01-1.12-.04-1.43-.07.54-.74,1.06-1.36,1.57-1.87.19-.19.36-.34.52-.46l.39-.39h-.02c.1-.06.2-.15.28-.28l-.54-.5-.61.5c-.65-.41-1.34-.71-2.07-.91-.22-.04-.39-.08-.52-.11-.13-.03-.23-.04-.3-.04h-.04c-.22,0-.33,0-.35-.02h-.43s-.12.02-.3.02c-.04.01-.09.02-.13.02-.23.01-.47.05-.72.11-.25.06-.51.14-.78.26-1.75.75-2.63,1.91-2.63,3.48,0,.43.08.83.24,1.17.42.9,1.73,1.35,3.93,1.35h.09l-.15.37h-.04l-.02.02c-1.1,0-1.96-.08-2.57-.24-.97-.28-1.57-.84-1.78-1.7-.49.49-.74,1.07-.74,1.74,0,.42.07.76.22,1.04.26.47.79.83,1.59,1.08.61.17,1.25.26,1.91.26h.37v.02c-.09.09-.13.16-.13.22-.06.07-.1.14-.13.2-.03.06-.06.1-.09.13-.09.12-.18.22-.28.32-.1.09-.19.18-.26.25-.12-.74-.57-1.11-1.37-1.11h-.07l-.02.02c-.07,0-.13.01-.17.03-.04.02-.1.05-.17.08-.46.26-.7.6-.7,1.02l-.02.02c0,.61.37,1.03,1.11,1.26.12.03.2.04.26.04.99,0,1.91-.67,2.78-2,.16-.28.26-.44.3-.5h1.37c1.65,0,2.48.32,2.48.96l-.02.04c0,.09-.02.18-.07.28-.01.03-.03.06-.03.1,0,.04-.02.07-.03.1l.02-.02-.22.3c.71-.23,1.19-.69,1.43-1.37.12-.3.18-.49.2-.56,0-.03,0-.05.01-.07,0-.01.01-.04.01-.06.01-.16.04-.25.07-.28-.06-.55-.27-.94-.63-1.15-.43-.3-1.22-.45-2.35-.45h-1.15l.17-.39h.11s.1,0,.17-.02h1.41c1.19,0,1.99.29,2.39.87.25.36.37.66.37.89,0,.55-.25,1.2-.76,1.96-.09.14-.24.35-.47.62-.22.27-.52.63-.88,1.08-1.9-.64-3.27-.84-5.24-.39-.42.12-.83.25-1.23.41-.4.16-.78.36-1.14.61-.87.54-1.46,1.22-1.78,2.06.91-.58,1.91-.96,3-1.15.48-.09.75-.13.8-.13,1.6,0,3.41.61,4.89,1.2,0,0,.03-.05.08-.14.45-.83.87-1.33,1.49-2.08.16-.22.32-.42.47-.61.15-.19.3-.36.45-.52.16-.16.3-.31.41-.46.12-.14.22-.28.33-.39.33-.42.61-.8.82-1.15.21-.35.37-.69.49-1.02.13-.36.2-.75.2-1.17Z"/>
    </g>
  </g>
</svg>
