<?xml version="1.0" encoding="UTF-8"?>
<svg id="Layer_2" data-name="Layer 2" xmlns="http://www.w3.org/2000/svg" viewBox="0 0 51.83 51.83">
  <defs>
    <style>
      .cls-1 {
        fill: #0f172a;
      }

      .cls-2 {
        fill: #f1f5f9;
      }
    </style>
  </defs>
  <g id="Layer_1-2" data-name="Layer 1">
    <g>
      <rect class="cls-2" width="51.83" height="51.83"/>
      <path class="cls-1" d="M37.68,28.11l.23.67,1.34-.45-.23-.67c-.32-.97-.84-1.9-1.49-2.69l-.45-.55-1.1.9.45.55c.54.66.97,1.43,1.24,2.25M36.94,34.31l-.38.6,1.2.75.38-.6c.57-.91.92-1.8,1.15-2.85l.14-.69-1.39-.28-.14.69c-.15.82-.53,1.68-.97,2.38ZM31.66,37.65l-.7.09.17,1.41.7-.09c.99-.12,2.06-.43,2.94-.9l.63-.33-.65-1.26-.63.33c-.79.4-1.57.65-2.46.75ZM25.74,35.65l-.51-.49-.98,1.02.51.49c.74.72,1.6,1.3,2.55,1.71l.65.28.57-1.3-.65-.28c-.81-.37-1.49-.82-2.13-1.44ZM23.56,29.79l.06-.71-1.41-.11c-.15,1.91-.11,2.6.41,4.45l1.37-.38c-.34-1.21-.52-1.98-.42-3.24ZM26.74,24.41l.58-.4-.8-1.17-.58.4c-.87.59-1.58,1.29-2.2,2.14l-.41.58,1.16.82.41-.58c.51-.7,1.12-1.3,1.84-1.79ZM30.8,21.76h-.71v.03l-.52.03.09,1.41c.38-.02.76-.06,1.14-.06.88,0,1.71.15,2.53.45l.67.24.49-1.33-.67-.24c-.98-.36-1.97-.53-3.02-.54ZM22.2,19.25c-.14-.14-.38-.14-.52,0l-.29.29-.29-.29h0c-.15-.14-.38-.14-.52,0-.14.14-.14.37,0,.52l.29.29-.4.4-.48-.48c-.14-.14-.38-.14-.52,0-.14.14-.15.37,0,.52l.48.48-.4.4-.29-.29h0c-.15-.14-.38-.14-.52,0-.14.14-.14.37,0,.52l.29.29-.29.29c-.14.14-.14.38,0,.52.14.14.37.14.52,0l.29-.29.29.29h0c.15.14.38.14.52,0,.14-.14.14-.37,0-.52l-.29-.29.4-.4.48.48h0c.15.14.38.14.52,0,.14-.14.14-.37,0-.52l-.48-.48.4-.4.29.29h0c.15.14.38.14.52,0,.14-.14.14-.37,0-.52l-.29-.29.29-.29c.14-.14.14-.38,0-.52ZM17.91,25.07h0c-.42.03-.83-.1-1.15-.37-.27-.32-.4-.74-.37-1.16,0-.09.01-.18.02-.27h0c.81.32,1.46.96,1.77,1.78-.09,0-.18.02-.27.02ZM22.36,22.9c-.95.97-2.15,1.67-3.46,2.03-.38-1.12-1.27-2.01-2.39-2.39.36-1.31,1.06-2.5,2.03-3.46.97-.95,2.16-1.64,3.47-1.99.39,1.08,1.24,1.94,2.33,2.33-.35,1.31-1.04,2.51-1.99,3.47ZM24.48,18.7c-.78-.32-1.41-.95-1.73-1.73.63-.06,1.14.04,1.42.31.28.28.37.79.31,1.42ZM29.41,17.36h-1.42v2.83h1.42v-2.83ZM20.2,12.69v1.42h-2.83v-1.42h2.83ZM24.45,12.69v1.42h-2.83v-1.42h2.83ZM12.4,21.61h1.42v2.83h-1.42v-2.83ZM12.4,17.36h1.42v2.83h-1.42v-2.83ZM20.2,28.99v-1.42h-2.83v1.42h2.83ZM15.94,28.99v-1.42h-2.13v-1.83h-1.42v3.25h3.54ZM15.94,12.69v1.42h-2.13v1.83h-1.42v-3.25h3.54ZM25.86,12.69v1.42h2.13v1.83h1.42v-3.25h-3.54ZM31.27,30.85l-.47-2.1-.47,2.1h.94ZM29.97,32.44l-.2.91h.43v1.6h-2.62v-1.6h.6l1.86-7.96h1.63l1.76,7.96h.57v1.6h-2.62v-1.6h.46l-.2-.91h-1.65Z"/>
    </g>
  </g>
</svg>
