<?xml version="1.0" encoding="UTF-8"?>
<svg id="Layer_2" data-name="Layer 2" xmlns="http://www.w3.org/2000/svg" viewBox="0 0 51.83 51.83">
  <defs>
    <style>
      .cls-1 {
        fill: #0f172a;
      }

      .cls-2 {
        fill: #f1f5f9;
      }
    </style>
  </defs>
  <g id="Layer_1-2" data-name="Layer 1">
    <g>
      <rect class="cls-2" width="51.83" height="51.83"/>
      <path class="cls-1" d="M34.32,17.66l.5.5,1.01-1c-1.22-1.23-1.95-1.84-3.42-2.76l-.76,1.2c1.02.65,1.82,1.19,2.67,2.06M37.44,23.46l.15.69,1.39-.29c-.36-1.7-.66-2.59-1.39-4.17l-1.28.6c.48,1.02.94,2.06,1.14,3.17ZM36.95,30.04l-.25.66,1.33.5c.61-1.62.84-2.55,1.06-4.27l-1.41-.18c-.16,1.23-.31,2.13-.73,3.29ZM32.99,35.32l-.56.43.86,1.13c1.38-1.05,2.08-1.7,3.19-3.03l-1.09-.91c-.78.93-1.42,1.65-2.39,2.38ZM26.82,37.65l-.71.06.12,1.41c1.73-.14,2.66-.31,4.32-.84l-.43-1.35c-1.18.37-2.06.62-3.3.72ZM20.37,36.3l-.63-.33-.66,1.25c1.54.81,2.41,1.17,4.09,1.61l.36-1.37c-1.19-.31-2.08-.59-3.17-1.16ZM15.66,31.69l-.35-.62-1.23.7c.85,1.51,1.41,2.28,2.58,3.56l1.04-.96c-.82-.89-1.45-1.62-2.04-2.68ZM14.16,25.26l.04-.71-1.42-.07c-.09,1.73-.04,2.69.26,4.39l1.4-.25c-.21-1.2-.34-2.14-.28-3.36ZM16.35,19.04l.41-.58-1.16-.82c-1.01,1.42-1.47,2.23-2.14,3.84l1.31.54c.47-1.14.86-1.98,1.57-2.99ZM21.54,14.97l.66-.27-.53-1.31c-1.61.65-2.45,1.09-3.87,2.1l.82,1.16c1.01-.71,1.78-1.21,2.92-1.68ZM25.92,12.71h-.71v.02l-.54.02.06,1.42c1.85-.08,2.73,0,4.53.41l.31-1.38c-1.31-.29-2.31-.49-3.66-.49ZM20.73,29.88c0,.36.29.65.65.65h9.07c.36,0,.65-.29.65-.65v-1.94c0-.36.29-.65.65-.65s.65.29.65.65v1.94c0,1.07-.87,1.94-1.94,1.94h-9.07c-1.07,0-1.94-.87-1.94-1.94v-1.94c0-.36.29-.65.65-.65s.65.29.65.65v1.94ZM30.26,23.86c-.25.25-.66.25-.92,0l-2.78-2.78v6.86c0,.36-.29.65-.65.65s-.65-.29-.65-.65v-6.86l-2.78,2.78c-.25.25-.66.25-.92,0-.25-.25-.25-.66,0-.92l3.89-3.89c.06-.06.14-.11.22-.14.07-.03.16-.05.24-.05h0c.17,0,.32.06.44.17,0,0,.02.01.02.02l3.88,3.89c.25.25.25.66,0,.92h0Z"/>
    </g>
  </g>
</svg>
