<?xml version="1.0" encoding="UTF-8"?><svg xmlns="http://www.w3.org/2000/svg" xmlns:xlink="http://www.w3.org/1999/xlink" viewBox="0 0 562.91 562.91"><defs><style>.cls-1{stroke-width:.57px;}.cls-1,.cls-2,.cls-3,.cls-4,.cls-5,.cls-6,.cls-7,.cls-8,.cls-9{stroke:#000;}.cls-1,.cls-10{fill:#010101;}.cls-11{fill:#f6f6f6;}.cls-12{fill:#f9f1bb;opacity:.55;stroke:#565656;stroke-width:2.17px;}.cls-2{fill:#e5e5e5;stroke-width:1.78px;}.cls-2,.cls-3,.cls-4,.cls-5,.cls-6,.cls-7,.cls-8,.cls-9{stroke-linecap:round;}.cls-2,.cls-3,.cls-4,.cls-5,.cls-6,.cls-8,.cls-9{stroke-linejoin:round;}.cls-3{fill:#ededec;stroke-width:2.16px;}.cls-13{fill:#231f20;mix-blend-mode:multiply;opacity:.4;}.cls-14{stroke:#1d1d1b;stroke-width:1.77px;}.cls-14,.cls-4,.cls-15,.cls-16,.cls-17,.cls-6,.cls-7,.cls-18,.cls-8{fill:none;}.cls-19{fill:url(#_Безымянный_градиент_435);}.cls-4{stroke-dasharray:0 0 6.04 3.25;stroke-width:1.16px;}.cls-5{fill:#efefef;stroke-width:.28px;}.cls-15{isolation:isolate;}.cls-20{fill:#c8c8c8;}.cls-17{clip-path:url(#clippath);}.cls-6{stroke-dasharray:0 0 5.63 3.03;stroke-width:1.08px;}.cls-7{stroke-dasharray:0 0 1.02 .49;stroke-miterlimit:10;stroke-width:.24px;}.cls-18{clip-path:url(#clippath-1);}.cls-8{stroke-width:1.13px;}.cls-21{fill:#cdcccb;}.cls-9{fill:#fff;stroke-width:1.63px;}</style><clipPath id="clippath"><rect class="cls-16" x=".05" y="0" width="562.81" height="562.81"/></clipPath><clipPath id="clippath-1"><path class="cls-16" d="m373.52,20.35c-8.48.64-15.1-.39-19.54-1.43-5.55-1.3-12.03-4.32-25.01-10.27-2.98-1.37-7.24-3.36-13.45-5.83-1.33-.53-4.23-1.67-8.4-3.16-11.14-3.98-20.9-6.74-23.7-7.52-16.29-4.53-31.26-7.28-39.87-8.71.36-2.77,1-7.15,2.06-12.5,1.66-8.4,2.85-11.55,3.92-17.49.73-4.06,1.52-10.15,1.39-17.87,8.48.49,15.52,1.16,20.84,1.77.71.08,6.68.77,14.15,2.08,2.53.45,4.76.88,7.52,1.64,3.68,1.02,6.33,2.08,7.45,2.53,15.35,6.12,26.4,9.68,42.84,18.34,4.62,2.43,5.57,3.11,6.48,3.87,7.77,6.51,8.99,16.14,10.61,23.45,1.73,7.79,5.17,18.5,12.71,31.11Z"/></clipPath><linearGradient id="_Безымянный_градиент_435" x1="1326.82" y1="352.78" x2="1313.85" y2="234.8" gradientTransform="translate(1706.3) rotate(-180) scale(1 -1)" gradientUnits="userSpaceOnUse"><stop offset="0" stop-color="#fff"/><stop offset="1" stop-color="#f2f2f2"/></linearGradient></defs><g class="cls-15"><g id="_Слой_2"><g id="layer"><rect class="cls-11" width="562.91" height="562.91"/><g class="cls-17"><path class="cls-2" d="m405.39,491.29c-41.77,10.14-76.64,13.18-102.14,13.88,0,0-102.11-3.36-102.11-3.36,0,0-13.46-16.96-17.03-43.74-4.91-36.8-22.56-262.87,10.23-383.13,5.73-21.01,13.31-39.98,24.75-58.64,8.57-13.98,17.41-24.7,24.25-32.17,5-.25,10.14-.33,15.41-.21,46.66,1.09,85.56,17.75,114.05,34.99,18.2,37.7,28.78,70.3,35.14,93.68,0,0,1.66,6.11,4.03,17.67,1.53,7.44,5.23,25.47,8.29,50.32,6.33,51.38,9.54,127.31,7.65,182.98-.23,6.8-.35,7.76-.67,17.51-1.08,32.22-.65,46.51-3.79,67.78-1.17,7.92-2.31,13.3-4.63,19.45-4.01,10.63-9.56,18.32-13.43,22.99Z"/><path class="cls-14" d="m308.96,1.3s-7.6,17.66-11.31,46.75c-3.93,30.82-1.9,48.89-1.9,48.89"/><path class="cls-10" d="m191.01,483.61l.8,29.21c-.75-8.47-1.25-18.51-1.55-29.5.23.09.49.19.76.29"/><path class="cls-10" d="m410.12,483.7l-1.06,34.38c-.28,2.55-.59,4.92-.94,7.07l1.24-41.18c.27-.1.52-.19.76-.27"/><path class="cls-5" d="m411.13,483.32c-.51,18.64-1.59,34.57-3.5,44.71,0,0-24.24,11.41-106.94,11.41-82.7,0-106.93-11.41-106.93-11.41-1.91-10.14-2.99-26.07-3.51-44.71,8.39,3.22,40.67,13.53,110.44,13.53,69.78,0,102.05-10.3,110.44-13.53"/><polygon class="cls-10" points="209.68 531.08 209.71 532.51 209.7 532.51 209.31 516.94 209.68 531.08"/><polygon class="cls-10" points="224.11 530.7 224.2 535 224.2 535 223.79 516.55 224.11 530.7"/><path class="cls-1" d="m411.74,483.34c-.26,9.33-.66,17.98-1.23,25.58-.57,7.6-1.32,14.13-2.29,19.24l-.06.33-.29.14c-.12.05-24.43,11.47-107.18,11.47-82.75,0-107.06-11.41-107.18-11.47l-.29-.14-.06-.33c-.96-5.11-1.71-11.64-2.29-19.24-.57-7.6-.97-16.25-1.23-25.58l-.03-.95.85.33c8.31,3.19,40.51,13.49,110.23,13.49,69.72,0,101.92-10.3,110.23-13.49l.42,1.22c-8.47,3.25-40.82,13.56-110.65,13.56-69.83,0-102.18-10.31-110.65-13.56l.21-.61.61-.02c.26,9.31.66,17.95,1.23,25.51.57,7.56,1.32,14.06,2.27,19.09l-.6.13.25-.59-.05.12.05-.12h0s-.05.12-.05.12l.05-.12c.07.04,24.36,11.36,106.69,11.36,41.32,0,68.02-2.85,84.38-5.7,8.18-1.42,13.77-2.84,17.31-3.91,1.77-.53,3.03-.97,3.84-1.28.41-.15.7-.27.89-.35.1-.04.16-.07.21-.09.02-.01.04-.02.05-.02h.01s0,0,0,0l.05.13-.05-.13h0s.05.13.05.13l-.05-.13.25.59-.6-.13c.95-5.03,1.7-11.53,2.27-19.09.57-7.56.97-16.2,1.23-25.51l1.22.04h0Z"/><path class="cls-1" d="m333.35,496.02l-.59,42.79c-.22,0-.44.02-.66.03l.47-42.78c.26,0,.52-.03.78-.04"/><path class="cls-1" d="m377.06,491.6l-.97,43.56c-.24.03-.48.07-.72.1l.96-43.54c.25-.04.49-.08.73-.12"/><path class="cls-1" d="m384.33,490.34l-.97,43.71c-.25.04-.5.08-.76.12l1.09-43.72c.21-.04.42-.08.64-.12"/><path class="cls-1" d="m391.68,488.85l-1.1,43.88c-.24.05-.48.1-.72.14l1.09-43.87c.25-.05.49-.11.74-.16"/><path class="cls-1" d="m325.99,496.36l-.35,42.71c-.26,0-.53.01-.79.02l.47-42.7c.23,0,.44-.02.67-.03"/><path class="cls-1" d="m362.47,493.61l-.84,43.24c-.24.02-.48.05-.72.07l.84-43.23c.24-.03.49-.05.73-.08"/><path class="cls-1" d="m355.21,494.39l-.84,43.11c-.22.02-.44.04-.66.05l.71-43.08c.26-.03.53-.05.79-.07"/><path class="cls-1" d="m340.6,495.59l-.59,42.87c-.24.01-.48.03-.72.04l.59-42.86c.24-.02.49-.03.73-.05"/><path class="cls-1" d="m369.72,492.69l-.84,43.39c-.25.03-.51.06-.76.09l.96-43.39c.22-.03.43-.06.65-.09"/><path class="cls-1" d="m347.84,495.05l-.6,42.97c-.26.02-.51.04-.77.05l.71-42.97c.22-.02.44-.04.66-.06"/><path class="cls-1" d="m398.35,487.27c.21-.06.41-.11.62-.16l-1.1,44c-.24.06-.5.12-.75.18l.38-14.18.85-29.83Z"/><path class="cls-1" d="m406.45,484.95l-1.35,44.05c-.22.07-.45.15-.69.23l1.2-44.02c.29-.09.57-.18.84-.27"/><path class="cls-1" d="m245.86,494.36l.71,43.1c-.22-.02-.44-.04-.66-.06l-.84-43.13c.27.03.52.06.79.09"/><path class="cls-1" d="m253.11,495.02l.71,42.99c-.24-.02-.48-.03-.72-.05l-.72-43c.24.02.48.04.73.06"/><path class="cls-1" d="m231.29,492.63l.84,43.4c-.22-.03-.45-.05-.67-.08l-.96-43.43c.26.04.53.07.79.11"/><path class="cls-1" d="m208.63,488.61c.2.04.42.09.62.14l1.21,43.92c-.26-.05-.51-.1-.75-.15l-.04-1.43-1.04-42.47Z"/><path class="cls-1" d="m202.05,487.01l1.09,43.99c-.23-.06-.46-.12-.69-.17l-1.22-44.04c.26.07.55.15.82.22"/><path class="cls-1" d="m238.55,493.56l.84,43.25c-.25-.03-.48-.05-.72-.07l-.84-43.26c.24.03.49.05.73.09"/><path class="cls-1" d="m194.67,484.87l1.21,43.99c-.27-.09-.51-.18-.72-.26l-1.23-43.97c.24.08.49.16.75.24"/><path class="cls-1" d="m223.24,491.42c.21.03.43.07.65.1l1.08,43.58c-.26-.03-.51-.07-.77-.11l-.1-4.31-.87-39.27Z"/><path class="cls-1" d="m216.69,490.27l.97,43.72c-.23-.04-.45-.08-.68-.12l-1.1-43.76c.26.05.54.1.81.15"/><path class="cls-1" d="m296.88,496.83v42.61c-.22,0-.44,0-.65,0l-.12-42.61c.26,0,.52,0,.77,0"/><path class="cls-1" d="m322.36,496.49l-.35,42.69c-.24,0-.48.01-.72.02l.36-42.68c.24,0,.48-.02.72-.02"/><path class="cls-1" d="m274.99,496.35l.35,42.71c-.22,0-.44-.01-.66-.02l-.47-42.72c.26,0,.51.02.78.03"/><path class="cls-1" d="m282.25,496.6l.35,42.66c-.24,0-.48,0-.72-.01l-.35-42.66c.24,0,.48.02.72.02"/><path class="cls-1" d="m289.54,496.75l.24,42.63c-.24,0-.48,0-.73-.01l-.23-42.63c.24,0,.48,0,.72.01"/><path class="cls-1" d="m267.69,496l.48,42.79c-.22,0-.44-.02-.66-.03l-.59-42.8c.26.01.52.03.78.04"/><path class="cls-1" d="m311.41,496.76l-.12,42.62c-.26,0-.53,0-.79,0l.24-42.62c.22,0,.45,0,.67-.01"/><path class="cls-1" d="m304.12,496.83v42.61c-.24,0-.48,0-.72,0v-42.61c.24,0,.48,0,.72,0"/><path class="cls-1" d="m260.36,495.56l.71,42.88c-.26-.02-.53-.03-.78-.05l-.6-42.88c.22.02.45.03.67.05"/><path class="cls-4" d="m188.52,476.14c43.46,11.25,103.47,20.19,172.66,10.1,18.2-2.65,35.11-6.34,50.64-10.61"/><path class="cls-9" d="m327.44,305.83c.89,29.84,3.55,54.49,4.32,110.47.23,16.58.31,36.97-.9,62.65-1.1,23.29-2.89,43.04-4.5,57.93-8.8,5.33-17.59,10.65-26.39,15.98-12.76.46-25.53.91-38.29,1.37-5.17-9.6-11.39-22.99-16.11-39.69-1.73-6.11-2.87-11.53-5.1-22.38-4.83-23.49-7.23-42.12-8.07-48.86-15.12-120.21-18.06-170.99-18.06-170.99,0-90.77-5.75-166.71,18.83-208.05,4.8-8.07,16.3-27.43,37.44-31.66,1.41-.28,16.44-3.08,30.54,4.55,22.14,11.98,26.22,41.16,27.99,56.37,9.29,79.96-4.15,129.32-1.69,212.32Z"/><path class="cls-6" d="m249.07,523.66c4.93.18,11.23.25,18.54-.12.4-.02,7.72-.4,15.86-1.39,18.4-2.24,37.34-7.18,44.42-9.1"/><path class="cls-10" d="m262.62,561.03l.78-.61-.42.33.41-.35.02.02-.42.33.41-.35h.01c.07.06.45.35,1.39.68,1.41.5,4.07,1.11,8.76,1.18,4.69.08,11.4-.37,20.89-1.96,6.52-1.1,11.79-2.17,16.01-3.17,6.64-1.57,10.72-2.95,13.11-3.92,1.2-.49,1.97-.87,2.43-1.12.23-.13.38-.22.47-.28.04-.03.07-.05.09-.06h.01s.31.32.31.32l-.32-.32h0s.31.32.31.32l-.32-.32.64.64-1,.2s-.09-.47-.24-1.27l1-.2-.36.84c-5.56-1.47-15.05-2.27-29.74-.27-5.71.78-10.53,1.69-14.58,2.65-7.29,1.72-12.08,3.58-15.02,4.98-1.47.7-2.48,1.29-3.12,1.7-.32.2-.54.36-.68.46-.07.05-.12.09-.15.11l-.03.02h0s0,0,0,0h0s0,0,0,0h0s-.68-.6-.68-.6l.78-.61-.78.61-.68-.61c.15-.13,5.08-4.25,19.95-7.76,4.13-.98,9.03-1.9,14.8-2.69,14.91-2.03,24.67-1.24,30.62.32.34.09.59.34.64.65.07.4.13.71.17.93.04.22.06.33.06.33.06.31-.08.63-.36.85-.1.08-.99.73-3.52,1.76-2.54,1.03-6.73,2.44-13.46,4.03-4.28,1.01-9.6,2.1-16.17,3.2-13.64,2.29-21.73,2.27-26.48,1.65-2.38-.31-3.92-.78-4.9-1.19-.97-.41-1.38-.77-1.46-.85-.35-.34-.31-.88.09-1.22l.68.61Z"/><path class="cls-21" d="m295.63,554.97c-22.34,3.38-33.27,9.78-33.27,9.78,0,0,7.92,4.48,32.61.37,22.98-3.82,31.43-9.45,32.56-12.32-5.55-1.39-16.02-.24-31.9,2.17"/><path class="cls-20" d="m297.22,554.77c-22.34,3.38-33.27,9.78-33.27,9.78,0,0,3.31,1.85,12.23,2.08-.08-.06-5.07-4.32,17.8-8.45,17.67-3.19,28.75-3.31,28.34-.36,4.24-2.02,6.3-3.9,6.82-5.21-5.55-1.39-16.02-.24-31.9,2.17"/><path class="cls-10" d="m295.63,554.97l.1.87c-4.42.67-8.38,1.46-11.9,2.29-7.07,1.67-12.33,3.52-15.82,4.94-1.74.71-3.04,1.32-3.89,1.74-.43.21-.75.38-.95.49-.1.06-.18.1-.23.13-.02.01-.04.02-.05.03h-.01s0,0,0,0l-.18-.25.18.25h0s-.18-.25-.18-.25l.18.25-.52-.72.59-.75-.28.36.28-.36h0s-.28.36-.28.36l.28-.36s1.94,1.07,6.9,1.63c4.96.57,12.94.63,25.01-1.38,3.9-.65,7.37-1.35,10.45-2.08,7.49-1.77,12.68-3.71,16.06-5.46,1.69-.88,2.93-1.7,3.78-2.42.42-.36.75-.69.98-.99.24-.29.38-.54.46-.74l.95.23-.34.85c-1.28-.32-2.89-.51-4.85-.55-2.93-.07-6.61.16-11.04.64-4.43.48-9.61,1.2-15.56,2.1l-.1-.87-.1-.87c7.95-1.2,14.56-2.1,19.91-2.52,2.68-.21,5.04-.3,7.1-.25,2.07.05,3.84.24,5.33.62.52.13.8.61.61,1.08-.16.4-.41.8-.74,1.21-.58.72-1.41,1.47-2.55,2.25-1.7,1.17-4.07,2.42-7.27,3.68-3.2,1.26-7.23,2.52-12.23,3.7-3.14.74-6.66,1.45-10.61,2.11-12.44,2.07-20.7,1.99-25.9,1.36-5.19-.62-7.31-1.78-7.43-1.85-.27-.16-.43-.43-.42-.72.01-.29.2-.58.49-.75.09-.05,7.21-4.2,21.6-7.6,3.58-.85,7.61-1.64,12.09-2.32l.1.87Z"/><path class="cls-3" d="m250.74,528.93s5.22,16.86,13.35,43.1c5.83,1.37,13.1,2.45,21.43,2.26,19.98-.45,35.16-7.9,43.22-12.71,0,0-2.37-33.09.13-43.31-11.4,3-24.42,5.77-38.87,7.73-14.34,1.95-27.54,2.77-39.27,2.93Z"/><path class="cls-10" d="m317.84,561.12l-.09,6.05c.38-.17.75-.33,1.13-.5l.15-5.55c-.4,0-.8,0-1.2,0"/><path class="cls-10" d="m325.06,561.32c-.4-.02-.79-.04-1.19-.06l-.23,3.09c.4-.21.8-.41,1.2-.62l.22-2.42Z"/><path class="cls-10" d="m299.2,562.39l1.43,10.47c.39-.09.78-.18,1.17-.28l-1.35-10.37c-.42.06-.83.11-1.25.17"/><path class="cls-10" d="m305.5,561.67l.92,9.67c.35-.1.7-.22,1.05-.32l-.77-9.45c-.41.03-.81.07-1.21.1"/><path class="cls-10" d="m311.75,561.25l.39,8.2c.35-.13.72-.28,1.08-.42l-.26-7.83c-.4.01-.81.03-1.2.04"/><path class="cls-10" d="m269.28,569.87l-12.79-42.02c-.55.2-1.07.39-1.54.56l13.16,41.91c.37-.15.76-.3,1.18-.45"/><path class="cls-10" d="m312.95,561.2l-.27-39.36c-.61.01-1.21.04-1.82.06l.89,39.37c.4-.03.8-.05,1.2-.07"/><path class="cls-10" d="m319.03,561.12l1.89-41.21c-.6-.04-1.2-.1-1.8-.13l-1.29,41.35c.4,0,.79-.01,1.19-.02"/><path class="cls-10" d="m325.06,561.32l2.69-30.02c.09-5.34.4-10.11,1.12-13.03-.57-.11-1.15-.17-1.72-.27l-3.29,43.26c.4.02.79.03,1.19.06"/><path class="cls-10" d="m300.45,562.21l-4.25-37.86c-.51.07-1.01.14-1.51.21l4.51,37.84c.41-.06.82-.13,1.25-.19"/><path class="cls-10" d="m306.71,561.56l-2.17-38.44c-.61.05-1.21.1-1.82.16l2.79,38.41c.4-.04.8-.08,1.2-.13"/><path class="cls-10" d="m276.42,573.15l-12.33-45.53c-.52.17-1.05.33-1.54.49l12.66,45.44c.4-.13.8-.26,1.21-.4"/><path class="cls-10" d="m294.13,563.17l-5.83-37.91c-.61.11-1.2.22-1.79.34l6.41,37.8c.4-.08.8-.15,1.21-.22"/><path class="cls-10" d="m281.63,565.92l-9.47-38.67c-.44.11-.88.23-1.31.35l9.48,38.67c.42-.11.86-.23,1.3-.35"/><path class="cls-10" d="m287.88,564.4l-7.8-38.23c-.52.12-1.02.23-1.53.35l8.08,38.16c.41-.1.83-.19,1.25-.28"/><path class="cls-2" d="m373.85,21.27c-5.46.12-14.04-.23-23.91-3.2-6.97-2.09-11.26-4.49-15.78-6.78-18.97-9.6-36.4-14.45-56.97-20.16-5.01-1.39-11.53-3.41-20.21-5.05-5.64-1.07-10.33-1.67-13.47-2.02,2.25-8.27,4.28-17.79,5.61-28.39.93-7.37,1.39-14.27,1.55-20.62,3.31.19,7.87.52,13.26,1.15,19.57,2.29,34.41,6.65,41.36,8.88,11.06,3.55,18.32,6.88,26.49,10.62,15.04,6.9,20.45,10.92,23.98,16.98,2.5,4.29,3,7.8,3.79,11.62,1.82,8.81,5.59,21.39,14.31,36.96Z"/><g class="cls-18"><path class="cls-8" d="m340.67,38.49s10.18-13.53,62.65-47.37"/><path class="cls-8" d="m337.2,31.76c2.64-10.44,6.15-21.95,10.84-34.19,5.68-14.79,11.97-27.69,18.06-38.65"/><path class="cls-8" d="m337.97,31.82s3.3-16.61,35.89-69.86"/><path class="cls-8" d="m338.24,33.08s5.32-16.07,44.22-64.91"/><path class="cls-8" d="m339.14,34.94s7.2-15.33,51.64-59.18"/><path class="cls-8" d="m339.84,35.58s9.18-14.23,59.07-51.76"/><path class="cls-8" d="m402.32-4.38s-25.89,17.67-60.93,45.69"/><path class="cls-8" d="m338.62,14.7c1.57-7,3.72-14.78,6.69-23.1,3.2-8.96,6.75-16.86,10.23-23.63"/><path class="cls-8" d="m334.46,13.38c.94-5.33,2.25-11.12,4.07-17.24,3.51-11.8,8.02-21.76,12.38-29.79"/><path class="cls-8" d="m331.19,10.66c.06-.77.17-1.91.34-3.28.02-.2.05-.45.09-.74,1.63-12.2,6.56-24.27,6.56-24.27,1.98-4.82,4.93-10.96,9.36-17.64"/><path class="cls-8" d="m336.33-42.97c-6.54,10.92-12.82,23.12-18.38,36.63-1.06,2.59-2.07,5.16-3.03,7.7"/><path class="cls-8" d="m330.87-43.48c-6.52,11.28-12.84,23.4-18.78,36.38-1.19,2.6-2.34,5.18-3.45,7.75"/><path class="cls-8" d="m341.11-40.66c-3.56,5.2-7.31,11.39-10.82,18.57-4.59,9.39-7.63,18.15-9.68,25.6"/><path class="cls-8" d="m343.31-37.79c-3.89,6.17-6.63,11.72-8.53,16.04-2.49,5.68-5.51,12.69-6.95,22.36-.42,2.8-.6,5.15-.69,6.82"/><path class="cls-8" d="m253.09-64.27c1.79.57-12.92,59.61-10.27,63.81"/></g><path class="cls-7" d="m383.46,354.02c13.86-55.77,14.02-118.78,14.02-119.41v-2.48s-9.89-1.92-9.89-1.92v3.43c0,.62-.16,62.94-13.85,118l-.77,3.08,9.83,1.91.65-2.61Z"/><path class="cls-19" d="m380.63,353.32c13.94-56.07,13.94-118.71,13.94-118.71l-6-.97s0,62.63-13.94,118.71l6,.97Z"/><path class="cls-13" d="m388.57,233.64s0,62.63-13.94,118.71l13.94-118.71Z"/></g><rect class="cls-12" x="213.25" y="275.98" width="121.09" height="121.09"/></g></g></g></svg>