<?xml version="1.0" encoding="utf-8"?>
<!-- Generator: Adobe Illustrator 27.7.0, SVG Export Plug-In . SVG Version: 6.00 Build 0)  -->
<svg version="1.1" id="Слой_1" xmlns="http://www.w3.org/2000/svg" xmlns:xlink="http://www.w3.org/1999/xlink" x="0px" y="0px"
	 viewBox="0 0 562.3 562.3" style="enable-background:new 0 0 562.3 562.3;" xml:space="preserve">
<style type="text/css">
	.st0{clip-path:url(#SVGID_00000082369125084142057680000005649245057855688633_);}
	.st1{fill:#F6F6F6;}
	.st2{fill:#1D1D1B;}
	.st3{fill:#FFFFFF;}
	.st4{fill:#E5E5E5;stroke:#000000;stroke-width:2.32;stroke-linecap:round;stroke-linejoin:round;}
	.st5{fill:none;}
	.st6{fill:#E5E5E5;stroke:#000000;stroke-width:2.01;stroke-linecap:round;stroke-linejoin:round;}
	.st7{fill:#FFFFFF;stroke:#000000;stroke-width:2.32;stroke-linecap:round;stroke-linejoin:round;}
	.st8{fill:#FFFFFF;stroke:#000000;stroke-width:2.01;stroke-linecap:round;stroke-linejoin:round;}
	.st9{fill:url(#SVGID_00000105403010430052233970000014637137227719412882_);}
	.st10{opacity:0.4;fill:url(#SVGID_00000181785124656526467100000007883113954426886585_);enable-background:new    ;}
	.st11{opacity:0.9;fill:url(#SVGID_00000118384323112334755680000017386621259438076834_);enable-background:new    ;}
	.st12{fill:url(#SVGID_00000134214131191711864280000009045420843907448995_);}
	.st13{opacity:0.4;fill:url(#SVGID_00000000182290742199777640000009133222060617254060_);enable-background:new    ;}
	.st14{opacity:0.9;fill:url(#SVGID_00000018226251018444211210000001489017384535130811_);enable-background:new    ;}
	.st15{fill:url(#SVGID_00000115494745664171486080000010156457399624477338_);}
	.st16{opacity:0.4;fill:url(#SVGID_00000159428900935622362810000014655995808854053564_);enable-background:new    ;}
	.st17{opacity:0.9;fill:url(#SVGID_00000080169160705906539140000007080659603760195977_);enable-background:new    ;}
</style>
<g>
	<g id="_Слой_2">
		<g id="layer">
			<g>
				<defs>
					<rect id="SVGID_1_" y="0" width="562.3" height="562.3"/>
				</defs>
				<clipPath id="SVGID_00000036937663064972079950000004957091634797086890_">
					<use xlink:href="#SVGID_1_"  style="overflow:visible;"/>
				</clipPath>
				<g style="clip-path:url(#SVGID_00000036937663064972079950000004957091634797086890_);">
					<rect x="0.4" y="0.2" class="st1" width="562.9" height="562.9"/>
					<rect x="285" y="121.3" class="st2" width="4.1" height="430.7"/>
					<path class="st3" d="M358.1,66.8c0,0,11.1,11.3,19.6,23.1c14.2,19.7,18.5,36.1,18.5,36.1s-48.3-7.8-110.3-7.3
						c-58.2,0.4-110.1,8.9-110.1,8.9s4.3-11,22.8-36.4c8.7-11.9,17.8-23.4,17.8-23.4s37.6-4.3,70.5-4.6
						C320.4,63,358.1,66.8,358.1,66.8L358.1,66.8z"/>
					<path class="st2" d="M175.8,128.8c-0.4,0-0.7-0.2-0.9-0.5c-0.3-0.3-0.4-0.8-0.2-1.2c0.2-0.4,4.6-11.4,22.9-36.6
						c8.6-11.8,17.8-23.3,17.9-23.4c0.2-0.2,0.5-0.4,0.8-0.4c0.4,0,38.1-4.3,70.7-4.6c33.2-0.2,71,3.5,71.4,3.5
						c0.3,0,0.5,0.2,0.8,0.4c0.1,0.1,11.3,11.5,19.8,23.2c14.1,19.6,18.5,35.8,18.6,36.5c0.1,0.4,0,0.8-0.3,1.1s-0.7,0.4-1.1,0.4
						c-0.5-0.1-49-7.8-110.1-7.3c-57.4,0.4-109.4,8.8-109.9,8.9C175.9,128.8,175.9,128.8,175.8,128.8L175.8,128.8z M217,69
						c-1.7,2.1-9.8,12.4-17.5,22.9c-13.8,18.9-19.6,29.9-21.7,34.1c10.6-1.6,57.2-8.2,108-8.6c54.5-0.4,99,5.6,108.6,7
						c-1.5-4.8-6.5-18.4-17.7-33.9c-7.6-10.5-17.4-20.7-19.2-22.6c-4.3-0.4-39.6-3.7-70.7-3.5C256.5,64.7,221.6,68.5,217,69L217,69z
						"/>
					<path class="st4" d="M191.7,147.1c-4.3-5.6-7.7-11.9-7.7-11.9c-2.4-4.4-4.2-8.3-5.5-11.4c-35.1,12.6-70.6,25.8-106.6,39.6
						c-30.9,11.8-61.3,23.8-91.2,35.8c4,15.5,9.6,39.1,15.3,68c16.1,82.5,20,148.1,21.5,181.4c6.6,146.8-1.7,380-2.1,393
						C5,1198.4,7.6,1395.8,7.6,1395.8s43,14.6,156.7,22.8c119.8,8.7,163,3.7,163,3.7c0.8-418,1.5-836,2.3-1254
						C253.4,169,199,156.5,191.7,147.1L191.7,147.1z"/>
					<path class="st5" d="M285.3,1424.6c-26,0-65.4-1.1-121.1-5.1c-112.5-8.1-156.5-22.7-156.9-22.8c-0.4-0.1-0.7-0.5-0.7-0.9
						c0-2-2.5-201.5,7.7-554.2c0-0.8,0.1-2.3,0.1-4.6c2.4-75.3,7.5-263.8,1.9-388.4c-1-22.9-4.1-92.5-21.4-181.3
						c-4.4-22.8-9.6-45.6-15.3-67.9c-0.1-0.5,0.1-1,0.6-1.2C10.4,186,41.1,174,71.5,162.4c35.2-13.5,71.1-26.8,106.6-39.6
						c0.5-0.2,1.1,0.1,1.3,0.6c1.6,3.9,3.4,7.7,5.5,11.3c0,0.1,3.5,6.4,7.6,11.8c6.7,8.7,56.9,20.8,131,20.8c2,0,4,0,6.1,0
						c0.3,0,0.5,0.1,0.7,0.3c0.2,0.2,0.3,0.4,0.3,0.7l-2.3,1254c0,0.5-0.4,0.9-0.9,1C327.2,1423.3,314.6,1424.6,285.3,1424.6
						L285.3,1424.6z M8.6,1395c5.9,1.8,51,14.9,155.7,22.5c109.2,7.9,155.2,4.4,162,3.8l2.3-1252c-71,0.5-129.5-10.9-137.7-21.6
						c-4.3-5.6-7.8-12-7.8-12.1c-1.9-3.4-3.7-7-5.2-10.7c-35.2,12.7-70.8,25.9-105.7,39.2c-30.1,11.5-60.5,23.4-90.4,35.4
						c5.6,22.1,10.7,44.7,15.1,67.2c17.3,88.9,20.5,158.6,21.5,181.6C24,573.1,18.9,761.7,16.4,837c-0.1,2.2-0.1,3.8-0.1,4.5
						C6.4,1183.6,8.4,1381.5,8.6,1395L8.6,1395z"/>
					<path class="st6" d="M378.8,148c4.4-5,7.5-10.5,7.5-10.5c2.6-4.6,5-10.3,6.7-17.5c20.5,11,195.7,80.1,195.7,80.1
						c-1.3,5.8-3.3,14.2-5.5,24.4c-7.7,35.7-24.3,119.2-30.2,224.8c-10.8,192.1,2.1,393,2.1,393c10.3,356.9,7.7,554.2,7.7,554.2
						c-45.4,9.9-98,18.4-156.7,22.8c-49.9,3.7-95.7,3.8-136.5,1.8c5-416.5,10-833.1,14.9-1249.6C334.9,168.4,370.9,156.9,378.8,148
						L378.8,148z"/>
					<path class="st5" d="M322.8,1423.5c-17.7,0-35.5-0.4-53.1-1.2c-0.5,0-1-0.5-1-1l14.9-1249.6c0-0.5,0.4-1,0.9-1
						c48.4-3.1,85.5-14.3,93.5-23.3c4.3-4.9,7.4-10.3,7.4-10.3c2.8-5.1,5.1-10.9,6.6-17.2c0.1-0.3,0.3-0.6,0.6-0.7s0.6-0.1,0.9,0
						c20.2,10.9,193.9,79.4,195.6,80.1c0.5,0.2,0.7,0.7,0.6,1.2c-1.9,8.1-3.7,16.3-5.5,24.4c-15.5,72.1-26,149.8-30.2,224.7
						c-10.6,189.5,1.5,384.7,2.1,392.9c10.2,352.8,7.7,552.3,7.7,554.3c0,0.5-0.3,0.9-0.8,1c-51.5,11.2-104.3,18.9-156.8,22.8
						C378.7,1422.4,350.7,1423.5,322.8,1423.5L322.8,1423.5z M270.7,1420.3c45,2.1,90.6,1.4,135.5-1.9
						c52.2-3.9,104.6-11.5,155.7-22.6c0.2-14.1,2.2-211.9-7.7-553.4c-0.5-8.2-12.7-203.5-2.1-393.1c4.2-75,14.7-152.8,30.2-225
						c1.7-7.9,3.5-15.8,5.3-23.6c-12.8-5-169.8-67.1-193.9-79.2c-1.6,6-3.8,11.6-6.5,16.5c-0.1,0.2-3.2,5.6-7.7,10.7l-0.8-0.7
						l0.8,0.7c-8,9.1-43.6,20.6-93.9,23.9L270.7,1420.3L270.7,1420.3z"/>
					<path class="st7" d="M-20.2,199.4c-23.3,52.1-38.9,127.1-44.2,204.1c-2.7,39.1-3.8,105-11.8,143.8
						c-4.4,21.5-7.2,29.6-12.6,69.8c-2.8,20.3-3.3,41.8,2.2,94.6c2.9,28,4.8,53.8,6.8,78.5c1.3,15.8,6.8,37,12.7,56
						c2.9,9.3,10.5,10.8,16.4,14.6c2.2,1.4,1.9,3.8,5,6.3c13,0.7,29.2,0.5,47.5-2.3c16.6-2.5,30.8-6.6,42.2-10.6
						c-0.4-2.5-0.8-6.2,0.3-10.3c0.8-3,1.8-4.4,3-7.9c0,0,1.5-4.2,2.4-11c2.3-16.9-21.9-148.6-22.3-161.1c0-1-2.9-13.1-0.3-18.2l0,0
						c0.3-4.4,0.7-5.8,0.2-8.7c-1-5.2-4.5-6.9,1-19.2c2-4.5-3.2-9.5,0.7-16.4c2.2-3.8,2.9-5.5,4.8-14.3c19.1-89.3,2-148.1,2-148.1
						C18.8,332.2-13,223.7-20.2,199.4z"/>
					<path class="st5" d="M-32.9,868.9c-4.3,0-8.6-0.1-13-0.4c-0.3,0-0.6-0.1-0.8-0.3c-1.8-1.5-2.6-3-3.3-4.1
						c-0.5-0.9-0.9-1.6-1.6-2.1c-1.3-0.9-2.8-1.6-4.3-2.4c-4.8-2.5-10.3-5.3-12.7-13c-7.4-23.7-11.7-42.6-12.8-56.3
						c-0.4-4.7-0.8-9.4-1.2-14.2c-1.6-20.5-3.3-41.6-5.7-64.2c-5.4-52.6-4.9-74.6-2.2-95c4.3-31.5,6.9-43.4,9.9-57.3
						c0.9-3.9,1.7-8,2.7-12.7c5.9-28.4,8-70.6,9.8-107.9c0.7-13,1.3-25.3,2-35.7c5.5-79.4,21.7-153.9,44.4-204.6
						c0.2-0.6,0.8-0.9,1.4-0.9s1.1,0.4,1.3,1c11.6,39,40.2,140.4,56.1,239.5c0.8,2.7,16.6,61.7-2,148.7c-1.9,8.8-2.6,10.7-4.9,14.7
						c-1.9,3.4-1.3,6.3-0.6,9.1c0.5,2.3,1.1,4.7,0,7.1c-4.1,9-3.1,11.8-1.9,15c0.4,1,0.8,2.1,1,3.4c0.4,2.3,0.3,3.8,0.1,6
						c-0.1,0.9-0.2,1.9-0.2,3.1c0,0.2-0.1,0.4-0.1,0.5c-1.9,3.8-0.3,13,0.2,16c0.2,1,0.2,1.3,0.2,1.5c0.1,4.4,3.5,25,7.3,49
						c7.3,45.2,16.4,101.4,14.9,112.4c-0.5,3.6-1.1,6.4-1.6,8.2c-0.4,1.5-0.6,2.5-0.9,3.1c-0.5,1.5-1,2.7-1.5,3.7
						c-0.6,1.4-1.1,2.5-1.5,4.1c-0.8,3.1-0.9,6.4-0.3,9.8c0.1,0.7-0.3,1.4-0.9,1.6c-13.8,4.9-28.1,8.5-42.5,10.7
						C-9.6,868-21.2,868.9-32.9,868.9L-32.9,868.9z M-45.2,865.6c15.6,0.8,31.3,0.1,46.7-2.3c13.9-2.1,27.6-5.5,40.8-10.2
						c-0.5-3.4-0.3-6.6,0.5-9.8c0.5-1.9,1.1-3.2,1.7-4.6c0.4-1,0.9-2,1.4-3.5l0,0l0,0c0,0,1.5-4.1,2.4-10.7
						c1.5-10.6-8-68.9-14.9-111.5c-4-25-7.2-44.7-7.4-49.3c0-0.2-0.1-0.6-0.2-1.1c-1-6-2-13.3-0.1-17.5c0.1-1.1,0.2-2.1,0.2-2.9
						c0.2-2.1,0.3-3.3,0-5.2c-0.2-1.1-0.5-2-0.9-2.9c-1.2-3.5-2.5-7.1,2-17.1c0.7-1.5,0.3-3.2-0.2-5.3c-0.7-3-1.5-6.8,0.9-11.2
						c2-3.6,2.7-5,4.6-13.9c18.8-87.9,2.2-146.8,2.1-147.4c0-0.1,0-0.1,0-0.2C19.1,343.1-8.2,245-20.5,203.6
						c-21.7,50.2-37.2,122.8-42.5,200c-0.7,10.3-1.3,22.6-2,35.6c-1.9,37.4-4,79.7-9.9,108.3c-1,4.7-1.9,8.8-2.7,12.7
						c-3,13.8-5.6,25.7-9.9,57c-2.7,20.1-3.2,42,2.2,94.3c2.3,22.6,4,43.8,5.7,64.3c0.4,4.8,0.8,9.5,1.2,14.2
						c1.1,13.5,5.4,32.2,12.7,55.6c2,6.5,6.5,8.8,11.2,11.3c1.5,0.8,3.1,1.6,4.5,2.5c1.3,0.9,2,2,2.6,3.1
						C-46.9,863.6-46.4,864.6-45.2,865.6L-45.2,865.6z"/>
					<path class="st8" d="M589.5,200c23.3,52.1,38.9,127.1,44.2,204.1c2.7,39.1,3.8,105,11.8,143.8c4.4,21.5,7.2,29.6,12.6,69.8
						c2.8,20.3,3.3,41.8-2.2,94.6c-2.9,28-4.8,53.8-6.8,78.5c-1.3,15.8-6.8,37-12.7,56c-2.9,9.3-10.5,10.8-16.4,14.6
						c-2.2,1.4-1.9,3.8-5,6.3c-13,0.7-29.2,0.5-47.5-2.3c-16.6-2.5-30.8-6.6-42.2-10.6c0.4-2.5,0.8-6.2-0.3-10.3
						c-0.8-3-1.8-4.4-3-7.9c0,0-1.5-4.2-2.4-11c-2.3-16.9,21.8-148.6,22.3-161.1c0-1,2.9-13.1,0.3-18.2l0,0
						c-0.3-4.4-0.7-5.8-0.2-8.7c1-5.2,4.5-6.9-1-19.2c-2-4.5,3.2-9.5-0.7-16.4c-2.2-3.8-2.9-5.5-4.8-14.3
						c-19.1-89.3-2-148.1-2-148.1C550.5,332.7,582.3,224.2,589.5,200L589.5,200z"/>
					<path class="st5" d="M602.2,869.4c-11.7,0-23.3-0.9-34.8-2.6c-14.4-2.2-28.7-5.8-42.5-10.7c-0.7-0.2-1.1-0.9-0.9-1.6
						c0.6-3.4,0.5-6.7-0.3-9.8c-0.4-1.7-0.9-2.8-1.5-4.1c-0.4-1-0.9-2.1-1.5-3.7c-0.3-0.6-0.5-1.6-0.9-3.1c-0.5-1.8-1.1-4.6-1.6-8.2
						c-1.5-11,7.6-67.2,14.9-112.4c3.9-23.9,7.2-44.5,7.3-49c0-0.2,0.1-0.6,0.2-1.5c0.5-3,2.1-12.2,0.2-16c-0.1-0.2-0.1-0.4-0.2-0.5
						c-0.1-1.2-0.2-2.2-0.2-3.1c-0.2-2.2-0.3-3.7,0.1-6c0.2-1.3,0.6-2.3,1-3.4c1.2-3.2,2.1-6-1.9-15c-1.1-2.4-0.5-4.8,0-7.1
						c0.6-2.8,1.3-5.7-0.6-9.1c-2.3-4.1-3-5.9-4.9-14.7c-18.6-87-2.8-146-2-148.7c15.9-99.2,44.5-200.6,56.1-239.5
						c0.2-0.6,0.7-1,1.3-1c0.6,0,1.2,0.3,1.4,0.9c22.7,50.6,38.8,125.2,44.4,204.6c0.7,10.4,1.3,22.6,2,35.7
						c1.8,37.3,4,79.5,9.8,107.9c1,4.7,1.9,8.7,2.7,12.7c3,13.8,5.7,25.8,9.9,57.3c2.8,20.3,3.3,42.4-2.2,95
						c-2.3,22.6-4,43.7-5.7,64.2c-0.4,4.8-0.8,9.6-1.2,14.3c-1.1,13.7-5.4,32.6-12.8,56.3c-2.4,7.6-7.8,10.5-12.7,13
						c-1.5,0.8-3,1.5-4.3,2.4c-0.7,0.5-1.1,1.2-1.6,2.1c-0.6,1.2-1.5,2.7-3.3,4.1c-0.2,0.2-0.5,0.3-0.8,0.3
						C610.9,869.3,606.5,869.4,602.2,869.4L602.2,869.4z M527,853.7c13.2,4.6,27,8,40.8,10.2c15.4,2.3,31.1,3.1,46.7,2.3
						c1.2-1,1.7-2,2.2-3c0.6-1.1,1.2-2.2,2.6-3.1c1.5-1,3-1.8,4.5-2.5c4.8-2.5,9.2-4.8,11.2-11.3c7.3-23.5,11.6-42.2,12.7-55.6
						c0.4-4.7,0.8-9.5,1.2-14.3c1.6-20.5,3.3-41.6,5.7-64.2c5.4-52.3,4.9-74.2,2.2-94.3c-4.2-31.4-6.9-43.3-9.9-57
						c-0.9-3.9-1.8-8-2.7-12.7c-5.9-28.6-8-71-9.9-108.3c-0.7-13-1.3-25.3-2-35.6c-5.4-77.2-20.8-149.7-42.5-200
						c-12.2,41.4-39.6,139.5-54.9,235.5c0,0.1,0,0.1,0,0.2c-0.2,0.6-16.7,59.5,2.1,147.4c1.9,8.9,2.6,10.3,4.6,13.9
						c2.5,4.4,1.6,8.1,0.9,11.2c-0.5,2.1-0.9,3.8-0.2,5.3c4.5,10.1,3.2,13.7,2,17.1c-0.3,1-0.7,1.9-0.9,2.9c-0.4,1.9-0.2,3,0,5.2
						c0.1,0.8,0.2,1.8,0.2,2.9c1.9,4.2,1,11.6-0.1,17.5c-0.1,0.6-0.2,1-0.2,1.2c-0.2,4.6-3.3,24.3-7.4,49.3
						c-6.9,42.6-16.3,101-14.9,111.5c0.9,6.5,2.3,10.5,2.4,10.7c0,0,0,0,0,0c0.5,1.4,1,2.5,1.4,3.5c0.6,1.4,1.2,2.7,1.7,4.6
						C527.3,847.1,527.4,850.4,527,853.7L527,853.7z M533.5,439.4L533.5,439.4L533.5,439.4z"/>
					
						<radialGradient id="SVGID_00000103955415137611019320000011673397740982001056_" cx="302.01" cy="345.5291" r="11.02" gradientTransform="matrix(1 0 0 -1 0 561.5591)" gradientUnits="userSpaceOnUse">
						<stop  offset="0" style="stop-color:#FFFFFF"/>
						<stop  offset="0.13" style="stop-color:#FAFAFA"/>
						<stop  offset="0.26" style="stop-color:#EDEDED"/>
						<stop  offset="0.4" style="stop-color:#D8D8D8"/>
						<stop  offset="0.55" style="stop-color:#BABABA"/>
						<stop  offset="0.69" style="stop-color:#939394"/>
						<stop  offset="0.84" style="stop-color:#646465"/>
						<stop  offset="0.94" style="stop-color:#404041"/>
						<stop  offset="1" style="stop-color:#484849"/>
					</radialGradient>
					<circle style="fill:url(#SVGID_00000103955415137611019320000011673397740982001056_);" cx="302" cy="216" r="11"/>
					<path class="st5" d="M302,227.6c-6.4,0-11.6-5.2-11.6-11.6s5.2-11.6,11.6-11.6s11.6,5.2,11.6,11.6S308.4,227.6,302,227.6z
						 M302,205.6c-5.8,0-10.4,4.7-10.4,10.4s4.7,10.4,10.4,10.4s10.4-4.7,10.4-10.4S307.8,205.6,302,205.6z"/>
					
						<radialGradient id="SVGID_00000048490330839560182240000011817195673874416012_" cx="-2864.0701" cy="2230.3901" r="6.61" gradientTransform="matrix(-1.2 0 0 1.22 -3128.7 -2499.3721)" gradientUnits="userSpaceOnUse">
						<stop  offset="0" style="stop-color:#FFFFFF"/>
						<stop  offset="0.22" style="stop-color:#FCFCFC"/>
						<stop  offset="0.36" style="stop-color:#F3F3F3"/>
						<stop  offset="0.48" style="stop-color:#E4E4E5"/>
						<stop  offset="0.58" style="stop-color:#D0D0D0"/>
						<stop  offset="0.68" style="stop-color:#B5B5B5"/>
						<stop  offset="0.77" style="stop-color:#939394"/>
						<stop  offset="0.86" style="stop-color:#6D6D6E"/>
						<stop  offset="0.94" style="stop-color:#404041"/>
						<stop  offset="0.94" style="stop-color:#404041"/>
						<stop  offset="1" style="stop-color:#484849"/>
					</radialGradient>
					
						<path style="opacity:0.4;fill:url(#SVGID_00000048490330839560182240000011817195673874416012_);enable-background:new    ;" d="
						M311.5,218.4c0,0-1.4,6.1-6.9,6.6c-5.6,0.6-10.5-1.2-11.4-7.1c0,0-0.4-3.1,0.1-5.1c0,0,1.4-1.4,1.3,0.5
						c-0.4,4.9,2.7,8.5,8.3,9.1s6.3-3.6,6.3-3.6S311.7,217.8,311.5,218.4L311.5,218.4z"/>
					
						<radialGradient id="SVGID_00000116212116019984119670000008795870916807702193_" cx="302.6769" cy="348.4131" r="6.8999" gradientTransform="matrix(1 0 0 -1 0 561.5591)" gradientUnits="userSpaceOnUse">
						<stop  offset="0" style="stop-color:#FFFFFF"/>
						<stop  offset="0.22" style="stop-color:#FCFCFC"/>
						<stop  offset="0.36" style="stop-color:#F3F3F3"/>
						<stop  offset="0.48" style="stop-color:#E4E4E5"/>
						<stop  offset="0.58" style="stop-color:#D0D0D0"/>
						<stop  offset="0.68" style="stop-color:#B5B5B5"/>
						<stop  offset="0.77" style="stop-color:#939394"/>
						<stop  offset="0.86" style="stop-color:#6D6D6E"/>
						<stop  offset="0.94" style="stop-color:#404041"/>
						<stop  offset="0.94" style="stop-color:#404041"/>
						<stop  offset="1" style="stop-color:#484849"/>
					</radialGradient>
					
						<path style="opacity:0.9;fill:url(#SVGID_00000116212116019984119670000008795870916807702193_);enable-background:new    ;" d="
						M294.8,212.9c0,0,1.1-5,5.8-5.4c4.7-0.4,8.8,1,9.5,5.8c0,0,0.7,3.1,0.2,4.8c0,0-1.2,1.7-2.2,0.4s-2-7.5-6.7-7.9
						s-5.1,2.8-5.1,2.8S294.6,213.5,294.8,212.9L294.8,212.9z"/>
					
						<radialGradient id="SVGID_00000114046246143119394700000002915248029127401365_" cx="298.3" cy="207.4991" r="11.02" gradientTransform="matrix(1 0 0 -1 0 561.5591)" gradientUnits="userSpaceOnUse">
						<stop  offset="0" style="stop-color:#FFFFFF"/>
						<stop  offset="0.13" style="stop-color:#FAFAFA"/>
						<stop  offset="0.26" style="stop-color:#EDEDED"/>
						<stop  offset="0.4" style="stop-color:#D8D8D8"/>
						<stop  offset="0.55" style="stop-color:#BABABA"/>
						<stop  offset="0.69" style="stop-color:#939394"/>
						<stop  offset="0.84" style="stop-color:#646465"/>
						<stop  offset="0.94" style="stop-color:#404041"/>
						<stop  offset="1" style="stop-color:#484849"/>
					</radialGradient>
					<circle style="fill:url(#SVGID_00000114046246143119394700000002915248029127401365_);" cx="298.3" cy="354.1" r="11"/>
					<path class="st5" d="M298.3,365.6c-6.4,0-11.6-5.2-11.6-11.6s5.2-11.6,11.6-11.6s11.6,5.2,11.6,11.6S304.7,365.6,298.3,365.6z
						 M298.3,343.6c-5.8,0-10.4,4.7-10.4,10.4s4.7,10.4,10.4,10.4s10.4-4.7,10.4-10.4S304.1,343.6,298.3,343.6z"/>
					
						<radialGradient id="SVGID_00000057146712769191056610000007938955901048872352_" cx="-3141.47" cy="2738.5291" r="6.61" gradientTransform="matrix(1 0 0 -1 0 561.5591)" gradientUnits="userSpaceOnUse">
						<stop  offset="0" style="stop-color:#FFFFFF"/>
						<stop  offset="0.22" style="stop-color:#FCFCFC"/>
						<stop  offset="0.36" style="stop-color:#F3F3F3"/>
						<stop  offset="0.48" style="stop-color:#E4E4E5"/>
						<stop  offset="0.58" style="stop-color:#D0D0D0"/>
						<stop  offset="0.68" style="stop-color:#B5B5B5"/>
						<stop  offset="0.77" style="stop-color:#939394"/>
						<stop  offset="0.86" style="stop-color:#6D6D6E"/>
						<stop  offset="0.94" style="stop-color:#404041"/>
						<stop  offset="0.94" style="stop-color:#404041"/>
						<stop  offset="1" style="stop-color:#484849"/>
					</radialGradient>
					
						<path style="opacity:0.4;fill:url(#SVGID_00000057146712769191056610000007938955901048872352_);enable-background:new    ;" d="
						M307.8,356.5c0,0-1.4,6.1-6.9,6.6c-5.6,0.5-10.5-1.2-11.4-7.1c0,0-0.4-3.1,0.1-5.1c0,0,1.4-1.4,1.3,0.5
						c-0.4,4.9,2.7,8.5,8.3,9.1s6.3-3.6,6.3-3.6S308,355.8,307.8,356.5L307.8,356.5z"/>
					
						<radialGradient id="SVGID_00000065764348532527423440000008538417381486759311_" cx="298.9669" cy="210.3831" r="6.8999" gradientTransform="matrix(1 0 0 -1 0 561.5591)" gradientUnits="userSpaceOnUse">
						<stop  offset="0" style="stop-color:#FFFFFF"/>
						<stop  offset="0.22" style="stop-color:#FCFCFC"/>
						<stop  offset="0.36" style="stop-color:#F3F3F3"/>
						<stop  offset="0.48" style="stop-color:#E4E4E5"/>
						<stop  offset="0.58" style="stop-color:#D0D0D0"/>
						<stop  offset="0.68" style="stop-color:#B5B5B5"/>
						<stop  offset="0.77" style="stop-color:#939394"/>
						<stop  offset="0.86" style="stop-color:#6D6D6E"/>
						<stop  offset="0.94" style="stop-color:#404041"/>
						<stop  offset="0.94" style="stop-color:#404041"/>
						<stop  offset="1" style="stop-color:#484849"/>
					</radialGradient>
					
						<path style="opacity:0.9;fill:url(#SVGID_00000065764348532527423440000008538417381486759311_);enable-background:new    ;" d="
						M291.1,350.9c0,0,1.1-5,5.8-5.5c4.7-0.5,8.8,1,9.5,5.8c0,0,0.7,3.1,0.2,4.8c0,0-1.2,1.7-2.2,0.5s-2-7.5-6.7-8s-5.1,2.8-5.1,2.8
						S290.9,351.5,291.1,350.9L291.1,350.9z"/>
					
						<radialGradient id="SVGID_00000013173129515113872900000004117671377825874826_" cx="298.3" cy="64.8491" r="11.02" gradientTransform="matrix(1 0 0 -1 0 561.5591)" gradientUnits="userSpaceOnUse">
						<stop  offset="0" style="stop-color:#FFFFFF"/>
						<stop  offset="0.13" style="stop-color:#FAFAFA"/>
						<stop  offset="0.26" style="stop-color:#EDEDED"/>
						<stop  offset="0.4" style="stop-color:#D8D8D8"/>
						<stop  offset="0.55" style="stop-color:#BABABA"/>
						<stop  offset="0.69" style="stop-color:#939394"/>
						<stop  offset="0.84" style="stop-color:#646465"/>
						<stop  offset="0.94" style="stop-color:#404041"/>
						<stop  offset="1" style="stop-color:#484849"/>
					</radialGradient>
					<circle style="fill:url(#SVGID_00000013173129515113872900000004117671377825874826_);" cx="298.3" cy="496.7" r="11"/>
					<path class="st5" d="M298.3,508.3c-6.4,0-11.6-5.2-11.6-11.6s5.2-11.6,11.6-11.6s11.6,5.2,11.6,11.6S304.7,508.3,298.3,508.3z
						 M298.3,486.3c-5.8,0-10.4,4.7-10.4,10.4s4.7,10.4,10.4,10.4s10.4-4.7,10.4-10.4S304.1,486.3,298.3,486.3z"/>
					
						<radialGradient id="SVGID_00000163765641594237081160000000407363311194762637_" cx="-3141.47" cy="2855.5891" r="6.61" gradientTransform="matrix(1 0 0 -1 0 561.5591)" gradientUnits="userSpaceOnUse">
						<stop  offset="0" style="stop-color:#FFFFFF"/>
						<stop  offset="0.22" style="stop-color:#FCFCFC"/>
						<stop  offset="0.36" style="stop-color:#F3F3F3"/>
						<stop  offset="0.48" style="stop-color:#E4E4E5"/>
						<stop  offset="0.58" style="stop-color:#D0D0D0"/>
						<stop  offset="0.68" style="stop-color:#B5B5B5"/>
						<stop  offset="0.77" style="stop-color:#939394"/>
						<stop  offset="0.86" style="stop-color:#6D6D6E"/>
						<stop  offset="0.94" style="stop-color:#404041"/>
						<stop  offset="0.94" style="stop-color:#404041"/>
						<stop  offset="1" style="stop-color:#484849"/>
					</radialGradient>
					
						<path style="opacity:0.4;fill:url(#SVGID_00000163765641594237081160000000407363311194762637_);enable-background:new    ;" d="
						M307.8,499.1c0,0-1.4,6.1-6.9,6.6c-5.6,0.5-10.5-1.2-11.4-7.1c0,0-0.4-3.1,0.1-5.1c0,0,1.4-1.4,1.3,0.5
						c-0.4,4.9,2.7,8.5,8.3,9.1s6.3-3.6,6.3-3.6S308,498.4,307.8,499.1L307.8,499.1z"/>
					
						<radialGradient id="SVGID_00000116913865087806897360000018295095343193455803_" cx="298.9669" cy="67.7331" r="6.8999" gradientTransform="matrix(1 0 0 -1 0 561.5591)" gradientUnits="userSpaceOnUse">
						<stop  offset="0" style="stop-color:#FFFFFF"/>
						<stop  offset="0.22" style="stop-color:#FCFCFC"/>
						<stop  offset="0.36" style="stop-color:#F3F3F3"/>
						<stop  offset="0.48" style="stop-color:#E4E4E5"/>
						<stop  offset="0.58" style="stop-color:#D0D0D0"/>
						<stop  offset="0.68" style="stop-color:#B5B5B5"/>
						<stop  offset="0.77" style="stop-color:#939394"/>
						<stop  offset="0.86" style="stop-color:#6D6D6E"/>
						<stop  offset="0.94" style="stop-color:#404041"/>
						<stop  offset="0.94" style="stop-color:#404041"/>
						<stop  offset="1" style="stop-color:#484849"/>
					</radialGradient>
					
						<path style="opacity:0.9;fill:url(#SVGID_00000116913865087806897360000018295095343193455803_);enable-background:new    ;" d="
						M291.1,493.6c0,0,1.1-5,5.8-5.5c4.7-0.5,8.8,1,9.5,5.8c0,0,0.7,3.1,0.2,4.8c0,0-1.2,1.7-2.2,0.5s-2-7.5-6.7-8s-5.1,2.8-5.1,2.8
						S290.9,494.1,291.1,493.6L291.1,493.6z"/>
					<path class="st4" d="M223.5,124.1c15.4,12.5,32.1,25.1,44.3,34.2c10.6,7.9,17.9,13,17.9,13c1.8-0.4,3.5-0.6,5.3-0.5
						c1,0.1,2,0.2,3.1,0.5c0,0,7.7-5.4,18.9-13.7c12.1-9,28.3-21.2,43.3-33.4c11.6-9.4,22.4-18.8,29.9-26.6
						c4.1-4.2,6.5-7.9,7.7-11.1c4.8-12.8-10.5-18.4-23.4-21c-2.4-0.5-4.7-0.9-6.7-1.2c-2.1-0.3-3.9-0.6-5.4-0.8
						c-12.5-1.3-26-1.7-38.2-1.7c-12.1,0-22.8,0.3-29.6,0.3c-11.5,0.1-23.1-0.1-34.6-0.1c-11.5,0-23,0.3-34.6,1.5
						c-1.5,0.2-3.4,0.5-5.4,0.8c-2.1,0.3-4.4,0.7-6.8,1.2c-12.9,2.7-28.1,8.2-23.4,21c1.2,3.2,3.6,6.9,7.7,11.1
						C201.2,105.3,212,114.7,223.5,124.1L223.5,124.1z"/>
					<path class="st5" d="M285.7,172.3c-0.2,0-0.4-0.1-0.6-0.2c-0.1-0.1-7.4-5.2-17.9-13c-11.6-8.5-28.6-21.4-44.3-34.2l0,0
						c-13.1-10.7-23.2-19.7-30-26.7c-4-4.1-6.6-8-7.9-11.4c-1.4-3.8-1.3-7.2,0.4-10.3c3-5.5,10.8-9.4,23.7-12.1
						c2.1-0.4,4.3-0.8,6.8-1.2c1.7-0.3,3.2-0.5,4.6-0.7l0.9-0.1c12.6-1.3,25.2-1.5,34.7-1.5c4.8,0,9.7,0,14.5,0.1
						c6.6,0.1,13.4,0.1,20.1,0c2.2,0,4.8-0.1,7.6-0.1c6.1-0.1,13.7-0.2,22-0.2c15,0,27.6,0.6,38.3,1.7l0.7,0.1
						c1.4,0.2,3,0.4,4.8,0.7c2.5,0.4,4.7,0.8,6.8,1.2c12.9,2.7,20.6,6.6,23.7,12.1c1.7,3,1.8,6.5,0.4,10.3c-1.3,3.5-4,7.3-7.9,11.5
						c-6.8,7.1-16.9,16-30,26.7c-15.3,12.5-32,25.1-43.3,33.5c-11,8.2-18.8,13.7-18.9,13.7c-0.2,0.2-0.5,0.2-0.8,0.2
						c-1.1-0.2-2.1-0.4-3-0.4c-1.8-0.1-3.5,0.1-5,0.4C285.8,172.3,285.8,172.3,285.7,172.3L285.7,172.3z M290,169.7
						c0.4,0,0.8,0,1.1,0.1c0.9,0.1,1.8,0.2,2.8,0.4c1.6-1.2,8.8-6.3,18.5-13.4c11.3-8.3,27.9-20.9,43.2-33.4
						c13-10.6,23-19.6,29.8-26.6c3.8-3.9,6.3-7.5,7.5-10.8c1.2-3.2,1.1-6.1-0.3-8.6c-2.7-4.9-10.2-8.6-22.3-11.1
						c-2.1-0.4-4.2-0.8-6.7-1.2c-1.8-0.3-3.4-0.5-4.8-0.7l-0.6-0.1c-10.6-1.1-23-1.6-38-1.7c-8.2,0-15.8,0.1-21.9,0.2
						c-2.9,0-5.5,0.1-7.7,0.1c-6.7,0.1-13.5,0-20.1,0c-4.7,0-9.6-0.1-14.4-0.1c-9.5,0-21.9,0.2-34.4,1.5l-0.8,0.1
						c-1.3,0.2-2.9,0.4-4.6,0.7c-2.5,0.4-4.6,0.8-6.7,1.2c-12.1,2.5-19.6,6.2-22.3,11.1c-1.4,2.5-1.5,5.3-0.3,8.6
						c1.2,3.2,3.7,6.8,7.5,10.8c6.8,7,16.8,15.9,29.8,26.5l0,0c15.7,12.8,32.7,25.6,44.2,34.1c9.2,6.8,15.9,11.6,17.5,12.7
						C287.1,169.9,288.5,169.7,290,169.7L290,169.7z"/>
					<path class="st4" d="M179.2,229.6c4.2-3.4,11.7-8.8,21-15s20.4-13.1,31.7-19.5c9.9-5.6,20-11,29.3-15.2
						c9.3-4.2,17.8-7.4,24.5-8.6c0,0-0.4-0.2-1-0.7s-1.6-1.2-2.9-2.1c-13.1-9.4-56.4-41-81.1-64.1c-2.6-2.4-4.9-4.7-7.1-6.9
						c-26.2-27.1,14.6-32.2,27.8-34.1c-10.4,1.1-20.2,2.8-27.7,5.5s-12.9,6.4-14.6,11.4c-0.2,0.5-0.3,1-0.4,1.5
						c-2.2,11.8-7.1,24.1-11.4,33.6c-4.6,10-8.7,17-8.7,17s-1.7,11.7-0.8,28.4c0.9,16.7,4.5,38.4,15,58.3c0.9,1.8,1.9,3.5,3,5.3
						S178,227.9,179.2,229.6L179.2,229.6z"/>
					<path class="st5" d="M179.2,230.6c0,0-0.1,0-0.1,0c-0.3,0-0.5-0.2-0.7-0.4c-1.2-1.7-2.3-3.5-3.4-5.2c-1.1-1.7-2.1-3.5-3-5.3
						c-11-20.7-14.3-43.3-15.2-58.7c-0.9-16.6,0.8-28.5,0.8-28.6c0-0.1,0.1-0.2,0.1-0.4c0-0.1,4.1-7,8.6-16.9
						c5.7-12.4,9.5-23.6,11.3-33.4c0.1-0.6,0.2-1.1,0.4-1.6c1.7-5,6.8-9,15.2-12.1c7-2.5,16.4-4.4,27.9-5.6c0.5-0.1,1,0.3,1.1,0.9
						c0.1,0.5-0.3,1-0.9,1.1l-0.9,0.1c-9.2,1.3-30.7,4.3-34.2,14.4c-1.6,4.8,1,10.8,7.8,17.9c2,2.1,4.4,4.4,7,6.9
						c24.7,23.1,68.3,54.8,81,64c1.2,0.9,2.2,1.6,2.9,2l1,0.7c0.3,0.2,0.5,0.6,0.4,1c-0.1,0.4-0.4,0.7-0.8,0.8
						c-6.2,1.1-14.3,4-24.2,8.5c-8.6,3.9-18.4,9-29.2,15.2c-13.2,7.5-24.5,14.8-31.6,19.5c-8.9,5.9-16.6,11.3-20.9,14.9
						C179.7,230.5,179.4,230.6,179.2,230.6L179.2,230.6z M159.6,132.8c-0.2,1.6-1.6,12.8-0.8,28.1c0.8,15.1,4.1,37.5,14.9,57.8
						c0.9,1.8,1.9,3.5,3,5.2c0.9,1.4,1.8,2.8,2.7,4.2c4.5-3.6,11.8-8.8,20.3-14.4c7.2-4.8,18.5-12,31.8-19.6
						c10.8-6.2,20.7-11.3,29.3-15.3c8.9-4.1,16.4-6.8,22.5-8.2c-0.5-0.4-1.2-0.9-2-1.4c-12.8-9.2-56.4-41-81.2-64.2
						c-2.7-2.5-5.1-4.8-7.1-6.9c-7.4-7.7-10.2-14.4-8.3-20c0.9-2.7,2.9-4.9,5.4-6.7c-5.4,2.5-8.8,5.6-10,9.2
						c-0.1,0.4-0.3,0.9-0.4,1.3c-1.9,10-5.8,21.4-11.5,33.9C164.1,125,160.3,131.6,159.6,132.8z"/>
					<path class="st4" d="M294.1,171.3c7.2,1.4,16.6,4.9,26.8,9.7c10.2,4.8,21.2,10.8,31.8,17c10.4,6.1,20.4,12.4,28.8,18
						c8.4,5.6,15.1,10.5,19.1,13.6c0.8-1.1,1.5-2.3,2.3-3.4c0.7-1.1,1.4-2.3,2.1-3.5c11.8-20.2,15.8-42.8,16.9-60.3
						c1.1-17.5-0.7-29.9-0.7-29.9s-3.6-6.2-7.9-15.3c-4.3-9.1-9.2-21.2-11.7-33.1c-0.2-0.8-0.3-1.5-0.5-2.3
						c-1-5.3-5.8-9.2-12.9-12.1c-7.8-3.2-18.3-5.1-29.8-6.3c13.2,1.8,54,7,27.8,34.1c-2.4,2.5-5.2,5.2-8.3,8
						c-26.5,24.4-72.4,57.6-82,64.5c-0.6,0.4-1,0.7-1.3,0.9S294.1,171.2,294.1,171.3L294.1,171.3z"/>
					<path class="st5" d="M400.6,230.6c-0.2,0-0.5-0.1-0.6-0.2c-4-3.3-11-8.2-19-13.6c-6.4-4.3-16.6-10.9-28.8-18
						c-11.6-6.8-22.3-12.5-31.7-16.9c-10.9-5.1-19.9-8.4-26.5-9.6c-0.4-0.1-0.7-0.4-0.8-0.8s0.1-0.8,0.4-1l1.8-1.2
						c9-6.5,55.4-39.9,81.9-64.4c3.1-2.9,5.9-5.6,8.2-8c6.9-7.1,9.5-13.1,7.9-17.9c-3.5-10.1-25.1-13.1-34.3-14.4l-0.7-0.1
						c-0.5-0.1-0.9-0.6-0.9-1.1c0.1-0.5,0.6-0.9,1.1-0.9c12.8,1.3,22.9,3.5,30.1,6.4c8,3.3,12.5,7.6,13.5,12.9
						c0.1,0.8,0.3,1.5,0.5,2.3c2.6,12.2,7.8,24.6,11.6,32.8c4.2,9,7.8,15.1,7.8,15.2c0.1,0.1,0.1,0.2,0.1,0.4
						c0,0.1,1.8,12.8,0.7,30.2c-1,16.1-4.8,39.7-17.1,60.7c-0.7,1.2-1.4,2.4-2.1,3.5c-0.8,1.2-1.5,2.3-2.3,3.4
						c-0.2,0.2-0.4,0.4-0.7,0.4C400.6,230.6,400.6,230.6,400.6,230.6L400.6,230.6z M296.6,170.8c6.5,1.5,14.8,4.6,24.7,9.3
						c9.5,4.4,20.2,10.2,31.9,17c9.7,5.7,19.6,11.9,28.9,18.1c7.5,5,14.1,9.7,18.3,13c0.5-0.8,1.1-1.6,1.6-2.5
						c0.7-1.1,1.4-2.2,2.1-3.4c12.1-20.7,15.8-44,16.8-59.9c1-16-0.5-27.9-0.7-29.6c-0.6-1.1-4-7-7.8-15.2
						c-3.9-8.4-9.1-20.9-11.8-33.3c-0.2-0.8-0.3-1.5-0.5-2.3c-0.8-4.1-4.2-7.7-10.2-10.5c2.5,1.8,4.4,4,5.3,6.7
						c1.9,5.6-0.9,12.3-8.3,20c-2.4,2.4-5.1,5.2-8.3,8.1C352.1,130.7,305.9,164.1,296.6,170.8L296.6,170.8z"/>
					<path class="st5" d="M216.2,119.4l-1.1-3c50.7-9.7,99.4-9.7,149.1,0l-1.1,3C314.2,110,266.2,110,216.2,119.4L216.2,119.4z"/>
				</g>
			</g>
		</g>
	</g>
</g>
<g>
	<path d="M215.6,119.5l-1.1-3c50.7-9.7,99.4-9.7,149.1,0l-1.1,3C313.6,110,265.5,110,215.6,119.5z"/>
</g>
</svg>
