<?xml version="1.0" encoding="UTF-8"?><svg xmlns="http://www.w3.org/2000/svg" xmlns:xlink="http://www.w3.org/1999/xlink" viewBox="0 0 562.34 562.34"><defs><style>.cls-1{fill:url(#radial-gradient-7);}.cls-2,.cls-3,.cls-4,.cls-5,.cls-6,.cls-7{stroke:#000;stroke-linecap:round;stroke-linejoin:round;}.cls-2,.cls-3,.cls-4,.cls-7{fill:#e5e5e5;}.cls-2,.cls-6{stroke-width:2.32px;}.cls-8{fill:#f6f6f6;}.cls-9{fill:url(#radial-gradient-2);}.cls-9,.cls-10,.cls-11{mix-blend-mode:multiply;opacity:.4;}.cls-12{fill:url(#radial-gradient-4);}.cls-3{stroke-width:1.97px;}.cls-13{fill:url(#radial-gradient-9);}.cls-13,.cls-14,.cls-15{mix-blend-mode:screen;opacity:.9;}.cls-4,.cls-5{stroke-width:2.01px;}.cls-16{fill:url(#radial-gradient);}.cls-17{stroke:#1d1d1b;stroke-width:2.22px;}.cls-17,.cls-18,.cls-19,.cls-20{fill:none;}.cls-5,.cls-6{fill:#fff;}.cls-10{fill:url(#radial-gradient-5);}.cls-18{isolation:isolate;}.cls-14{fill:url(#radial-gradient-6);}.cls-20{clip-path:url(#clippath);}.cls-15{fill:url(#radial-gradient-3);}.cls-11{fill:url(#radial-gradient-8);}.cls-7{stroke-width:2.82px;}</style><clipPath id="clippath"><rect class="cls-19" width="562.34" height="562.34"/></clipPath><radialGradient id="radial-gradient" cx="302.01" cy="216.03" fx="302.01" fy="216.03" r="11.02" gradientUnits="userSpaceOnUse"><stop offset="0" stop-color="#fff"/><stop offset=".13" stop-color="#fafafa"/><stop offset=".26" stop-color="#ededed"/><stop offset=".4" stop-color="#d8d8d8"/><stop offset=".55" stop-color="#bababa"/><stop offset=".69" stop-color="#939394"/><stop offset=".84" stop-color="#646465"/><stop offset=".94" stop-color="#404041"/><stop offset="1" stop-color="#484849"/></radialGradient><radialGradient id="radial-gradient-2" cx="-4732.33" cy="-3338.2" fx="-4732.33" fy="-3338.2" r="6.61" gradientTransform="translate(-5367.59 -3849.12) rotate(-180) scale(1.2 1.22)" gradientUnits="userSpaceOnUse"><stop offset="0" stop-color="#fff"/><stop offset=".22" stop-color="#fcfcfc"/><stop offset=".36" stop-color="#f3f3f3"/><stop offset=".48" stop-color="#e4e4e5"/><stop offset=".58" stop-color="#d0d0d0"/><stop offset=".68" stop-color="#b5b5b5"/><stop offset=".77" stop-color="#939394"/><stop offset=".86" stop-color="#6d6d6e"/><stop offset=".94" stop-color="#404041"/><stop offset=".94" stop-color="#404041"/><stop offset="1" stop-color="#484849"/></radialGradient><radialGradient id="radial-gradient-3" cx="302.68" cy="213.15" fx="302.68" fy="213.15" r="6.9" gradientTransform="matrix(1,0,0,1,0,0)" xlink:href="#radial-gradient-2"/><radialGradient id="radial-gradient-4" cx="298.3" cy="354.06" fx="298.3" fy="354.06" xlink:href="#radial-gradient"/><radialGradient id="radial-gradient-5" cx="-4729.23" cy="-3451.47" fx="-4729.23" fy="-3451.47" r="6.61" xlink:href="#radial-gradient-2"/><radialGradient id="radial-gradient-6" cx="298.97" cy="351.18" fx="298.97" fy="351.18" r="6.9" gradientTransform="matrix(1,0,0,1,0,0)" xlink:href="#radial-gradient-2"/><radialGradient id="radial-gradient-7" cx="298.3" cy="496.71" fx="298.3" fy="496.71" xlink:href="#radial-gradient"/><radialGradient id="radial-gradient-8" cx="-4729.23" cy="-3568.53" fx="-4729.23" fy="-3568.53" r="6.61" xlink:href="#radial-gradient-2"/><radialGradient id="radial-gradient-9" cx="298.97" cy="493.83" fx="298.97" fy="493.83" r="6.9" gradientTransform="matrix(1,0,0,1,0,0)" xlink:href="#radial-gradient-2"/></defs><g class="cls-18"><g id="_Слой_2"><g id="layer"><g class="cls-20"><rect class="cls-8" x=".36" y=".19" width="562.91" height="562.91"/><path class="cls-2" d="m191.69,147.09c-4.27-5.55-7.72-11.92-7.72-11.92-2.44-4.37-4.23-8.29-5.53-11.44-35.07,12.63-70.62,25.81-106.6,39.57-30.94,11.83-61.34,23.77-91.21,35.79,3.96,15.51,9.64,39.08,15.27,68,16.06,82.47,19.96,148.1,21.46,181.41,6.57,146.75-1.69,380-2.07,393.05-10.34,356.85-7.69,554.21-7.69,554.21,0,0,42.96,14.55,156.66,22.77,119.82,8.67,163.03,3.72,163.03,3.72.76-417.99,1.52-835.97,2.28-1253.96-76.19.67-130.62-11.75-137.88-21.19Z"/><path d="m285.3,1424.62c-26.05,0-65.36-1.07-121.11-5.11-112.53-8.13-156.48-22.67-156.91-22.82-.4-.14-.68-.51-.68-.94-.03-1.97-2.53-201.47,7.69-554.25.02-.77.07-2.31.15-4.56,2.44-75.28,7.51-263.82,1.93-388.42-1.02-22.87-4.14-92.46-21.44-181.26-4.44-22.79-9.57-45.65-15.26-67.94-.12-.49.13-.99.6-1.18,30.13-12.12,60.82-24.16,91.22-35.79,35.21-13.47,71.08-26.79,106.62-39.58.5-.18,1.06.07,1.27.56,1.59,3.86,3.44,7.68,5.48,11.34.04.08,3.46,6.38,7.63,11.8,6.7,8.7,56.91,20.82,131.01,20.82,2.01,0,4.02,0,6.06-.03.3.01.53.1.72.29.19.19.3.45.3.72l-2.28,1253.96c0,.51-.38.94-.89,1-.23.03-12.76,1.39-42.11,1.39Zm-276.7-29.61c5.91,1.84,51.02,14.94,155.73,22.5,109.19,7.9,155.18,4.43,161.96,3.81l2.28-1252.04c-70.96.53-129.46-10.92-137.67-21.59-4.27-5.55-7.77-12-7.8-12.06-1.92-3.44-3.67-7.02-5.21-10.65-35.23,12.69-70.78,25.89-105.68,39.24-30.12,11.52-60.52,23.45-90.37,35.45,5.61,22.06,10.68,44.67,15.07,67.2,17.32,88.95,20.45,158.65,21.47,181.56,5.58,124.66.51,313.27-1.93,388.57-.07,2.24-.12,3.78-.14,4.55-9.91,342.04-7.86,539.95-7.7,553.44Z"/><path class="cls-4" d="m378.83,147.96c4.41-4.99,7.55-10.49,7.55-10.49,2.56-4.57,4.98-10.31,6.74-17.49,20.53,11.01,195.72,80.11,195.72,80.11-1.35,5.76-3.29,14.21-5.5,24.44-7.7,35.7-24.28,119.24-30.19,224.83-10.76,192.1,2.07,393.05,2.07,393.05,10.34,356.85,7.7,554.21,7.7,554.21-45.44,9.9-98.02,18.42-156.66,22.77-49.88,3.7-95.72,3.76-136.54,1.84,4.98-416.54,9.96-833.08,14.94-1249.62,50.2-3.25,86.25-14.67,94.17-23.64Z"/><path d="m322.77,1423.47c-17.74,0-35.46-.42-53.09-1.25-.54-.03-.96-.48-.96-1.02l14.94-1249.62c0-.53.42-.96.94-.99,48.41-3.14,85.54-14.31,93.48-23.3,4.28-4.85,7.4-10.27,7.43-10.32,2.84-5.09,5.08-10.89,6.64-17.23.07-.3.28-.55.57-.68.29-.13.61-.12.88.03,20.25,10.86,193.87,79.37,195.62,80.06.46.18.72.68.61,1.17-1.88,8.05-3.73,16.26-5.49,24.42-15.54,72.07-25.97,149.76-30.17,224.67-10.62,189.54,1.55,384.71,2.07,392.93,10.23,352.83,7.73,552.32,7.7,554.29,0,.47-.33.87-.79.97-51.51,11.22-104.26,18.89-156.8,22.79-27.7,2.05-55.65,3.08-83.57,3.08Zm-52.03-3.21c44.99,2.08,90.56,1.45,135.45-1.88,52.18-3.87,104.57-11.47,155.74-22.58.16-14.14,2.19-211.95-7.71-553.37-.52-8.19-12.7-203.47-2.07-393.13,4.2-75.02,14.65-152.81,30.21-224.98,1.7-7.89,3.48-15.83,5.3-23.61-12.75-5.03-169.84-67.12-193.88-79.25-1.58,6.04-3.78,11.58-6.53,16.5-.13.24-3.25,5.65-7.67,10.66l-.75-.67.75.67c-8.04,9.11-43.65,20.55-93.93,23.92l-14.92,1247.72Z"/><path class="cls-6" d="m-20.17,199.44c-23.32,52.12-38.88,127.13-44.25,204.06-2.73,39.12-3.81,104.99-11.83,143.75-4.44,21.45-7.16,29.57-12.62,69.83-2.75,20.29-3.3,41.85,2.16,94.62,2.89,27.96,4.81,53.85,6.82,78.47,1.29,15.82,6.82,36.97,12.74,55.95,2.89,9.29,10.51,10.8,16.38,14.62,2.19,1.42,1.93,3.81,5,6.31,12.98.73,29.16.54,47.5-2.26,16.59-2.53,30.8-6.57,42.22-10.63-.44-2.47-.75-6.17.3-10.35.77-3.05,1.77-4.38,3.05-7.92,0,0,1.51-4.19,2.44-10.96,2.32-16.89-21.85-148.62-22.26-161.11-.03-.98-2.86-13.12-.29-18.25h0c.28-4.4.74-5.85.18-8.73-1-5.18-4.53-6.86,1.02-19.19,2.05-4.55-3.18-9.55.68-16.38,2.18-3.84,2.89-5.54,4.78-14.33,19.11-89.26,2.05-148.07,2.05-148.07C18.84,332.2-12.96,223.72-20.17,199.44Z"/><path d="m-32.9,868.86c-4.32,0-8.64-.12-12.95-.36-.3-.02-.59-.13-.83-.32-1.83-1.49-2.63-2.96-3.27-4.14-.51-.93-.87-1.6-1.61-2.08-1.34-.87-2.78-1.62-4.3-2.41-4.82-2.51-10.29-5.35-12.67-12.99-7.38-23.68-11.68-42.61-12.8-56.26-.38-4.7-.76-9.44-1.15-14.24-1.64-20.45-3.33-41.6-5.67-64.2-5.44-52.59-4.91-74.64-2.15-94.96,4.27-31.49,6.89-43.44,9.92-57.27.86-3.91,1.74-7.96,2.72-12.65,5.87-28.4,7.97-70.63,9.82-107.89.65-13.02,1.26-25.31,1.98-35.67,5.54-79.35,21.71-153.9,44.37-204.55.25-.55.81-.89,1.41-.85.6.04,1.11.45,1.28,1.03,11.59,38.99,40.24,140.36,56.09,239.53.75,2.7,16.57,61.72-2.05,148.68-1.88,8.8-2.62,10.65-4.93,14.74-1.93,3.4-1.27,6.31-.63,9.12.53,2.33,1.08,4.74,0,7.14-4.05,9-3.06,11.76-1.91,14.96.37,1.02.75,2.08,1,3.37.44,2.26.3,3.75.09,6-.08.86-.17,1.86-.25,3.09-.01.19-.06.38-.15.55-1.93,3.85-.32,13.01.21,16.02.17.95.22,1.29.23,1.55.15,4.42,3.49,25.05,7.35,48.95,7.31,45.17,16.41,101.4,14.9,112.4-.49,3.57-1.14,6.42-1.6,8.19-.39,1.5-.64,2.46-.91,3.07-.55,1.52-1.05,2.65-1.49,3.65-.61,1.38-1.09,2.47-1.51,4.13-.78,3.09-.88,6.37-.28,9.75.12.69-.27,1.37-.93,1.6-13.76,4.89-28.06,8.49-42.48,10.7-11.51,1.76-23.18,2.64-34.85,2.64Zm-12.3-3.21c15.59.84,31.3.08,46.72-2.27,13.86-2.12,27.59-5.54,40.83-10.17-.45-3.36-.27-6.63.51-9.75.48-1.9,1.06-3.21,1.67-4.59.44-1,.9-2.04,1.41-3.46,0,0,0,0,0,0h0s1.46-4.09,2.36-10.66c1.45-10.58-7.99-68.94-14.89-111.55-4.04-24.98-7.24-44.71-7.39-49.31-.01-.15-.09-.56-.19-1.14-1.05-5.97-1.99-13.31-.08-17.53.08-1.14.16-2.08.24-2.9.2-2.14.31-3.32-.05-5.18-.21-1.07-.53-1.98-.88-2.94-1.25-3.47-2.53-7.06,2-17.12.68-1.52.3-3.2-.19-5.32-.69-3.03-1.55-6.8.93-11.17,2.05-3.61,2.72-5.05,4.62-13.92,18.81-87.89,2.24-146.79,2.07-147.37-.02-.06-.03-.11-.04-.17-15.34-95.98-42.7-194.08-54.91-235.48-21.7,50.25-37.16,122.82-42.55,199.99-.72,10.33-1.33,22.61-1.98,35.61-1.86,37.36-3.96,79.71-9.88,108.33-.97,4.71-1.86,8.77-2.72,12.69-3.02,13.78-5.63,25.67-9.88,57.04-2.73,20.1-3.25,41.97,2.17,94.28,2.34,22.64,4.04,43.8,5.68,64.27.38,4.79.76,9.54,1.15,14.23,1.1,13.45,5.36,32.17,12.68,55.64,2.02,6.5,6.5,8.82,11.25,11.29,1.51.79,3.08,1.6,4.54,2.55,1.35.88,1.97,2.01,2.57,3.11.53.97,1.07,1.97,2.22,2.99Z"/><path class="cls-5" d="m589.51,199.96c23.32,52.12,38.88,127.13,44.25,204.06,2.73,39.12,3.81,104.99,11.83,143.75,4.44,21.45,7.16,29.57,12.62,69.83,2.75,20.29,3.3,41.85-2.16,94.62-2.89,27.96-4.81,53.85-6.82,78.47-1.29,15.82-6.82,36.97-12.74,55.95-2.89,9.29-10.51,10.8-16.38,14.62-2.19,1.42-1.93,3.81-5,6.31-12.98.73-29.16.54-47.5-2.26-16.59-2.53-30.8-6.57-42.22-10.63.44-2.47.75-6.17-.3-10.35-.77-3.05-1.77-4.38-3.05-7.92,0,0-1.51-4.19-2.44-10.96-2.32-16.89,21.85-148.62,22.26-161.11.03-.98,2.86-13.12.29-18.25h0c-.28-4.4-.74-5.85-.18-8.73,1-5.18,4.53-6.86-1.02-19.19-2.05-4.55,3.18-9.55-.68-16.38-2.18-3.84-2.89-5.54-4.78-14.33-19.11-89.26-2.05-148.07-2.05-148.07,17.05-106.67,48.85-215.16,56.06-239.43Z"/><path d="m602.24,869.37c-11.66,0-23.34-.88-34.85-2.64-14.43-2.2-28.72-5.8-42.49-10.7-.66-.24-1.06-.91-.93-1.6.59-3.38.5-6.66-.28-9.75-.42-1.66-.9-2.75-1.51-4.13-.44-1-.94-2.13-1.49-3.65-.27-.61-.52-1.57-.91-3.07-.46-1.76-1.11-4.62-1.6-8.19-1.51-11.01,7.59-67.23,14.9-112.4,3.87-23.9,7.21-44.53,7.35-48.95,0-.25.07-.59.23-1.54.53-3.01,2.13-12.17.21-16.02-.09-.17-.14-.36-.15-.55-.08-1.23-.17-2.23-.25-3.09-.21-2.25-.35-3.73.09-6,.25-1.28.63-2.34.99-3.36,1.15-3.2,2.14-5.96-1.91-14.96-1.08-2.4-.53-4.81,0-7.14.64-2.81,1.3-5.71-.63-9.12-2.31-4.08-3.05-5.93-4.93-14.74-18.62-86.96-2.8-145.98-2.05-148.68,15.86-99.19,44.51-200.55,56.09-239.53.17-.58.68-.99,1.28-1.03.62-.04,1.16.3,1.41.85,22.66,50.65,38.83,125.2,44.37,204.55.72,10.36,1.33,22.65,1.98,35.67,1.85,37.26,3.95,79.49,9.82,107.89.97,4.7,1.86,8.74,2.72,12.66,3.03,13.84,5.65,25.79,9.92,57.27,2.75,20.32,3.29,42.37-2.16,94.96-2.34,22.6-4.03,43.74-5.67,64.18-.38,4.8-.77,9.56-1.15,14.26-1.12,13.66-5.42,32.59-12.8,56.26-2.38,7.64-7.85,10.48-12.67,12.99-1.52.79-2.95,1.53-4.3,2.41-.74.48-1.1,1.15-1.61,2.08-.64,1.18-1.45,2.65-3.27,4.14-.24.19-.53.3-.83.32-4.31.24-8.63.36-12.95.36Zm-75.25-15.65c13.25,4.63,26.98,8.05,40.83,10.17,15.42,2.35,31.13,3.12,46.72,2.27,1.15-1.03,1.69-2.03,2.22-2.99.6-1.1,1.22-2.24,2.56-3.11,1.46-.95,3.03-1.76,4.54-2.55,4.75-2.47,9.23-4.79,11.25-11.29,7.31-23.48,11.58-42.2,12.68-55.64.38-4.7.76-9.45,1.15-14.26,1.64-20.46,3.34-41.62,5.68-64.25,5.41-52.3,4.89-74.17,2.17-94.28-4.25-31.37-6.86-43.27-9.88-57.04-.86-3.92-1.75-7.98-2.72-12.69-5.92-28.62-8.02-70.97-9.88-108.33-.65-13-1.26-25.28-1.98-35.61-5.38-77.17-20.84-149.73-42.54-199.99-12.21,41.4-39.57,139.48-54.91,235.48,0,.06-.02.12-.04.17-.17.58-16.73,59.54,2.07,147.37,1.9,8.87,2.57,10.31,4.62,13.92,2.48,4.37,1.62,8.14.93,11.17-.49,2.12-.87,3.8-.18,5.32,4.53,10.06,3.24,13.65,1.99,17.12-.35.96-.67,1.87-.88,2.94-.36,1.86-.25,3.04-.05,5.18.08.82.16,1.76.24,2.9,1.91,4.22.97,11.56-.08,17.53-.1.58-.18.99-.19,1.17-.15,4.58-3.34,24.31-7.39,49.29-6.9,42.61-16.34,100.97-14.89,111.55.89,6.47,2.3,10.5,2.36,10.66,0,0,0,0,0,.01.51,1.42.97,2.46,1.41,3.46.61,1.39,1.19,2.7,1.67,4.59.79,3.11.96,6.39.51,9.75Zm6.46-414.33h0,0Z"/><circle class="cls-16" cx="302.01" cy="216.03" r="11.02"/><path d="m302.01,227.62c-6.39,0-11.59-5.2-11.59-11.59s5.2-11.59,11.59-11.59,11.59,5.2,11.59,11.59-5.2,11.59-11.59,11.59Zm0-22.04c-5.76,0-10.44,4.68-10.44,10.44s4.68,10.44,10.44,10.44,10.44-4.68,10.44-10.44-4.68-10.44-10.44-10.44Z"/><path class="cls-9" d="m311.47,218.45s-1.36,6.09-6.94,6.64c-5.58.55-10.48-1.25-11.43-7.06,0,0-.44-3.06.11-5.13,0,0,1.44-1.35,1.28.51-.42,4.94,2.73,8.53,8.31,9.08,5.58.55,6.27-3.58,6.27-3.58,0,0,2.68-1.15,2.41-.46Z"/><path class="cls-15" d="m294.83,212.9s1.14-5,5.79-5.45c4.66-.45,8.75,1.02,9.54,5.79,0,0,.68,3.07.23,4.77,0,0-1.25,1.7-2.16.45-.91-1.25-2.04-7.5-6.7-7.95-4.66-.45-5.11,2.84-5.11,2.84,0,0-1.82.11-1.59-.45Z"/><circle class="cls-12" cx="298.3" cy="354.06" r="11.02"/><path d="m298.3,365.65c-6.39,0-11.59-5.2-11.59-11.59s5.2-11.59,11.59-11.59,11.59,5.2,11.59,11.59-5.2,11.59-11.59,11.59Zm0-22.04c-5.76,0-10.44,4.69-10.44,10.44s4.68,10.44,10.44,10.44,10.44-4.68,10.44-10.44-4.68-10.44-10.44-10.44Z"/><path class="cls-10" d="m307.76,356.48s-1.36,6.09-6.94,6.64c-5.58.55-10.48-1.25-11.43-7.06,0,0-.44-3.06.11-5.13,0,0,1.44-1.35,1.28.51-.42,4.94,2.73,8.53,8.31,9.08,5.58.55,6.27-3.58,6.27-3.58,0,0,2.68-1.15,2.41-.46Z"/><path class="cls-14" d="m291.12,350.93s1.14-5,5.79-5.45c4.66-.45,8.75,1.02,9.54,5.79,0,0,.68,3.07.23,4.77,0,0-1.25,1.7-2.16.45-.91-1.25-2.04-7.5-6.7-7.95-4.66-.45-5.11,2.84-5.11,2.84,0,0-1.82.11-1.59-.45Z"/><circle class="cls-1" cx="298.3" cy="496.71" r="11.02"/><path d="m298.3,508.3c-6.39,0-11.59-5.2-11.59-11.59s5.2-11.59,11.59-11.59,11.59,5.2,11.59,11.59-5.2,11.59-11.59,11.59Zm0-22.04c-5.76,0-10.44,4.69-10.44,10.44s4.68,10.44,10.44,10.44,10.44-4.68,10.44-10.44-4.68-10.44-10.44-10.44Z"/><path class="cls-11" d="m307.76,499.13s-1.36,6.09-6.94,6.64c-5.58.55-10.48-1.25-11.43-7.06,0,0-.44-3.06.11-5.13,0,0,1.44-1.35,1.28.51-.42,4.94,2.73,8.53,8.31,9.08,5.58.55,6.27-3.58,6.27-3.58,0,0,2.68-1.15,2.41-.46Z"/><path class="cls-13" d="m291.12,493.58s1.14-5,5.79-5.45c4.66-.45,8.75,1.02,9.54,5.79,0,0,.68,3.07.23,4.77,0,0-1.25,1.7-2.16.45-.91-1.25-2.04-7.5-6.7-7.95-4.66-.45-5.11,2.84-5.11,2.84,0,0-1.82.11-1.59-.45Z"/><path d="m216.25,119.44l-1.09-2.98c50.66-9.67,99.44-9.67,149.1,0l-1.12,2.98c-48.89-9.49-96.95-9.49-146.89,0Z"/><path class="cls-2" d="m401.82,122.52c-38.71,21.89-89.78,45.29-116.7,51.15V50.06c87.3,0,137.81-14.91,162.04-5.22,32.33,27.85-4.5,54.57-45.35,77.68Z"/><path class="cls-17" d="m285.77,69.92c87.3,0,139.92-19.07,162.04-5.22,5.5,3.45,9.28,11.01,9.28,11.01"/><path class="cls-2" d="m169.61,122.52c38.71,21.89,89.78,45.29,116.7,51.15V50.06c-87.3,0-137.81-14.91-162.04-5.22-32.33,27.85,4.5,54.57,45.35,77.68Z"/><path class="cls-17" d="m285.66,69.92c-87.3,0-139.92-19.07-162.04-5.22-5.5,3.45-9.28,11.01-9.28,11.01"/><path class="cls-7" d="m171.73,129.61s75.12-10.64,115.52-10.64,108.43,10.64,108.43,10.64c-16.62,10.25-37.41,21.21-62.26,30.53-17.32,6.49-33.52,11.04-48,14.26-13.8-1.64-30.36-4.82-48.48-10.93-28.43-9.6-50.21-22.9-65.21-33.86Z"/><path class="cls-3" d="m176.6,137.83l-2.18-9.86c.44-.09,44.18-8.81,100.75-9.51,56.5-.7,121.06,8.69,121.7,8.78l-1.6,9.96c-.64-.09-64.32-9.36-119.96-8.67-55.48.68-98.27,9.21-98.7,9.29Z"/><path class="cls-2" d="m169.61,122.52c-40.85-23.1-77.68-49.83-45.35-77.68-3.31,1.32-6.13,3.1-8.49,5.44-19.4,19.28-24.86,63.93-24.89,106.87,0,0,32.08,7.88,76.28,13.27,44.2,5.4,94.55,3.92,119.14,4.1v-.85c-26.92-5.86-77.99-29.26-116.7-51.15Z"/><path class="cls-2" d="m401.82,122.52c40.85-23.1,77.68-49.83,45.35-77.68,3.31,1.32,6.13,3.1,8.49,5.44,19.4,19.28,24.86,63.93,24.89,106.87,0,0-32.08,7.88-76.28,13.27-44.2,5.4-94.55,3.92-119.14,4.1v-.85c26.92-5.86,77.99-29.26,116.7-51.15Z"/><path class="cls-19" d="m272.75,112.99c-33.9.44-65.39,4.13-85.79,7.14,12.81,2.94,26.98,7.3,50.2,10.46,22.35,3.04,44.7,3.16,44.7,3.16,0,0,.42.01,1.22.02v-20.78c-3.48-.04-6.93-.04-10.33,0Z"/></g></g></g></g></svg>