<?xml version="1.0" encoding="utf-8"?>
<!-- Generator: Adobe Illustrator 27.7.0, SVG Export Plug-In . SVG Version: 6.00 Build 0)  -->
<svg version="1.1" id="Слой_1" xmlns="http://www.w3.org/2000/svg" xmlns:xlink="http://www.w3.org/1999/xlink" x="0px" y="0px"
	 viewBox="0 0 563 563" style="enable-background:new 0 0 563 563;" xml:space="preserve">
<style type="text/css">
	.st0{fill:#F6F6F6;}
	.st1{clip-path:url(#SVGID_00000044883847794995199580000006993730926069456004_);}
	
		.st2{fill-rule:evenodd;clip-rule:evenodd;fill:#E5E5E5;stroke:#000000;stroke-width:2.01;stroke-linecap:round;stroke-linejoin:round;}
	.st3{fill:#E5E5E5;stroke:#000000;stroke-width:3.33;stroke-linecap:round;stroke-linejoin:round;}
	.st4{fill:none;stroke:#000000;stroke-width:0.47;stroke-linecap:round;stroke-miterlimit:10;stroke-dasharray:0,0,1.97,0.94;}
	.st5{clip-path:url(#SVGID_00000173844271916542366550000000130637117693140142_);}
	.st6{fill:#1A1A1A;stroke:#000000;stroke-width:1.18;stroke-miterlimit:10;}
	.st7{fill:#EAEAEA;stroke:#000000;stroke-width:3.61;stroke-miterlimit:10;}
	.st8{fill:none;stroke:#000000;stroke-width:3.61;stroke-linecap:round;stroke-miterlimit:10;}
	.st9{clip-path:url(#SVGID_00000172425594298378810810000002225911768620818588_);}
	.st10{fill:none;stroke:#000000;stroke-width:1.08;stroke-linecap:round;stroke-linejoin:round;}
	.st11{clip-path:url(#SVGID_00000011743205659518367880000010466002316216829875_);}
	.st12{fill:none;stroke:#000000;stroke-width:0.48;stroke-linecap:round;stroke-miterlimit:10;stroke-dasharray:0,0,2.01,0.96;}
	.st13{fill:#E2E2E2;}
	
		.st14{fill:url(#SVGID_00000119092831347437079410000001046966656293815733_);stroke:#000000;stroke-width:0.79;stroke-miterlimit:10;}
	.st15{opacity:0.4;fill:url(#SVGID_00000057828634197539013490000007213718398618297732_);enable-background:new    ;}
	.st16{opacity:0.9;fill:url(#SVGID_00000147908164910298630130000004219002214794463643_);enable-background:new    ;}
	
		.st17{fill:url(#SVGID_00000017474073186744476840000003728480955736602240_);stroke:#000000;stroke-width:0.79;stroke-miterlimit:10;}
	.st18{opacity:0.4;fill:url(#SVGID_00000099639722325799950430000011752977936726756768_);enable-background:new    ;}
	.st19{opacity:0.9;fill:url(#SVGID_00000160909801422437571640000016458840106174323642_);enable-background:new    ;}
	
		.st20{fill:url(#SVGID_00000139287001260756162930000007612744911310677897_);stroke:#000000;stroke-width:0.79;stroke-miterlimit:10;}
	.st21{opacity:0.4;fill:url(#SVGID_00000092443427373747531190000009868448854571683734_);enable-background:new    ;}
	.st22{opacity:0.9;fill:url(#SVGID_00000106143891780442223530000015936012115781111944_);enable-background:new    ;}
</style>
<g>
	<g id="_Слой_2">
		<g id="layer">
			<rect x="0" y="0.1" class="st0" width="562.9" height="562.9"/>
			<g>
				<defs>
					<rect id="SVGID_1_" y="0" width="563" height="563"/>
				</defs>
				<clipPath id="SVGID_00000027576852236074011780000018446655643079439495_">
					<use xlink:href="#SVGID_1_"  style="overflow:visible;"/>
				</clipPath>
				<g style="clip-path:url(#SVGID_00000027576852236074011780000018446655643079439495_);">
					<path class="st2" d="M593.8,661.2c8.9,186.3,5.1,250.8-2.4,265.2c-1.4,2.7-7.6,12.8-10.2,27.8c-2,11.8-0.2,17.2-2.5,28.2
						c-2.3,11.2-7.2,20-11.8,26.4c-4.9,35.2-9.8,70.4-14.7,105.6c-21.8,4.8-51.8,10.7-87.9,15.6c-77.2,10.6-136.3,10.4-180.5,10.1
						c-100.6-0.7-174.1-11.3-193.5-14.2c-28-4.2-51.5-8.7-68.5-12.3c-4.9-35.4-9.9-70.7-14.8-106.1c-6.6-5.5-15.2-14.6-18.4-27.6
						c-2.3-9.4-0.5-14.2-2.3-25.7c-2.7-16.6-10.4-27.8-12-30.6c-8.1-14.3-11.7-79,0.9-270.5c1.8-44.2,5.7-76.2,9.4-98.7
						c2-12,5.5-30.8,0.2-54.2c-3-13.1-6.9-19.8-12.5-32.9c-14-32.4-14.5-48.3-21.6-70.4c-6.7-20.7-20.1-49.4-49.7-81.4
						c3-7.1,7.3-17,13.4-28.4c6.8-13,10.4-19.8,16.9-28.2c8.5-11,16.8-18,27.2-26.9c1.2-1,10-8.6,19.4-15
						c19.1-13.1,39-21.8,62.3-30.5c34.5-12.9,69.1-23,103.6-29.3c46.7-11.9,93.3-23.9,140-35.8c46.7,11.9,93.3,23.9,140,35.8
						c34.5,6.3,69,16.4,103.6,29.3c23.3,8.7,43.1,17.4,62.3,30.5c8.2,5.6,14.4,10.7,17.6,13.4c0.1,0.1,0.9,0.8,1.8,1.6
						c4.4,3.9,11.1,10.2,19.7,20.3c10.5,19.7,21.1,39.4,31.6,59.1c-16.8,36.8-27.8,66.9-34.8,87.8c-10.7,32-12.6,44.2-24.9,67.3
						c-7.6,14.2-13,21.1-17,35.5c-6.1,22.2-2.7,40.6-0.8,52.4C586.8,578.7,591,612.6,593.8,661.2L593.8,661.2z"/>
					<path id="Collar_Shape" class="st3" d="M288,242.8c0,0,5.7-8.6,14.8-12.3c19.1-8.6,39.7-11.3,39.7-11.3
						c85.9-13.6,75.4-63.1,75.4-63.1c-17.6-16.3-25.4-36.6-25.4-63s-31.6-27.3-31.6-27.3c-24.2-0.9-48.7-1.3-72.9-1.3
						s-48.7,0.5-72.9,1.3c0,0-31.6,0.9-31.6,27.3s-7.8,46.7-25.4,63c0,0-10.6,49.4,75.4,63.1c0,0,20.6,2.6,39.7,11.3
						C282.3,234.2,288,242.8,288,242.8L288,242.8z"/>
					<path class="st4" d="M417.9,159.8c-42.4-3.3-86.1-4.9-129.9-4.9s-87.4,1.7-129.9,4.9"/>
					<g>
						<defs>
							<path id="SVGID_00000176037286884167444060000005666938579225704097_" d="M388.8,78.9c-0.1,0-0.2,0-0.4-0.1
								c-0.5-0.2-0.7-0.7-1.1-1.2c0,0,0-0.1-1-1c-2.4-2.4-7.3-4.3-7.3-4.3c-0.8-0.3-1.6-0.6-2.2-0.8c0,0-0.8-0.3-1.6-0.5
								c-11-3-91.4-3.1-91.4-3.1c-9.7,0-19.5-0.2-34.2,0.3c-6.4,0.2-8.8,0.4-15.5,0.6c-8.6,0.2-12.7,0-19.9,0.5
								c-4.8,0.3-8.8,0.8-11.2,1.2c-4.6,1.6-11.8,4.8-15.5,11.7c-6.7,12.5,2.4,28.4,9,40c4.6,8,13.6,21,30.2,32.8
								c43.3,0.2,86.7,0.4,130,0.7c2-0.8,3.8-1.6,5.5-2.6C389.7,137.3,389.2,91.2,388.8,78.9L388.8,78.9z"/>
						</defs>
						<clipPath id="SVGID_00000150784547661142855310000017553709651994295971_">
							<use xlink:href="#SVGID_00000176037286884167444060000005666938579225704097_"  style="overflow:visible;"/>
						</clipPath>
						<g style="clip-path:url(#SVGID_00000150784547661142855310000017553709651994295971_);">
							<path class="st6" d="M387.5,164.9c0.1,0,0.1,0,0.2,0.1L404,62.5c-0.1,0-0.2,0-0.3-0.1L387.5,164.9L387.5,164.9z M381.6,163.7
								c0.1,0,0.1,0,0.2,0L396.7,61c-0.1,0-0.2,0-0.3,0L381.6,163.7L381.6,163.7z M375.6,162.6c0.1,0,0.1,0,0.2,0l13.6-103
								c-0.1,0-0.2,0-0.3,0L375.6,162.6z M369.6,161.6c0.1,0,0.2,0,0.2,0l12.3-103.2c-0.1,0-0.2,0-0.3,0L369.6,161.6L369.6,161.6z
								 M363.5,160.7c0.1,0,0.2,0,0.2,0l11.2-103.3c-0.1,0-0.2,0-0.3,0L363.5,160.7L363.5,160.7L363.5,160.7z M357.4,159.9
								c0.1,0,0.2,0,0.2,0l10.1-103.5c-0.1,0-0.2,0-0.3,0L357.4,159.9L357.4,159.9z M351.2,159.1c0.1,0,0.2,0,0.2,0l9-103.6
								c-0.1,0-0.2,0-0.3,0L351.2,159.1L351.2,159.1z M345,158.4c0.1,0,0.2,0,0.2,0l8-103.7c-0.1,0-0.2,0-0.3,0L345,158.4L345,158.4
								z M338.8,157.8c0.1,0,0.2,0,0.2,0L346.1,54c-0.1,0-0.2,0-0.3,0L338.8,157.8L338.8,157.8z M332.6,157.3c0.1,0,0.2,0,0.2,0
								L339,53.4c-0.1,0-0.2,0-0.3,0L332.6,157.3L332.6,157.3L332.6,157.3z M326.3,156.8c0.1,0,0.2,0,0.2,0l5.3-104
								c-0.1,0-0.2,0-0.3,0L326.3,156.8L326.3,156.8z M320,156.5c0.1,0,0.2,0,0.2,0l4.5-104c-0.1,0-0.2,0-0.3,0L320,156.5L320,156.5
								z M313.7,156.1c0.1,0,0.2,0,0.2,0l3.7-104.1c-0.1,0-0.2,0-0.3,0L313.7,156.1z M307.4,155.9c0.1,0,0.2,0,0.2,0l2.9-104.1
								c-0.1,0-0.2,0-0.3,0L307.4,155.9L307.4,155.9z M301,155.7c0.1,0,0.2,0,0.2,0l2.2-104.1c-0.1,0-0.2,0-0.3,0L301,155.7
								L301,155.7z M294.7,155.5c0.1,0,0.2,0,0.2,0l1.5-104.1c-0.1,0-0.2,0-0.3,0L294.7,155.5L294.7,155.5z M288.3,155.4
								c0.1,0,0.2,0,0.2,0l0.8-104.1c-0.1,0-0.2,0-0.3,0L288.3,155.4L288.3,155.4L288.3,155.4z M281.9,155.4c0.1,0,0.2,0,0.2,0
								l0.1-104.1c-0.1,0-0.2,0-0.3,0L281.9,155.4L281.9,155.4L281.9,155.4z M275.5,155.4c0.1,0,0.2,0,0.2,0l-0.5-104.1
								c-0.1,0-0.2,0-0.3,0L275.5,155.4L275.5,155.4L275.5,155.4z M269.1,155.5c0.1,0,0.2,0,0.2,0l-1.2-104.1c-0.1,0-0.2,0-0.3,0
								L269.1,155.5L269.1,155.5L269.1,155.5z M262.7,155.6c0.1,0,0.2,0,0.2,0l-1.8-104.1c-0.1,0-0.2,0-0.3,0L262.7,155.6
								L262.7,155.6L262.7,155.6z M256.3,155.8c0.1,0,0.2,0,0.2,0l-2.4-104.1c-0.1,0-0.2,0-0.3,0L256.3,155.8z M249.9,156
								c0.1,0,0.2,0,0.2,0l-3-104.1c-0.1,0-0.2,0-0.3,0L249.9,156L249.9,156L249.9,156z M243.5,156.3c0.1,0,0.2,0,0.2,0l-3.6-104.1
								c-0.1,0-0.2,0-0.3,0L243.5,156.3L243.5,156.3z M237,156.6c0.1,0,0.2,0,0.2,0l-4.2-104c-0.1,0-0.2,0-0.3,0L237,156.6z
								 M230.6,157c0.1,0,0.2,0,0.2,0l-4.8-104c-0.1,0-0.2,0-0.3,0L230.6,157z M224.2,157.4c0.1,0,0.2,0,0.2,0l-5.4-104
								c-0.1,0-0.2,0-0.3,0L224.2,157.4L224.2,157.4z M217.8,157.9c0.1,0,0.2,0,0.2,0l-6-103.9c-0.1,0-0.2,0-0.3,0L217.8,157.9
								L217.8,157.9z M211.4,158.4c0.1,0,0.2,0,0.2,0L205,54.5c-0.1,0-0.2,0-0.3,0L211.4,158.4L211.4,158.4z M205,159
								c0.1,0,0.2,0,0.2,0L198,55.1c-0.1,0-0.2,0-0.3,0L205,159L205,159z M198.7,159.6c0.1,0,0.2,0,0.2,0l-8-103.7
								c-0.1,0-0.2,0-0.3,0L198.7,159.6L198.7,159.6L198.7,159.6z M192.4,160.3c0.1,0,0.2,0,0.2,0l-8.8-103.6c-0.1,0-0.2,0-0.3,0
								L192.4,160.3L192.4,160.3L192.4,160.3z M186.5,161l-4.7-46.2L186.5,161L186.5,161l-4.7-46.2L186.5,161l-4.1-39.9L186.5,161
								L186.5,161l-4.1-39.9L186.5,161l-3.8-37.4L186.5,161L186.5,161l-3.8-37.4L186.5,161L186.5,161l-0.2-2.3L186.5,161L186.5,161
								l-0.2-2.3L186.5,161c0,0,0,0,0.1,0L176.4,57.5c-0.1,0-0.2,0-0.3,0c0,0-0.1,0-0.1,0h0l0,0h0H176L186.5,161L186.5,161
								L186.5,161z"/>
						</g>
					</g>
					<path class="st7" d="M273.2,230.5c-19.1-8.6-39.7-11.3-39.7-11.3c-85.9-13.6-75.4-63.1-75.4-63.1c17.6-16.3,25.4-36.6,25.4-63
						s31.6-27.3,31.6-27.3c24.2-0.9,48.7-1.3,72.9-1.3s48.7,0.5,72.9,1.3c0,0,31.6,0.9,31.6,27.3s7.8,46.7,25.4,63
						c0,0,10.5,49.4-75.4,63.1c0,0-20.6,2.6-39.7,11.3c0,0,30.4-58.1,50.7-83.7c22.9-28.8,59.1-75.5,7.2-77.4
						c-48.5-1.8-97-1.8-145.5,0c-51.9,2-15.7,48.7,7.2,77.4C242.8,172.5,273.2,230.5,273.2,230.5L273.2,230.5z"/>
					<path id="Keylines" class="st8" d="M288,242.8c0,0,5.7-8.6,14.8-12.3c19.1-8.6,39.7-11.3,39.7-11.3
						c85.9-13.6,75.4-63.1,75.4-63.1c-17.6-16.3-25.4-36.6-25.4-63s-31.6-27.3-31.6-27.3c-24.2-0.9-48.7-1.3-72.9-1.3
						s-48.7,0.5-72.9,1.3c0,0-31.6,0.9-31.6,27.3s-7.8,46.7-25.4,63c0,0-10.6,49.4,75.4,63.1c0,0,20.6,2.6,39.7,11.3
						C282.3,234.2,288,242.8,288,242.8L288,242.8z"/>
					<g>
						<defs>
							<path id="SVGID_00000035506153444426175950000008937260852016253070_" d="M271.9,228.8c-8.7-21.4-18.4-37.3-26-48.1
								c-8-11.4-43-59.4-51.1-76.4c-1.2-2.5-2.2-5.1-2.2-5.1c-3.4-9-4.1-17-4.2-22.3c-1.1,2.5-2.3,5.5-3.3,8.9
								c-1.2,4.3-1.9,8.2-2.3,11.5c1,15.3-2.7,25.2-6.4,31.5c-6.4,10.9-16.1,16.4-18.4,29.8c-0.8,4.8-0.4,8.9,0,11.6
								c2.3,5.9,6.6,14.6,14.4,22.7c4.4,4.6,14.6,14,53.4,25.3C237.1,221.6,252.8,225.6,271.9,228.8L271.9,228.8z"/>
						</defs>
						<clipPath id="SVGID_00000065076932705704248990000018415222529312666016_">
							<use xlink:href="#SVGID_00000035506153444426175950000008937260852016253070_"  style="overflow:visible;"/>
						</clipPath>
						<g style="clip-path:url(#SVGID_00000065076932705704248990000018415222529312666016_);">
							<path class="st10" d="M258.8,184.3c0,0,8,20.1,10.3,99.8"/>
							<path class="st10" d="M265.2,278.7c0,0-1.7-40-8.4-96.9"/>
							<path class="st10" d="M253.6,180.5c0,0,6.3,71.1,6.2,93.8"/>
							<path class="st10" d="M250.8,178.4c0,0,3.8,61.1,3.3,90.7"/>
							<path class="st10" d="M248.3,175.6c0,0,0.6,66.1-2.4,85.2"/>
							<path class="st10" d="M245.9,173c0,0-0.3,46.6-7.8,80.7"/>
							<path class="st10" d="M244.5,170.1c0,0-2.4,44.9-12.5,77.1"/>
							<path class="st10" d="M241.8,168.5c0,0-4.7,50.2-15.2,75.9"/>
							<path class="st10" d="M241.1,166.7c0,0-6.9,42.7-20.5,71.1"/>
							<path class="st10" d="M238.9,166.2c0,0-9.2,44.9-22.7,68.3"/>
							<path class="st10" d="M236.6,163.9c0,0-11.2,45.8-25.5,65.4"/>
							<path class="st10" d="M234.2,161.2c0,0-11.9,42.5-28,64.7"/>
							<path class="st10" d="M232.1,158.8c0,0-14.1,39.6-32.8,61"/>
							<path class="st10" d="M230,156.2c0,0-18,41.3-37.4,57.7"/>
							<path class="st10" d="M228.1,153.2c0,0-16.1,35.2-40.5,55"/>
							<path class="st10" d="M225.6,151.9c-14.2,21.7-28.9,39.8-43.9,53.5"/>
							<path class="st10" d="M223.8,148.5c-14.4,20.5-29.1,38.6-44.1,53.4"/>
							<path class="st10" d="M220.8,145.4c-14,19.1-28.7,36.9-44.1,53.4"/>
							<path class="st10" d="M217.4,141.4c-14.1,18.8-29,36.6-44.4,53.7"/>
							<line class="st10" x1="214" y1="138.9" x2="169" y2="193.3"/>
							<line class="st10" x1="211.3" y1="135.2" x2="166.2" y2="189.8"/>
							<line class="st10" x1="208.6" y1="131.2" x2="162.7" y2="186.4"/>
							<line class="st10" x1="207.4" y1="125.3" x2="159.4" y2="182.7"/>
							<line class="st10" x1="200.8" y1="117.9" x2="154.7" y2="173.1"/>
							<line class="st10" x1="204.5" y1="121.4" x2="156.6" y2="178.7"/>
							<line class="st10" x1="199.4" y1="111.8" x2="149.9" y2="171.8"/>
							<line class="st10" x1="196.3" y1="109" x2="147.4" y2="168.1"/>
							<line class="st10" x1="195.2" y1="105.5" x2="145.1" y2="166.2"/>
							<line class="st10" x1="193.9" y1="102.2" x2="143.4" y2="162.6"/>
							<path class="st10" d="M193.4,97.5c-3.1,2.2-50.3,62.7-52.5,62"/>
							<path class="st10" d="M191.8,94.6c-1.4,0-50,62-52.5,62"/>
							<path class="st10" d="M190.9,90.7c-2.1,0-49.9,62.6-52.6,62.6"/>
							<path class="st10" d="M189.8,85.5c-2.1-1.2-46.6,62.4-52.9,63.3"/>
							<path class="st10" d="M189.5,80.9c-3.8-1.4-47.7,66.2-54,64.6"/>
							<path class="st10" d="M189.8,75.5c-1.9-4.3-46.4,68.6-55,66.7"/>
							<path class="st10" d="M191.9,67.9c-4.4-4-41.7,67.1-57.6,72.2"/>
						</g>
					</g>
					<g>
						<defs>
							<path id="SVGID_00000085213220032173850240000006672618821877584278_" d="M303.3,228.9c8.8-21.4,18.6-37.2,26.2-47.9
								c8-11.4,43.3-59.1,51.6-76.1c1.2-2.5,2.2-5.1,2.2-5.1c3.5-9,4.2-17,4.3-22.3c1.1,2.6,2.3,5.5,3.2,8.9
								c1.2,4.3,1.9,8.2,2.2,11.5c-1.1,15.3,2.6,25.3,6.2,31.6c6.4,10.9,16,16.4,18.3,29.9c0.8,4.8,0.4,8.9-0.1,11.6
								c-2.4,5.9-6.7,14.5-14.5,22.7c-4.5,4.6-14.7,13.9-53.6,25C338.1,221.9,322.4,225.8,303.3,228.9L303.3,228.9z"/>
						</defs>
						<clipPath id="SVGID_00000003785667865866032820000013706723153861305472_">
							<use xlink:href="#SVGID_00000085213220032173850240000006672618821877584278_"  style="overflow:visible;"/>
						</clipPath>
						<g style="clip-path:url(#SVGID_00000003785667865866032820000013706723153861305472_);">
							<path class="st10" d="M316.6,184.4c0,0-8.2,20-10.9,99.7"/>
							<path class="st10" d="M309.7,278.8c0,0,1.9-40,9-96.8"/>
							<path class="st10" d="M321.9,180.7c0,0-6.7,71-6.7,93.8"/>
							<path class="st10" d="M324.7,178.6c0,0-4.1,61.1-3.8,90.6"/>
							<path class="st10" d="M327.2,175.9c0,0-1,66.1,2,85.3"/>
							<path class="st10" d="M329.6,173.3c0,0,0,46.6,7.3,80.8"/>
							<path class="st10" d="M331,170.4c0,0,2.2,44.9,12.1,77.2"/>
							<path class="st10" d="M333.8,168.8c0,0,4.5,50.2,14.8,76"/>
							<path class="st10" d="M334.5,167c0,0,6.7,42.7,20.1,71.2"/>
							<path class="st10" d="M336.7,166.5c0,0,9,44.9,22.3,68.5"/>
							<path class="st10" d="M338.9,164.3c0,0,11,45.9,25.1,65.5"/>
							<path class="st10" d="M341.4,161.5c0,0,11.7,42.6,27.6,64.9"/>
							<path class="st10" d="M343.5,159.1c0,0,13.8,39.6,32.4,61.2"/>
							<path class="st10" d="M345.6,156.6c0,0,17.8,41.4,37.1,57.9"/>
							<path class="st10" d="M347.6,153.5c0,0,15.9,35.3,40.2,55.2"/>
							<path class="st10" d="M350,152.2c14.1,21.8,28.6,40,43.6,53.7"/>
							<path class="st10" d="M351.9,148.9c14.3,20.6,28.9,38.7,43.8,53.7"/>
							<path class="st10" d="M354.9,145.8c13.9,19.2,28.5,37.1,43.8,53.7"/>
							<path class="st10" d="M358.3,141.8c14,18.9,28.8,36.8,44.1,54"/>
							<line class="st10" x1="361.7" y1="139.3" x2="406.4" y2="194"/>
							<line class="st10" x1="364.5" y1="135.7" x2="409.3" y2="190.5"/>
							<line class="st10" x1="367.1" y1="131.7" x2="412.8" y2="187.1"/>
							<line class="st10" x1="368.4" y1="125.8" x2="416" y2="183.5"/>
							<line class="st10" x1="375.1" y1="118.4" x2="420.8" y2="173.8"/>
							<line class="st10" x1="371.3" y1="121.8" x2="418.9" y2="179.4"/>
							<line class="st10" x1="376.5" y1="112.4" x2="425.7" y2="172.6"/>
							<line class="st10" x1="379.5" y1="109.5" x2="428.1" y2="169"/>
							<line class="st10" x1="380.7" y1="106.1" x2="430.5" y2="167"/>
							<line class="st10" x1="382.1" y1="102.8" x2="432.2" y2="163.5"/>
							<path class="st10" d="M382.6,98.1c3.1,2.2,49.9,63,52.1,62.3"/>
							<path class="st10" d="M384.2,95.1c1.4,0,49.6,62.3,52.1,62.3"/>
							<path class="st10" d="M385.1,91.2c2.1,0,49.5,62.9,52.2,62.9"/>
							<path class="st10" d="M386.3,86.1c2.1-1.2,46.3,62.6,52.5,63.6"/>
							<path class="st10" d="M386.6,81.5c3.8-1.3,47.3,66.5,53.6,64.9"/>
							<path class="st10" d="M386.3,76.1c2-4.2,46,68.9,54.6,67"/>
							<path class="st10" d="M384.2,68.5c4.4-3.9,41.3,67.3,57.2,72.6"/>
						</g>
					</g>
					<path class="st12" d="M147.6,159.6c0,7,1.4,18.6,9.5,30.5c13.2,19.5,38.3,32.3,74.7,38.2l0.2,0c0.2,0,19.9,2.7,37.9,10.9
						l0.3,0.1c6.4,2.6,5.2,11.1,5.4,11.4v892.1"/>
					<path class="st12" d="M429.3,159.6c0,7-1.4,18.6-9.5,30.5c-13.2,19.5-38.3,32.3-74.7,38.2l-0.2,0c-0.2,0-19.9,2.7-37.9,10.9
						l-0.3,0.1c-6.5,2.6-5.4,11.3-5.4,11.4v892"/>
					<path class="st13" d="M296.4,1037.3c-6.1,0-12.2-0.1-18.4-0.1c0.1-68.4,0.2-136.8,0.3-205.3c0.1-37.5,0.3-75,0.5-112.6
						c0.1-31.3-0.3-53.5-0.5-73.4c0,0-2.7-254.9,0.9-359.2c0.1-3.1,0.3-6.9,0.5-14.3c0.3-12.8,1.6-18.9,1.1-30.1
						c-0.1-1.8-0.2-3.8-0.4-5.8c1.4,1.3,2.8,2.6,4.2,3.9c2.7,0,5.5,0.1,8.2,0.1c0.3-0.4,0.6-0.8,0.9-1.3c0.9-1,1.7-1.8,2.5-2.3
						c0,3.5-0.1,8.8-0.1,15.2c-0.2,39.6,0.1,69,0.2,76.5c0.6,73.5-0.7,223.2,0.2,314.9c0,4.9,0.3,26.7,0.5,56.4
						c0.1,15.6,0.2,33.7,0.3,54.2c0.1,22.8,0.2,48.3,0.2,76.4C297.5,918.2,296.9,989.9,296.4,1037.3L296.4,1037.3z"/>
					
						<radialGradient id="SVGID_00000150083409057620687180000003415624492826416285_" cx="286.75" cy="94.769" r="7.6" gradientTransform="matrix(1 0 0 -1 0 561.5591)" gradientUnits="userSpaceOnUse">
						<stop  offset="0" style="stop-color:#FFFFFF"/>
						<stop  offset="0.13" style="stop-color:#FAFAFA"/>
						<stop  offset="0.26" style="stop-color:#EDEDED"/>
						<stop  offset="0.4" style="stop-color:#D8D8D8"/>
						<stop  offset="0.55" style="stop-color:#BABABA"/>
						<stop  offset="0.69" style="stop-color:#939394"/>
						<stop  offset="0.84" style="stop-color:#646465"/>
						<stop  offset="0.94" style="stop-color:#404041"/>
						<stop  offset="1" style="stop-color:#484849"/>
					</radialGradient>
					
						<circle style="fill:url(#SVGID_00000150083409057620687180000003415624492826416285_);stroke:#000000;stroke-width:0.79;stroke-miterlimit:10;" cx="286.8" cy="466.8" r="7.6"/>
					
						<radialGradient id="SVGID_00000044892767158729567610000014230798906922677177_" cx="-1066.83" cy="2621.7603" r="4.56" gradientTransform="matrix(-1.2 0 0 1.22 -990.7399 -2726.4021)" gradientUnits="userSpaceOnUse">
						<stop  offset="0" style="stop-color:#FFFFFF"/>
						<stop  offset="0.22" style="stop-color:#FCFCFC"/>
						<stop  offset="0.36" style="stop-color:#F3F3F3"/>
						<stop  offset="0.48" style="stop-color:#E4E4E5"/>
						<stop  offset="0.58" style="stop-color:#D0D0D0"/>
						<stop  offset="0.68" style="stop-color:#B5B5B5"/>
						<stop  offset="0.77" style="stop-color:#939394"/>
						<stop  offset="0.86" style="stop-color:#6D6D6E"/>
						<stop  offset="0.94" style="stop-color:#404041"/>
						<stop  offset="0.94" style="stop-color:#404041"/>
						<stop  offset="1" style="stop-color:#484849"/>
					</radialGradient>
					
						<path style="opacity:0.4;fill:url(#SVGID_00000044892767158729567610000014230798906922677177_);enable-background:new    ;" d="
						M293.3,468.5c0,0-0.9,4.2-4.8,4.6c-3.9,0.4-7.2-0.9-7.9-4.9c0,0-0.3-2.1,0.1-3.5c0,0,1-0.9,0.9,0.4c-0.3,3.4,1.9,5.9,5.7,6.3
						s4.3-2.5,4.3-2.5S293.5,468,293.3,468.5L293.3,468.5z"/>
					
						<radialGradient id="SVGID_00000134967185851400518020000008971977977914413738_" cx="287.2116" cy="96.7626" r="4.7633" gradientTransform="matrix(1 0 0 -1 0 561.5591)" gradientUnits="userSpaceOnUse">
						<stop  offset="0" style="stop-color:#FFFFFF"/>
						<stop  offset="0.22" style="stop-color:#FCFCFC"/>
						<stop  offset="0.36" style="stop-color:#F3F3F3"/>
						<stop  offset="0.48" style="stop-color:#E4E4E5"/>
						<stop  offset="0.58" style="stop-color:#D0D0D0"/>
						<stop  offset="0.68" style="stop-color:#B5B5B5"/>
						<stop  offset="0.77" style="stop-color:#939394"/>
						<stop  offset="0.86" style="stop-color:#6D6D6E"/>
						<stop  offset="0.94" style="stop-color:#404041"/>
						<stop  offset="0.94" style="stop-color:#404041"/>
						<stop  offset="1" style="stop-color:#484849"/>
					</radialGradient>
					
						<path style="opacity:0.9;fill:url(#SVGID_00000134967185851400518020000008971977977914413738_);enable-background:new    ;" d="
						M281.8,464.6c0,0,0.8-3.5,4-3.8s6,0.7,6.6,4c0,0,0.5,2.1,0.2,3.3c0,0-0.9,1.2-1.5,0.3c-0.6-0.9-1.4-5.2-4.6-5.5s-3.5,2-3.5,2
						S281.6,465,281.8,464.6L281.8,464.6z"/>
					
						<radialGradient id="SVGID_00000075146918195445274180000006734198484784605832_" cx="287.41" cy="230.079" r="7.6" gradientTransform="matrix(1 0 0 -1 0 561.5591)" gradientUnits="userSpaceOnUse">
						<stop  offset="0" style="stop-color:#FFFFFF"/>
						<stop  offset="0.13" style="stop-color:#FAFAFA"/>
						<stop  offset="0.26" style="stop-color:#EDEDED"/>
						<stop  offset="0.4" style="stop-color:#D8D8D8"/>
						<stop  offset="0.55" style="stop-color:#BABABA"/>
						<stop  offset="0.69" style="stop-color:#939394"/>
						<stop  offset="0.84" style="stop-color:#646465"/>
						<stop  offset="0.94" style="stop-color:#404041"/>
						<stop  offset="1" style="stop-color:#484849"/>
					</radialGradient>
					
						<circle style="fill:url(#SVGID_00000075146918195445274180000006734198484784605832_);stroke:#000000;stroke-width:0.79;stroke-miterlimit:10;" cx="287.4" cy="331.5" r="7.6"/>
					
						<radialGradient id="SVGID_00000106129717801047069890000018425012932476554377_" cx="-1347.87" cy="2905.5891" r="4.56" gradientTransform="matrix(1 0 0 -1 0 561.5591)" gradientUnits="userSpaceOnUse">
						<stop  offset="0" style="stop-color:#FFFFFF"/>
						<stop  offset="0.22" style="stop-color:#FCFCFC"/>
						<stop  offset="0.36" style="stop-color:#F3F3F3"/>
						<stop  offset="0.48" style="stop-color:#E4E4E5"/>
						<stop  offset="0.58" style="stop-color:#D0D0D0"/>
						<stop  offset="0.68" style="stop-color:#B5B5B5"/>
						<stop  offset="0.77" style="stop-color:#939394"/>
						<stop  offset="0.86" style="stop-color:#6D6D6E"/>
						<stop  offset="0.94" style="stop-color:#404041"/>
						<stop  offset="0.94" style="stop-color:#404041"/>
						<stop  offset="1" style="stop-color:#484849"/>
					</radialGradient>
					
						<path style="opacity:0.4;fill:url(#SVGID_00000106129717801047069890000018425012932476554377_);enable-background:new    ;" d="
						M293.9,333.1c0,0-0.9,4.2-4.8,4.6c-3.9,0.4-7.2-0.9-7.9-4.9c0,0-0.3-2.1,0.1-3.5c0,0,1-0.9,0.9,0.4c-0.3,3.4,1.9,5.9,5.7,6.3
						s4.3-2.5,4.3-2.5S294.1,332.7,293.9,333.1L293.9,333.1z"/>
					
						<radialGradient id="SVGID_00000113316755855615487800000010135769372873443488_" cx="287.8716" cy="232.0726" r="4.7569" gradientTransform="matrix(1 0 0 -1 0 561.5591)" gradientUnits="userSpaceOnUse">
						<stop  offset="0" style="stop-color:#FFFFFF"/>
						<stop  offset="0.22" style="stop-color:#FCFCFC"/>
						<stop  offset="0.36" style="stop-color:#F3F3F3"/>
						<stop  offset="0.48" style="stop-color:#E4E4E5"/>
						<stop  offset="0.58" style="stop-color:#D0D0D0"/>
						<stop  offset="0.68" style="stop-color:#B5B5B5"/>
						<stop  offset="0.77" style="stop-color:#939394"/>
						<stop  offset="0.86" style="stop-color:#6D6D6E"/>
						<stop  offset="0.94" style="stop-color:#404041"/>
						<stop  offset="0.94" style="stop-color:#404041"/>
						<stop  offset="1" style="stop-color:#484849"/>
					</radialGradient>
					
						<path style="opacity:0.9;fill:url(#SVGID_00000113316755855615487800000010135769372873443488_);enable-background:new    ;" d="
						M282.5,329.3c0,0,0.8-3.5,4-3.8s6,0.7,6.6,4c0,0,0.5,2.1,0.2,3.3c0,0-0.9,1.2-1.5,0.3c-0.6-0.9-1.4-5.2-4.6-5.5s-3.5,2-3.5,2
						S282.3,329.7,282.5,329.3L282.5,329.3z"/>
					
						<radialGradient id="SVGID_00000080183742382127049130000013319873926384818089_" cx="288.28" cy="314.6291" r="7.6" gradientTransform="matrix(1 0 0 -1 0 561.5591)" gradientUnits="userSpaceOnUse">
						<stop  offset="0" style="stop-color:#FFFFFF"/>
						<stop  offset="0.13" style="stop-color:#FAFAFA"/>
						<stop  offset="0.26" style="stop-color:#EDEDED"/>
						<stop  offset="0.4" style="stop-color:#D8D8D8"/>
						<stop  offset="0.55" style="stop-color:#BABABA"/>
						<stop  offset="0.69" style="stop-color:#939394"/>
						<stop  offset="0.84" style="stop-color:#646465"/>
						<stop  offset="0.94" style="stop-color:#404041"/>
						<stop  offset="1" style="stop-color:#484849"/>
					</radialGradient>
					
						<circle style="fill:url(#SVGID_00000080183742382127049130000013319873926384818089_);stroke:#000000;stroke-width:0.79;stroke-miterlimit:10;" cx="288.3" cy="246.9" r="7.6"/>
					
						<radialGradient id="SVGID_00000077319167714828648340000001643601375772339337_" cx="-1348.6" cy="2836.209" r="4.56" gradientTransform="matrix(1 0 0 -1 0 561.5591)" gradientUnits="userSpaceOnUse">
						<stop  offset="0" style="stop-color:#FFFFFF"/>
						<stop  offset="0.22" style="stop-color:#FCFCFC"/>
						<stop  offset="0.36" style="stop-color:#F3F3F3"/>
						<stop  offset="0.48" style="stop-color:#E4E4E5"/>
						<stop  offset="0.58" style="stop-color:#D0D0D0"/>
						<stop  offset="0.68" style="stop-color:#B5B5B5"/>
						<stop  offset="0.77" style="stop-color:#939394"/>
						<stop  offset="0.86" style="stop-color:#6D6D6E"/>
						<stop  offset="0.94" style="stop-color:#404041"/>
						<stop  offset="0.94" style="stop-color:#404041"/>
						<stop  offset="1" style="stop-color:#484849"/>
					</radialGradient>
					
						<path style="opacity:0.4;fill:url(#SVGID_00000077319167714828648340000001643601375772339337_);enable-background:new    ;" d="
						M294.8,248.6c0,0-0.9,4.2-4.8,4.6s-7.2-0.9-7.9-4.9c0,0-0.3-2.1,0.1-3.5c0,0,1-0.9,0.9,0.4c-0.3,3.4,1.9,5.9,5.7,6.3
						c3.9,0.4,4.3-2.5,4.3-2.5S295,248.1,294.8,248.6L294.8,248.6z"/>
					
						<radialGradient id="SVGID_00000163763524961174607250000013435412725269389747_" cx="288.7416" cy="316.6126" r="4.7569" gradientTransform="matrix(1 0 0 -1 0 561.5591)" gradientUnits="userSpaceOnUse">
						<stop  offset="0" style="stop-color:#FFFFFF"/>
						<stop  offset="0.22" style="stop-color:#FCFCFC"/>
						<stop  offset="0.36" style="stop-color:#F3F3F3"/>
						<stop  offset="0.48" style="stop-color:#E4E4E5"/>
						<stop  offset="0.58" style="stop-color:#D0D0D0"/>
						<stop  offset="0.68" style="stop-color:#B5B5B5"/>
						<stop  offset="0.77" style="stop-color:#939394"/>
						<stop  offset="0.86" style="stop-color:#6D6D6E"/>
						<stop  offset="0.94" style="stop-color:#404041"/>
						<stop  offset="0.94" style="stop-color:#404041"/>
						<stop  offset="1" style="stop-color:#484849"/>
					</radialGradient>
					
						<path style="opacity:0.9;fill:url(#SVGID_00000163763524961174607250000013435412725269389747_);enable-background:new    ;" d="
						M283.3,244.8c0,0,0.8-3.4,4-3.8s6,0.7,6.6,4c0,0,0.5,2.1,0.2,3.3c0,0-0.9,1.2-1.5,0.3s-1.4-5.2-4.6-5.5s-3.5,2-3.5,2
						S283.2,245.2,283.3,244.8L283.3,244.8z"/>
				</g>
			</g>
		</g>
	</g>
</g>
</svg>
