<?xml version="1.0" encoding="UTF-8"?><svg id="_Слой_2" xmlns="http://www.w3.org/2000/svg" xmlns:xlink="http://www.w3.org/1999/xlink" viewBox="0 0 562.97 562.97"><defs><style>.cls-1{fill:#f6f6f6;}.cls-2{stroke-width:2px;}.cls-2,.cls-3,.cls-4{stroke:#000;stroke-linecap:round;stroke-linejoin:round;}.cls-2,.cls-4{fill:#e5e5e5;}.cls-3{fill:#fff;stroke-width:2.32px;}.cls-5,.cls-6{fill:none;}.cls-6{clip-path:url(#clippath);}.cls-4{fill-rule:evenodd;stroke-width:2.01px;}</style><clipPath id="clippath"><rect class="cls-5" width="562.97" height="562.97"/></clipPath></defs><g id="layer"><g class="cls-6"><rect class="cls-1" x=".02" y=".07" width="562.91" height="562.91"/><path class="cls-4" d="m505.44,441.89c6.51,136.26,3.72,183.42-1.74,193.96-1,1.94-5.57,9.34-7.47,20.35-1.49,8.67-.13,12.59-1.8,20.61-1.7,8.17-5.3,14.63-8.65,19.31-3.58,25.74-7.16,51.49-10.74,77.23-15.94,3.5-37.92,7.83-64.27,11.43-56.5,7.74-99.68,7.6-132.01,7.38-73.61-.51-127.37-8.28-141.56-10.42-20.51-3.1-37.66-6.39-50.08-8.97-3.61-25.87-7.22-51.73-10.82-77.6-4.83-4.05-11.11-10.67-13.46-20.19-1.71-6.91-.33-10.39-1.7-18.79-1.98-12.17-7.57-20.31-8.75-22.37-5.95-10.44-8.55-57.81.69-197.87,1.29-32.36,4.19-55.74,6.91-72.17,1.46-8.8,4.01-22.55.14-39.66-2.16-9.56-5.04-14.5-9.15-24.03-2.82-6.53-4.89-12.15-6.52-17.19-5.44-16.85-8.26-29.53-9.31-34.27-2.82-12.72-10.87-31.27-34.19-56.28,9.27-12.68,14.9-23.86,18.39-31.99,4.37-10.19,6.33-17.79,13.72-25.84,6.13-6.68,14.26-12.48,14.26-12.48,1.69-1.21,4.18-2.9,7.67-4.94,13.89-8.12,41.47-20.5,45.54-22.32,30.15-10.76,58.4-18.22,76.86-22.68,30.31,10.17,60.63,20.35,90.94,30.52,37.58-9.75,75.16-19.51,112.74-29.26,18.81,4.1,46.5,10.94,75.76,21.42,0,0,27.11,9.71,45.55,22.33,5.99,4.1,10.51,7.83,12.85,9.84.07.06.69.59,1.3,1.13,3.2,2.81,8.12,7.48,14.42,14.83,7.7,14.41,15.41,28.81,23.11,43.22-12.29,26.95-20.33,48.91-25.44,64.18-7.83,23.37-9.2,32.33-18.24,49.21-5.58,10.42-9.54,15.41-12.43,25.95-4.44,16.21-1.99,29.69-.57,38.32,2.93,17.77,6.03,42.63,8.05,78.1Z"/><path id="Long_Sleeve" class="cls-3" d="m74.92,328.48c-.47,43.57-47.77,139.51-57.22,153.42-9.46,13.91-.47,22.71-.47,34.3s-28.85,93.63-38.78,118.66c-2.79,7.04-5.22,18.29-7.59,30.85-1.76,9.29,14.21,30.33-3.95,52.58-6.19,7.58-2.88,24.1-2.88,24.1.25.35,1.29,1.89,1.02,4.02-.27,2.11-1.63,3.34-1.97,3.63-55.81,4.1-85.13,6.26-85.13,6.26h0s-3.2-.12-4.43-1.23c-.84-.75-1.39-2.51.18-7.06,0,0,1.42-4.41,1.6-8.11.18-3.71-9.52-11.9-1.6-19.87q4.73-4.76,4.49-9.16c-8.99-161.3,25.54-210.89,20.81-238.24-4.73-27.35,6.62-26.42,6.62-26.42C-30.07,245.05,18.64,152.82,30.94,137.06c0,0-14.54,24.41,43.98,191.43Z"/><path id="Long_Sleeve-2" class="cls-3" d="m486.88,334.3c.47,43.57,47.77,139.51,57.22,153.42,9.46,13.91.47,22.71.47,34.3,0,11.59,28.85,93.63,38.78,118.66,2.79,7.04,5.22,18.29,7.59,30.85,1.76,9.29-14.21,30.33,3.95,52.58,6.19,7.58,2.88,24.1,2.88,24.1-.25.35-1.29,1.89-1.02,4.02.27,2.11,1.63,3.34,1.97,3.63,55.81,4.1,85.13,6.26,85.13,6.26h0s3.2-.12,4.43-1.23c.84-.75,1.39-2.51-.18-7.06,0,0-1.42-4.41-1.6-8.11-.18-3.71,9.52-11.9,1.6-19.87q-4.73-4.76-4.49-9.16c8.99-161.3-25.54-210.89-20.81-238.24,4.73-27.35-6.62-26.42-6.62-26.42-64.32-201.16-113.03-293.4-125.33-309.16,0,0,14.54,24.41-43.98,191.43Z"/><path class="cls-2" d="m177.87,72c28.1,6.58,65.1,12.42,108.59,11.88,37.04-.46,69.01-5.42,94.34-11.17,21.64,4.88,39.6,10.05,52.99,14.26,20.53,6.45,32.73,10.34,48,18.3,15.3,7.97,26.92,16.49,34.69,22.81-5.78,80.63-11.56,161.27-17.35,241.9-146.25.32-292.51.63-438.76.95-4.32-83.09-8.64-166.18-12.96-249.27,16.58-9.94,37.06-20.58,61.31-29.94,25.72-9.93,49.32-15.96,69.15-19.72Z"/></g></g></svg>