<?xml version="1.0" encoding="UTF-8"?><svg id="_Слой_2" xmlns="http://www.w3.org/2000/svg" xmlns:xlink="http://www.w3.org/1999/xlink" viewBox="0 0 562.97 562.97"><defs><style>.cls-1{fill:#f6f6f6;}.cls-2,.cls-3,.cls-4,.cls-5,.cls-6,.cls-7{stroke:#000;stroke-linecap:round;stroke-linejoin:round;}.cls-2,.cls-4,.cls-5,.cls-7{fill:#e5e5e5;}.cls-2,.cls-7{stroke-width:2.01px;}.cls-3{stroke-width:.48px;}.cls-3,.cls-8{fill:#f2f2f2;}.cls-4,.cls-5{stroke-width:1.2px;}.cls-4,.cls-7{fill-rule:evenodd;}.cls-6{fill:#fff;stroke-width:2.32px;}.cls-9,.cls-10{fill:none;}.cls-10{clip-path:url(#clippath);}</style><clipPath id="clippath"><rect class="cls-9" width="562.97" height="562.97"/></clipPath></defs><g id="layer"><g class="cls-10"><rect class="cls-1" x=".02" y=".07" width="562.91" height="562.91"/><path class="cls-7" d="m505.92,440.82c6.51,136.26,3.72,183.42-1.74,193.96-1,1.94-5.57,9.34-7.47,20.35-1.49,8.67-.13,12.59-1.8,20.61-1.7,8.17-5.3,14.63-8.65,19.31-3.58,25.74-7.16,51.49-10.74,77.23-15.94,3.5-37.92,7.83-64.27,11.43-56.5,7.74-99.68,7.6-132.01,7.38-73.61-.51-127.37-8.28-141.56-10.42-20.51-3.1-37.66-6.39-50.08-8.97-3.61-25.87-7.22-51.73-10.82-77.6-4.83-4.05-11.11-10.67-13.46-20.19-1.71-6.91-.33-10.39-1.7-18.79-1.98-12.17-7.57-20.31-8.75-22.37-5.95-10.44-8.55-57.81.69-197.87,1.29-32.36,4.19-55.74,6.91-72.17,1.46-8.8,4.01-22.55.14-39.66-2.16-9.56-5.04-14.5-9.15-24.03-2.82-6.53-4.89-12.15-6.52-17.19-5.45-16.86-8.23-29.46-9.31-34.27-2.83-12.61-11.03-30.89-35.15-54.99,5.71-11.04,10.08-19.86,12.83-25.49,0,0,13.41-27.4,21.28-34.29,2.78-2.43,6.73-5.79,6.73-5.79.6-.51,1.05-.89,1.14-.97,2.31-1.95,7.54-6.25,13.01-10,17.8-12.18,45.54-22.32,45.54-22.32,30.15-10.76,58.4-18.22,76.86-22.68,30.31,10.17,60.63,20.35,90.94,30.52,37.58-9.75,75.16-19.51,112.74-29.26,18.81,4.1,46.5,10.94,75.76,21.42,0,0,27.11,9.71,45.55,22.33,5.99,4.1,10.51,7.83,12.85,9.84.06.06.69.59,1.3,1.13,3.2,2.81,8.12,7.48,14.42,14.83,7.7,14.41,15.41,28.81,23.11,43.22-12.29,26.95-20.33,48.91-25.44,64.18-7.83,23.37-9.2,32.33-18.24,49.21-5.58,10.42-9.54,15.41-12.43,25.95-4.44,16.21-1.99,29.69-.57,38.32,2.93,17.77,6.03,42.63,8.05,78.1Z"/><path id="Long_Sleeve" class="cls-6" d="m74.34,328.6c-.47,43.57-47.77,139.51-57.22,153.42-9.46,13.91-.47,22.71-.47,34.3s-28.85,93.63-38.78,118.66c-2.79,7.04-5.22,18.29-7.59,30.85-1.76,9.29,14.21,30.33-3.95,52.58-6.19,7.58-2.88,24.1-2.88,24.1.25.35,1.29,1.89,1.02,4.02-.27,2.11-1.63,3.34-1.97,3.63-55.81,4.1-85.13,6.26-85.13,6.26,0,0-3.2-.12-4.43-1.23-.84-.75-1.39-2.51.18-7.06,0,0,1.42-4.41,1.6-8.11.18-3.71-9.52-11.9-1.6-19.87q4.73-4.76,4.49-9.16c-8.99-161.3,25.54-210.89,20.81-238.24-4.73-27.35,6.62-26.42,6.62-26.42C-30.65,245.17,18.06,152.94,30.36,137.18c0,0-14.54,24.41,43.98,191.43Z"/><path id="Long_Sleeve-2" class="cls-6" d="m487.79,334.3c.47,43.57,47.77,139.51,57.22,153.42,9.46,13.91.47,22.71.47,34.3,0,11.59,28.85,93.63,38.78,118.66,2.79,7.04,5.22,18.29,7.59,30.85,1.76,9.29-14.21,30.33,3.95,52.58,6.19,7.58,2.88,24.1,2.88,24.1-.25.35-1.29,1.89-1.02,4.02.27,2.11,1.63,3.34,1.97,3.63,55.81,4.1,85.13,6.26,85.13,6.26h0s3.2-.12,4.43-1.23c.84-.75,1.39-2.51-.18-7.06,0,0-1.42-4.41-1.6-8.11-.18-3.71,9.52-11.9,1.6-19.87q-4.73-4.76-4.49-9.16c8.99-161.3-25.54-210.89-20.81-238.24,4.73-27.35-6.62-26.42-6.62-26.42-64.32-201.16-113.03-293.4-125.33-309.16,0,0,14.54,24.41-43.98,191.43Z"/><path class="cls-2" d="m177.79,70.68c29.84,6.04,67.26,10.97,110.4,10.59,35.91-.31,67.56-4.22,93.83-9.16,19.63,3.89,36.01,8.33,48.48,12.12,21.86,6.64,35.46,12.42,40.1,14.44,17.09,7.42,26.28,13.16,32.26,17.29,5.56,3.84,9.99,7.41,13.14,10.1-5.11,78.3-10.22,156.59-15.33,234.89-23.93,6.85-56.67,13.36-95.64,12.95-50.35-.53-88.13-12.36-102.3-17.23-10.74-3.69-19.51-7.36-25.66-10.1-22,9.29-51.81,19.14-88.04,23.76-56.45,7.2-103.12-1.55-132.12-9.5-2.97-79.76-5.94-159.52-8.91-239.29,4.82-3.58,11.57-8.25,20.01-13.07,12.14-6.93,22.03-10.88,31.01-14.44,2.85-1.13,13.51-5.3,33.15-11.23,11.43-3.45,26.9-7.8,45.62-12.12Z"/><rect class="cls-5" x="270.81" y="344.78" width="5.68" height="9.32"/><rect class="cls-5" x="276.21" y="344.78" width="5.68" height="9.32"/><path class="cls-4" d="m276.74,359.65c.89,0,3.57,0,3.57,0,.05-1.59.46-4.44,1.15-5.89,1.58-3.33.01-5.37-2.25-6.96-.89-.56-1.71-.86-2.48-.86s-1.59.3-2.48.86c-2.26,1.6-3.83,3.63-2.25,6.96.69,1.45,1.1,4.3,1.15,5.89,0,0,2.68,0,3.57,0h.02Z"/><path class="cls-5" d="m276.63,355.98h0c-2.63-.37-4.67,1.54-5.03,4.17l-3.08,22.09,8.74,1.22,3.08-22.09c.37-2.63-1.07-5.02-3.7-5.39Zm-1,24.55l-4.76-.66,1.33-9.55,4.76.66-1.33,9.55Zm2.54-18.22l-4.76-.66.19-1.39c.23-1.67,1.05-2.96,2.81-2.71h0c1.76.25,2.19,1.7,1.96,3.38l-.19,1.39Z"/><path class="cls-4" d="m276.72,359.76c-.01-.46.98-.09,1.75-.24.24-4.12.26-8.87.03-12.97-.71-.28-1.31-.28-1.78-.28s-1.07,0-1.78.28c-.22,4.11-.21,8.85.03,12.97.77.15,1.76-.22,1.75.24,0,0,0,0,0,0Z"/><path class="cls-8" d="m136.06,379.09c.4.04,1.16.13,1.19-.42.03-.55-.71-1.23-.13-1.61.48-.31.56-.74.6-1.16.05-.52.16-1.77.16-1.77l-1.37-.12"/><path class="cls-8" d="m136.51,374.01l-1.37-.12s-.11,1.25-.16,1.77c-.04.42-.03.86.39,1.25.51.47-.34,1.01-.41,1.56-.07.55.7.59,1.1.62"/><path class="cls-8" d="m132.35,378.76c.4.04,1.16.13,1.19-.42.03-.55-.71-1.23-.13-1.61.48-.31.56-.74.6-1.16.05-.52.16-1.77.16-1.77l-1.37-.12"/><path class="cls-8" d="m132.94,373.69l-1.37-.12s-.11,1.25-.16,1.77c-.04.42-.03.86.39,1.25.51.47-.34,1.01-.41,1.56-.07.55.7.59,1.1.62"/><path class="cls-8" d="m128.78,378.43c.4.04,1.16.13,1.19-.42.03-.55-.71-1.23-.13-1.61.48-.31.56-.74.6-1.16.05-.52.16-1.77.16-1.77l-1.37-.12"/><path class="cls-3" d="m132.94,373.69l-1.37-.12s-.11,1.25-.16,1.77c-.04.42-.03.86.39,1.25.51.47-.34,1.01-.41,1.56-.07.55.7.59,1.1.62"/><path class="cls-3" d="m128.78,378.43c.4.04,1.16.13,1.19-.42.03-.55-.71-1.23-.13-1.61.48-.31.56-.74.6-1.16.05-.52.16-1.77.16-1.77l-1.37-.12"/><path class="cls-8" d="m129.23,373.36l-1.37-.12s-.11,1.25-.16,1.77c-.04.42-.03.86.39,1.25.51.47-.34,1.01-.41,1.56-.07.55.7.59,1.1.62"/><path class="cls-8" d="m125.07,378.1c.4.04,1.16.13,1.19-.42.03-.55-.71-1.23-.13-1.61.48-.31.56-.74.6-1.16.05-.52.16-1.77.16-1.77l-1.37-.12"/><path class="cls-3" d="m129.23,373.36l-1.37-.12s-.11,1.25-.16,1.77c-.04.42-.03.86.39,1.25.51.47-.34,1.01-.41,1.56-.07.55.7.59,1.1.62"/><path class="cls-3" d="m125.07,378.1c.4.04,1.16.13,1.19-.42.03-.55-.71-1.23-.13-1.61.48-.31.56-.74.6-1.16.05-.52.16-1.77.16-1.77l-1.37-.12"/><path class="cls-8" d="m125.52,373.03l-1.37-.12s-.11,1.25-.16,1.77c-.04.42-.03.86.39,1.25.51.47-.34,1.01-.41,1.56-.07.55.7.59,1.1.62"/><path class="cls-8" d="m121.36,377.77c.4.04,1.16.13,1.19-.42.03-.55-.71-1.23-.13-1.61.48-.31.56-.74.6-1.16.05-.52.16-1.77.16-1.77l-1.37-.12"/><path class="cls-3" d="m125.52,373.03l-1.37-.12s-.11,1.25-.16,1.77c-.04.42-.03.86.39,1.25.51.47-.34,1.01-.41,1.56-.07.55.7.59,1.1.62"/><path class="cls-3" d="m121.36,377.77c.4.04,1.16.13,1.19-.42.03-.55-.71-1.23-.13-1.61.48-.31.56-.74.6-1.16.05-.52.16-1.77.16-1.77l-1.37-.12"/><path class="cls-8" d="m121.8,372.7l-1.37-.12s-.11,1.25-.16,1.77c-.04.42-.03.86.39,1.25.51.47-.34,1.01-.41,1.56-.07.55.7.59,1.1.62"/><path class="cls-8" d="m117.65,377.44c.4.04,1.16.13,1.19-.42.03-.55-.71-1.23-.13-1.61.48-.31.56-.74.6-1.16.05-.52.16-1.77.16-1.77l-1.37-.12"/><path class="cls-3" d="m121.8,372.7l-1.37-.12s-.11,1.25-.16,1.77c-.04.42-.03.86.39,1.25.51.47-.34,1.01-.41,1.56-.07.55.7.59,1.1.62"/><path class="cls-3" d="m117.65,377.44c.4.04,1.16.13,1.19-.42.03-.55-.71-1.23-.13-1.61.48-.31.56-.74.6-1.16.05-.52.16-1.77.16-1.77l-1.37-.12"/><path class="cls-8" d="m118.09,372.37l-1.37-.12s-.11,1.25-.16,1.77c-.04.42-.03.86.39,1.25.51.47-.34,1.01-.41,1.56-.07.55.7.59,1.1.62"/><path class="cls-8" d="m113.93,377.11c.4.04,1.16.13,1.19-.42.03-.55-.71-1.23-.13-1.61.48-.31.56-.74.6-1.16.05-.52.16-1.77.16-1.77l-1.37-.12"/><path class="cls-3" d="m118.09,372.37l-1.37-.12s-.11,1.25-.16,1.77c-.04.42-.03.86.39,1.25.51.47-.34,1.01-.41,1.56-.07.55.7.59,1.1.62"/><path class="cls-3" d="m113.93,377.11c.4.04,1.16.13,1.19-.42.03-.55-.71-1.23-.13-1.61.48-.31.56-.74.6-1.16.05-.52.16-1.77.16-1.77l-1.37-.12"/><path class="cls-8" d="m114.38,372.04l-1.37-.12s-.11,1.25-.16,1.77c-.04.42-.03.86.39,1.25.51.47-.34,1.01-.41,1.56-.07.55.7.59,1.1.62"/><path class="cls-8" d="m110.22,376.78c.4.04,1.16.13,1.19-.42.03-.55-.71-1.23-.13-1.61.48-.31.56-.74.6-1.16.05-.52.16-1.77.16-1.77l-1.37-.12"/><path class="cls-3" d="m114.38,372.04l-1.37-.12s-.11,1.25-.16,1.77c-.04.42-.03.86.39,1.25.51.47-.34,1.01-.41,1.56-.07.55.7.59,1.1.62"/><path class="cls-3" d="m110.22,376.78c.4.04,1.16.13,1.19-.42.03-.55-.71-1.23-.13-1.61.48-.31.56-.74.6-1.16.05-.52.16-1.77.16-1.77l-1.37-.12"/><path class="cls-8" d="m110.67,371.71l-1.37-.12s-.11,1.25-.16,1.77c-.04.42-.03.86.39,1.25.51.47-.34,1.01-.41,1.56-.07.55.7.59,1.1.62"/><path class="cls-8" d="m106.51,376.45c.4.04,1.16.13,1.19-.42.03-.55-.71-1.23-.13-1.61.48-.31.56-.74.6-1.16.05-.52.16-1.77.16-1.77l-1.37-.12"/><path class="cls-3" d="m110.67,371.71l-1.37-.12s-.11,1.25-.16,1.77c-.04.42-.03.86.39,1.25.51.47-.34,1.01-.41,1.56-.07.55.7.59,1.1.62"/><path class="cls-3" d="m106.51,376.45c.4.04,1.16.13,1.19-.42.03-.55-.71-1.23-.13-1.61.48-.31.56-.74.6-1.16.05-.52.16-1.77.16-1.77l-1.37-.12"/><path class="cls-8" d="m106.96,371.38l-1.37-.12s-.11,1.25-.16,1.77c-.04.42-.03.86.39,1.25.51.47-.34,1.01-.41,1.56-.07.55.7.59,1.1.62"/><path class="cls-8" d="m102.8,376.12c.4.04,1.16.13,1.19-.42.03-.55-.71-1.23-.13-1.61.48-.31.56-.74.6-1.16.05-.52.16-1.77.16-1.77l-1.37-.12"/><path class="cls-3" d="m106.96,371.38l-1.37-.12s-.11,1.25-.16,1.77c-.04.42-.03.86.39,1.25.51.47-.34,1.01-.41,1.56-.07.55.7.59,1.1.62"/><path class="cls-3" d="m102.8,376.12c.4.04,1.16.13,1.19-.42.03-.55-.71-1.23-.13-1.61.48-.31.56-.74.6-1.16.05-.52.16-1.77.16-1.77l-1.37-.12"/><path class="cls-8" d="m103.24,371.05l-1.37-.12s-.11,1.25-.16,1.77c-.04.42-.03.86.39,1.25.51.47-.34,1.01-.41,1.56-.07.55.7.59,1.1.62"/><path class="cls-8" d="m99.09,375.79c.4.04,1.16.13,1.19-.42.03-.55-.71-1.23-.13-1.61.48-.31.56-.74.6-1.16.05-.52.16-1.77.16-1.77l-1.37-.12"/><path class="cls-3" d="m103.24,371.05l-1.37-.12s-.11,1.25-.16,1.77c-.04.42-.03.86.39,1.25.51.47-.34,1.01-.41,1.56-.07.55.7.59,1.1.62"/><path class="cls-3" d="m99.09,375.79c.4.04,1.16.13,1.19-.42.03-.55-.71-1.23-.13-1.61.48-.31.56-.74.6-1.16.05-.52.16-1.77.16-1.77l-1.37-.12"/><path class="cls-8" d="m99.53,370.72l-1.37-.12s-.11,1.25-.16,1.77c-.04.42-.03.86.39,1.25.51.47-.34,1.01-.41,1.56-.07.55.7.59,1.1.62"/><path class="cls-8" d="m95.38,375.46c.4.04,1.16.13,1.19-.42.03-.55-.71-1.23-.13-1.61.48-.31.56-.74.6-1.16.05-.52.16-1.77.16-1.77l-1.37-.12"/><path class="cls-3" d="m99.53,370.72l-1.37-.12s-.11,1.25-.16,1.77c-.04.42-.03.86.39,1.25.51.47-.34,1.01-.41,1.56-.07.55.7.59,1.1.62"/><path class="cls-3" d="m95.13,375.32c.4.07,1.15.2,1.21-.35.06-.55-.63-1.27-.03-1.61.5-.28.61-.7.67-1.12.08-.51.27-1.76.27-1.76l-1.36-.21"/><path class="cls-3" d="m95.23,375.33c-.4-.05-1.16-.13-1.07-.68.09-.54.96-1.04.48-1.54-.4-.41-.38-.84-.33-1.26.07-.51.24-1.76.24-1.76l1.36.19"/><path class="cls-3" d="m91.49,374.74c.4.06,1.16.18,1.21-.37.05-.55-.66-1.26-.06-1.61.49-.29.59-.71.65-1.14.07-.51.23-1.76.23-1.76l-1.37-.18"/><path class="cls-3" d="m91.6,374.75c-.4-.04-1.16-.11-1.08-.65.08-.54.94-1.06.45-1.55-.41-.4-.4-.83-.35-1.26.06-.51.2-1.76.2-1.76l1.37.16"/><path class="cls-3" d="m87.45,374.09c.39.08,1.15.23,1.22-.31.08-.55-.6-1.29.02-1.61.5-.27.62-.68.7-1.1.09-.51.31-1.75.31-1.75l-1.36-.24"/><path class="cls-3" d="m87.55,374.1c-.4-.06-1.16-.16-1.05-.7.11-.54.99-1.01.52-1.52-.39-.42-.36-.85-.29-1.27.08-.51.29-1.75.29-1.75l1.36.22"/><path class="cls-3" d="m83.44,373.35c.39.08,1.15.23,1.22-.31.08-.55-.6-1.29.02-1.61.5-.27.62-.68.7-1.1.09-.51.31-1.75.31-1.75l-1.36-.24"/><path class="cls-3" d="m83.54,373.36c-.4-.06-1.16-.16-1.05-.7.11-.54.99-1.01.52-1.52-.39-.42-.36-.85-.29-1.27.08-.51.29-1.75.29-1.75l1.36.22"/><path class="cls-3" d="m79.43,372.48c.39.09,1.14.27,1.23-.27.1-.54-.55-1.31.07-1.61.51-.25.65-.66.74-1.08.11-.51.37-1.74.37-1.74l-1.35-.29"/><path class="cls-3" d="m79.54,372.49c-.39-.07-1.15-.2-1.03-.74.13-.54,1.02-.98.57-1.51-.37-.43-.33-.86-.25-1.28.1-.51.35-1.74.35-1.74l1.35.27"/><path class="cls-3" d="m75.6,371.69c.39.09,1.14.27,1.23-.27.1-.54-.55-1.31.07-1.61.51-.25.65-.66.74-1.08.11-.51.37-1.74.37-1.74l-1.35-.29"/><path class="cls-3" d="m75.71,371.71c-.39-.07-1.15-.2-1.03-.74.13-.54,1.02-.98.57-1.51-.37-.43-.33-.86-.25-1.28.1-.51.35-1.74.35-1.74l1.35.27"/><path class="cls-3" d="m71.77,370.89c.39.09,1.14.27,1.23-.27.1-.54-.55-1.31.07-1.61.51-.25.65-.66.74-1.08.11-.51.37-1.74.37-1.74l-1.35-.29"/><path class="cls-3" d="m71.87,370.9c-.39-.07-1.15-.2-1.03-.74.13-.54,1.02-.98.57-1.51-.37-.43-.33-.86-.25-1.28.1-.51.35-1.74.35-1.74l1.35.27"/><path class="cls-3" d="m67.97,370.06c.39.09,1.14.27,1.23-.27.1-.54-.55-1.31.07-1.61.51-.25.65-.66.74-1.08.11-.51.37-1.74.37-1.74l-1.35-.29"/><path class="cls-3" d="m68.07,370.07c-.39-.07-1.15-.2-1.03-.74.13-.54,1.02-.98.57-1.51-.37-.43-.33-.86-.25-1.28.1-.51.35-1.74.35-1.74l1.35.27"/><path class="cls-3" d="m64.11,369.19c.39.09,1.14.27,1.23-.27.1-.54-.55-1.31.07-1.61.51-.25.65-.66.74-1.08.11-.51.37-1.74.37-1.74l-1.35-.29"/><path class="cls-3" d="m64.21,369.21c-.39-.07-1.15-.2-1.03-.74.13-.54,1.02-.98.57-1.51-.37-.43-.33-.86-.25-1.28.1-.51.35-1.74.35-1.74l1.35.27"/><path class="cls-3" d="m60.28,368.17c.39.1,1.13.31,1.24-.23.11-.54-.51-1.32.12-1.61.52-.23.67-.64.77-1.06.12-.5.42-1.72.42-1.72l-1.34-.33"/><path class="cls-3" d="m60.39,368.19c-.39-.09-1.14-.24-1-.77.14-.53,1.05-.95.62-1.49-.36-.44-.31-.87-.21-1.29.12-.5.4-1.73.4-1.73l1.34.31"/><path class="cls-3" d="m56.41,367.09c.38.11,1.12.34,1.25-.19.13-.53-.47-1.34.17-1.6.53-.21.69-.62.8-1.03.14-.5.48-1.71.48-1.71l-1.33-.37"/><path class="cls-3" d="m56.51,367.11c-.39-.1-1.14-.28-.98-.8.16-.53,1.09-.91.67-1.47-.34-.45-.28-.88-.17-1.3.13-.5.46-1.72.46-1.72l1.33.36"/><path class="cls-8" d="m140.13,379.22c.4,0,1.17.03,1.15-.52-.02-.55-.81-1.17-.26-1.59.45-.35.5-.78.5-1.21,0-.52.01-1.78.01-1.78h-1.38"/><path class="cls-8" d="m140.16,374.13h-1.38s0,1.25-.01,1.77c0,.42.04.86.49,1.21.54.43-.25,1.04-.28,1.59-.02.55.75.53,1.15.53"/><path class="cls-3" d="m140.13,379.22c.4,0,1.17.03,1.15-.52-.02-.55-.81-1.17-.26-1.59.45-.35.5-.78.5-1.21,0-.52.01-1.78.01-1.78h-1.38"/><path class="cls-3" d="m140.16,374.13h-1.38s0,1.25-.01,1.77c0,.42.04.86.49,1.21.54.43-.25,1.04-.28,1.59-.02.55.75.53,1.15.53"/><path class="cls-8" d="m143.89,379.27c.4,0,1.17.03,1.15-.52-.02-.55-.81-1.17-.26-1.59.45-.35.5-.78.5-1.21,0-.52.01-1.78.01-1.78h-1.38"/><path class="cls-8" d="m143.92,374.17h-1.38s0,1.25-.01,1.77c0,.42.04.86.49,1.21.54.43-.25,1.04-.28,1.59-.02.55.75.53,1.15.53"/><path class="cls-3" d="m143.89,379.27c.4,0,1.17.03,1.15-.52-.02-.55-.81-1.17-.26-1.59.45-.35.5-.78.5-1.21,0-.52.01-1.78.01-1.78h-1.38"/><path class="cls-3" d="m143.92,374.17h-1.38s0,1.25-.01,1.77c0,.42.04.86.49,1.21.54.43-.25,1.04-.28,1.59-.02.55.75.53,1.15.53"/><path class="cls-8" d="m147.52,379.31c.4,0,1.17.03,1.15-.52-.02-.55-.81-1.17-.26-1.59.45-.35.5-.78.5-1.21,0-.52.01-1.78.01-1.78h-1.38"/><path class="cls-8" d="m147.55,374.22h-1.38s0,1.25-.01,1.77c0,.42.04.86.49,1.21.54.43-.25,1.04-.28,1.59-.02.55.75.53,1.15.53"/><path class="cls-3" d="m147.52,379.31c.4,0,1.17.03,1.15-.52-.02-.55-.81-1.17-.26-1.59.45-.35.5-.78.5-1.21,0-.52.01-1.78.01-1.78h-1.38"/><path class="cls-3" d="m147.55,374.22h-1.38s0,1.25-.01,1.77c0,.42.04.86.49,1.21.54.43-.25,1.04-.28,1.59-.02.55.75.53,1.15.53"/><path class="cls-8" d="m151.27,379.29c.4,0,1.17.03,1.15-.52-.02-.55-.81-1.17-.26-1.59.45-.35.5-.78.5-1.21,0-.52.01-1.78.01-1.78h-1.38"/><path class="cls-8" d="m151.29,374.2h-1.38s0,1.25-.01,1.77c0,.42.04.86.49,1.21.54.43-.25,1.04-.28,1.59-.02.55.75.53,1.15.53"/><path class="cls-3" d="m151.27,379.29c.4,0,1.17.03,1.15-.52-.02-.55-.81-1.17-.26-1.59.45-.35.5-.78.5-1.21,0-.52.01-1.78.01-1.78h-1.38"/><path class="cls-3" d="m151.29,374.2h-1.38s0,1.25-.01,1.77c0,.42.04.86.49,1.21.54.43-.25,1.04-.28,1.59-.02.55.75.53,1.15.53"/><path class="cls-8" d="m154.95,379.25c.4,0,1.17.02,1.15-.53-.02-.55-.82-1.16-.27-1.59.45-.35.49-.79.49-1.21,0-.52,0-1.78,0-1.78h-1.38"/><path class="cls-8" d="m154.92,374.15h-1.38s0,1.26,0,1.78c0,.42.05.86.5,1.21.55.42-.24,1.04-.26,1.59-.02.55.75.53,1.15.52"/><path class="cls-3" d="m154.95,379.25c.4,0,1.17.02,1.15-.53-.02-.55-.82-1.16-.27-1.59.45-.35.49-.79.49-1.21,0-.52,0-1.78,0-1.78h-1.38"/><path class="cls-3" d="m154.92,374.15h-1.38s0,1.26,0,1.78c0,.42.05.86.5,1.21.55.42-.24,1.04-.26,1.59-.02.55.75.53,1.15.52"/><path class="cls-8" d="m158.69,379.11c.4,0,1.17,0,1.13-.56-.04-.55-.85-1.14-.32-1.58.44-.36.47-.8.46-1.22-.02-.52-.05-1.77-.05-1.77l-1.38.04"/><path class="cls-8" d="m158.53,374.02l-1.38.04s.04,1.26.05,1.77c.01.42.07.86.53,1.19.56.41-.22,1.04-.22,1.6,0,.55.76.51,1.16.49"/><path class="cls-3" d="m158.69,379.11c.4,0,1.17,0,1.13-.56-.04-.55-.85-1.14-.32-1.58.44-.36.47-.8.46-1.22-.02-.52-.05-1.77-.05-1.77l-1.38.04"/><path class="cls-3" d="m158.53,374.02l-1.38.04s.04,1.26.05,1.77c.01.42.07.86.53,1.19.56.41-.22,1.04-.22,1.6,0,.55.76.51,1.16.49"/><path class="cls-8" d="m162.48,378.91c.4,0,1.17,0,1.13-.56-.04-.55-.85-1.14-.32-1.58.44-.36.47-.8.46-1.22-.02-.52-.05-1.77-.05-1.77l-1.38.04"/><path class="cls-8" d="m162.32,373.82l-1.38.04s.04,1.26.05,1.77c.01.42.07.86.53,1.19.56.41-.22,1.04-.22,1.6,0,.55.76.51,1.16.49"/><path class="cls-3" d="m162.48,378.91c.4,0,1.17,0,1.13-.56-.04-.55-.85-1.14-.32-1.58.44-.36.47-.8.46-1.22-.02-.52-.05-1.77-.05-1.77l-1.38.04"/><path class="cls-3" d="m162.32,373.82l-1.38.04s.04,1.26.05,1.77c.01.42.07.86.53,1.19.56.41-.22,1.04-.22,1.6,0,.55.76.51,1.16.49"/><path class="cls-8" d="m166.25,378.76c.4-.01,1.17-.03,1.12-.58-.04-.55-.87-1.12-.34-1.57.43-.37.46-.81.44-1.23-.02-.52-.08-1.77-.08-1.77l-1.38.06"/><path class="cls-8" d="m166,373.67l-1.38.06s.06,1.26.08,1.77c.02.42.09.86.55,1.18.57.4-.2,1.05-.19,1.6,0,.55.77.49,1.17.47"/><path class="cls-3" d="m166.25,378.76c.4-.01,1.17-.03,1.12-.58-.04-.55-.87-1.12-.34-1.57.43-.37.46-.81.44-1.23-.02-.52-.08-1.77-.08-1.77l-1.38.06"/><path class="cls-3" d="m166,373.67l-1.38.06s.06,1.26.08,1.77c.02.42.09.86.55,1.18.57.4-.2,1.05-.19,1.6,0,.55.77.49,1.17.47"/><path class="cls-8" d="m170.01,378.45c.4-.01,1.17-.03,1.12-.58-.04-.55-.87-1.12-.34-1.57.43-.37.46-.81.44-1.23-.02-.52-.08-1.77-.08-1.77l-1.38.06"/><path class="cls-8" d="m169.77,373.36l-1.38.06s.06,1.26.08,1.77c.02.42.09.86.55,1.18.57.4-.2,1.05-.19,1.6,0,.55.77.49,1.17.47"/><path class="cls-3" d="m170.01,378.45c.4-.01,1.17-.03,1.12-.58-.04-.55-.87-1.12-.34-1.57.43-.37.46-.81.44-1.23-.02-.52-.08-1.77-.08-1.77l-1.38.06"/><path class="cls-3" d="m169.77,373.36l-1.38.06s.06,1.26.08,1.77c.02.42.09.86.55,1.18.57.4-.2,1.05-.19,1.6,0,.55.77.49,1.17.47"/><path class="cls-8" d="m173.78,378.18c.4-.01,1.17-.03,1.12-.58-.04-.55-.87-1.12-.34-1.57.43-.37.46-.81.44-1.23-.02-.52-.08-1.77-.08-1.77l-1.38.06"/><path class="cls-8" d="m173.53,373.09l-1.38.06s.06,1.26.08,1.77c.02.42.09.86.55,1.18.57.4-.2,1.05-.19,1.6,0,.55.77.49,1.17.47"/><path class="cls-3" d="m173.78,378.18c.4-.01,1.17-.03,1.12-.58-.04-.55-.87-1.12-.34-1.57.43-.37.46-.81.44-1.23-.02-.52-.08-1.77-.08-1.77l-1.38.06"/><path class="cls-3" d="m173.53,373.09l-1.38.06s.06,1.26.08,1.77c.02.42.09.86.55,1.18.57.4-.2,1.05-.19,1.6,0,.55.77.49,1.17.47"/><path class="cls-8" d="m177.49,377.8c.4-.01,1.17-.03,1.12-.58-.04-.55-.87-1.12-.34-1.57.43-.37.46-.81.44-1.23-.02-.52-.08-1.77-.08-1.77l-1.38.06"/><path class="cls-8" d="m177.25,372.71l-1.38.06s.06,1.26.08,1.77c.02.42.09.86.55,1.18.57.4-.2,1.05-.19,1.6,0,.55.77.49,1.17.47"/><path class="cls-3" d="m177.49,377.8c.4-.01,1.17-.03,1.12-.58-.04-.55-.87-1.12-.34-1.57.43-.37.46-.81.44-1.23-.02-.52-.08-1.77-.08-1.77l-1.38.06"/><path class="cls-3" d="m177.25,372.71l-1.38.06s.06,1.26.08,1.77c.02.42.09.86.55,1.18.57.4-.2,1.05-.19,1.6,0,.55.77.49,1.17.47"/><path class="cls-8" d="m181.37,377.44c.4-.02,1.17-.06,1.11-.61-.06-.55-.9-1.1-.38-1.56.42-.38.44-.82.4-1.24-.04-.52-.13-1.77-.13-1.77l-1.37.1"/><path class="cls-8" d="m180.99,372.36l-1.37.1s.09,1.26.13,1.77c.03.42.11.85.58,1.17.58.38-.17,1.05-.15,1.6.02.55.79.47,1.19.44"/><path class="cls-3" d="m181.37,377.44c.4-.02,1.17-.06,1.11-.61-.06-.55-.9-1.1-.38-1.56.42-.38.44-.82.4-1.24-.04-.52-.13-1.77-.13-1.77l-1.37.1"/><path class="cls-3" d="m180.99,372.36l-1.37.1s.09,1.26.13,1.77c.03.42.11.85.58,1.17.58.38-.17,1.05-.15,1.6.02.55.79.47,1.19.44"/><path class="cls-8" d="m185.08,377.04c.4-.03,1.17-.08,1.1-.62-.07-.55-.91-1.08-.41-1.56.42-.39.42-.82.38-1.25-.05-.52-.16-1.77-.16-1.77l-1.37.12"/><path class="cls-8" d="m184.62,371.96l-1.37.12s.11,1.25.16,1.77c.04.42.12.85.6,1.16.58.38-.15,1.06-.12,1.61.03.55.79.46,1.19.42"/><path class="cls-3" d="m185.08,377.04c.4-.03,1.17-.08,1.1-.62-.07-.55-.91-1.08-.41-1.56.42-.39.42-.82.38-1.25-.05-.52-.16-1.77-.16-1.77l-1.37.12"/><path class="cls-3" d="m184.62,371.96l-1.37.12s.11,1.25.16,1.77c.04.42.12.85.6,1.16.58.38-.15,1.06-.12,1.61.03.55.79.46,1.19.42"/><path class="cls-8" d="m188.74,376.53c.4-.03,1.17-.08,1.1-.62-.07-.55-.91-1.08-.41-1.56.42-.39.42-.82.38-1.25-.05-.52-.16-1.77-.16-1.77l-1.37.12"/><path class="cls-8" d="m188.27,371.45l-1.37.12s.11,1.25.16,1.77c.04.42.12.85.6,1.16.58.38-.15,1.06-.12,1.61.03.55.79.46,1.19.42"/><path class="cls-3" d="m188.74,376.53c.4-.03,1.17-.08,1.1-.62-.07-.55-.91-1.08-.41-1.56.42-.39.42-.82.38-1.25-.05-.52-.16-1.77-.16-1.77l-1.37.12"/><path class="cls-3" d="m188.27,371.45l-1.37.12s.11,1.25.16,1.77c.04.42.12.85.6,1.16.58.38-.15,1.06-.12,1.61.03.55.79.46,1.19.42"/><path class="cls-8" d="m192.46,376.08c.4-.03,1.17-.08,1.1-.62-.07-.55-.91-1.08-.41-1.56.42-.39.42-.82.38-1.25-.05-.52-.16-1.77-.16-1.77l-1.37.12"/><path class="cls-8" d="m191.99,371.01l-1.37.12s.11,1.25.16,1.77c.04.42.12.85.6,1.16.58.38-.15,1.06-.12,1.61.03.55.79.46,1.19.42"/><path class="cls-3" d="m192.46,376.08c.4-.03,1.17-.08,1.1-.62-.07-.55-.91-1.08-.41-1.56.42-.39.42-.82.38-1.25-.05-.52-.16-1.77-.16-1.77l-1.37.12"/><path class="cls-3" d="m191.99,371.01l-1.37.12s.11,1.25.16,1.77c.04.42.12.85.6,1.16.58.38-.15,1.06-.12,1.61.03.55.79.46,1.19.42"/><path class="cls-8" d="m196.27,375.59c.4-.04,1.17-.09,1.09-.64-.07-.55-.93-1.07-.43-1.55.41-.39.41-.83.37-1.25-.05-.51-.18-1.77-.18-1.77l-1.37.14"/><path class="cls-8" d="m195.75,370.52l-1.37.14s.13,1.25.18,1.77c.04.42.13.85.61,1.15.59.37-.14,1.06-.11,1.61.04.55.8.45,1.2.41"/><path class="cls-3" d="m196.27,375.59c.4-.04,1.17-.09,1.09-.64-.07-.55-.93-1.07-.43-1.55.41-.39.41-.83.37-1.25-.05-.51-.18-1.77-.18-1.77l-1.37.14"/><path class="cls-3" d="m195.75,370.52l-1.37.14s.13,1.25.18,1.77c.04.42.13.85.61,1.15.59.37-.14,1.06-.11,1.61.04.55.8.45,1.2.41"/><path class="cls-8" d="m200.18,374.95c.4-.05,1.16-.14,1.07-.68-.1-.54-.97-1.04-.48-1.54.4-.41.38-.84.32-1.27-.07-.51-.25-1.76-.25-1.76l-1.36.19"/><path class="cls-8" d="m199.47,369.91l-1.36.19s.17,1.25.25,1.76c.06.42.17.84.66,1.13.6.35-.1,1.06-.04,1.61.06.55.81.42,1.21.36"/><path class="cls-3" d="m200.18,374.95c.4-.05,1.16-.14,1.07-.68-.1-.54-.97-1.04-.48-1.54.4-.41.38-.84.32-1.27-.07-.51-.25-1.76-.25-1.76l-1.36.19"/><path class="cls-3" d="m199.47,369.91l-1.36.19s.17,1.25.25,1.76c.06.42.17.84.66,1.13.6.35-.1,1.06-.04,1.61.06.55.81.42,1.21.36"/><path class="cls-8" d="m203.85,374.35c.4-.05,1.16-.14,1.07-.68-.1-.54-.97-1.04-.48-1.54.4-.41.38-.84.32-1.27-.07-.51-.25-1.76-.25-1.76l-1.36.19"/><path class="cls-8" d="m203.14,369.3l-1.36.19s.17,1.25.25,1.76c.06.42.17.84.66,1.13.6.35-.1,1.06-.04,1.61.06.55.81.42,1.21.36"/><path class="cls-3" d="m203.85,374.35c.4-.05,1.16-.14,1.07-.68-.1-.54-.97-1.04-.48-1.54.4-.41.38-.84.32-1.27-.07-.51-.25-1.76-.25-1.76l-1.36.19"/><path class="cls-3" d="m203.14,369.3l-1.36.19s.17,1.25.25,1.76c.06.42.17.84.66,1.13.6.35-.1,1.06-.04,1.61.06.55.81.42,1.21.36"/><path class="cls-8" d="m207.67,373.75c.4-.06,1.16-.16,1.05-.7-.1-.54-.98-1.02-.51-1.53.39-.41.37-.85.3-1.27-.08-.51-.28-1.75-.28-1.75l-1.36.21"/><path class="cls-8" d="m206.87,368.72l-1.36.21s.2,1.24.28,1.75c.07.42.18.84.68,1.12.61.34-.08,1.06-.02,1.61.07.55.82.41,1.22.34"/><path class="cls-3" d="m207.67,373.75c.4-.06,1.16-.16,1.05-.7-.1-.54-.98-1.02-.51-1.53.39-.41.37-.85.3-1.27-.08-.51-.28-1.75-.28-1.75l-1.36.21"/><path class="cls-3" d="m206.87,368.72l-1.36.21s.2,1.24.28,1.75c.07.42.18.84.68,1.12.61.34-.08,1.06-.02,1.61.07.55.82.41,1.22.34"/><path class="cls-8" d="m211.35,373.01c.4-.06,1.16-.16,1.05-.7-.1-.54-.98-1.02-.51-1.53.39-.41.37-.85.3-1.27-.08-.51-.28-1.75-.28-1.75l-1.36.21"/><path class="cls-8" d="m210.55,367.98l-1.36.21s.2,1.24.28,1.75c.07.42.18.84.68,1.12.61.34-.08,1.06-.02,1.61.07.55.82.41,1.22.34"/><path class="cls-3" d="m211.35,373.01c.4-.06,1.16-.16,1.05-.7-.1-.54-.98-1.02-.51-1.53.39-.41.37-.85.3-1.27-.08-.51-.28-1.75-.28-1.75l-1.36.21"/><path class="cls-3" d="m210.55,367.98l-1.36.21s.2,1.24.28,1.75c.07.42.18.84.68,1.12.61.34-.08,1.06-.02,1.61.07.55.82.41,1.22.34"/><path class="cls-8" d="m214.91,372.24c.4-.06,1.16-.16,1.05-.7-.1-.54-.98-1.02-.51-1.53.39-.41.37-.85.3-1.27-.08-.51-.28-1.75-.28-1.75l-1.36.21"/><path class="cls-8" d="m214.11,367.21l-1.36.21s.2,1.24.28,1.75c.07.42.18.84.68,1.12.61.34-.08,1.06-.02,1.61.07.55.82.41,1.22.34"/><path class="cls-3" d="m214.91,372.24c.4-.06,1.16-.16,1.05-.7-.1-.54-.98-1.02-.51-1.53.39-.41.37-.85.3-1.27-.08-.51-.28-1.75-.28-1.75l-1.36.21"/><path class="cls-3" d="m214.11,367.21l-1.36.21s.2,1.24.28,1.75c.07.42.18.84.68,1.12.61.34-.08,1.06-.02,1.61.07.55.82.41,1.22.34"/><path class="cls-8" d="m218.61,371.44c.4-.06,1.16-.16,1.05-.7-.1-.54-.98-1.02-.51-1.53.39-.41.37-.85.3-1.27-.08-.51-.28-1.75-.28-1.75l-1.36.21"/><path class="cls-8" d="m217.81,366.41l-1.36.21s.2,1.24.28,1.75c.07.42.18.84.68,1.12.61.34-.08,1.06-.02,1.61.07.55.82.41,1.22.34"/><path class="cls-3" d="m218.61,371.44c.4-.06,1.16-.16,1.05-.7-.1-.54-.98-1.02-.51-1.53.39-.41.37-.85.3-1.27-.08-.51-.28-1.75-.28-1.75l-1.36.21"/><path class="cls-3" d="m217.81,366.41l-1.36.21s.2,1.24.28,1.75c.07.42.18.84.68,1.12.61.34-.08,1.06-.02,1.61.07.55.82.41,1.22.34"/><path class="cls-8" d="m222.52,370.64c.39-.07,1.15-.21,1.02-.74-.13-.54-1.03-.98-.58-1.5.37-.43.33-.87.25-1.28-.1-.51-.35-1.74-.35-1.74l-1.35.27"/><path class="cls-8" d="m221.51,365.65l-1.35.27s.25,1.23.35,1.74c.08.42.22.83.72,1.09.62.31-.04,1.07.05,1.61.09.54.84.37,1.23.29"/><path class="cls-3" d="m222.52,370.64c.39-.07,1.15-.21,1.02-.74-.13-.54-1.03-.98-.58-1.5.37-.43.33-.87.25-1.28-.1-.51-.35-1.74-.35-1.74l-1.35.27"/><path class="cls-3" d="m221.51,365.65l-1.35.27s.25,1.23.35,1.74c.08.42.22.83.72,1.09.62.31-.04,1.07.05,1.61.09.54.84.37,1.23.29"/><path class="cls-8" d="m226.11,369.77c.39-.07,1.15-.21,1.02-.74-.13-.54-1.03-.98-.58-1.5.37-.43.33-.87.25-1.28-.1-.51-.35-1.74-.35-1.74l-1.35.27"/><path class="cls-8" d="m225.1,364.78l-1.35.27s.25,1.23.35,1.74c.08.42.22.83.72,1.09.62.31-.04,1.07.05,1.61.09.54.84.37,1.23.29"/><path class="cls-3" d="m226.11,369.77c.39-.07,1.15-.21,1.02-.74-.13-.54-1.03-.98-.58-1.5.37-.43.33-.87.25-1.28-.1-.51-.35-1.74-.35-1.74l-1.35.27"/><path class="cls-3" d="m225.1,364.78l-1.35.27s.25,1.23.35,1.74c.08.42.22.83.72,1.09.62.31-.04,1.07.05,1.61.09.54.84.37,1.23.29"/><path class="cls-8" d="m229.68,368.79c.39-.08,1.15-.22,1.02-.75-.13-.53-1.04-.97-.59-1.5.37-.44.32-.87.23-1.29-.11-.51-.37-1.74-.37-1.74l-1.35.29"/><path class="cls-8" d="m228.61,363.8l-1.35.29s.26,1.23.37,1.74c.09.42.22.83.74,1.08.62.3-.03,1.07.07,1.61.1.54.84.36,1.23.27"/><path class="cls-3" d="m229.68,368.79c.39-.08,1.15-.22,1.02-.75-.13-.53-1.04-.97-.59-1.5.37-.44.32-.87.23-1.29-.11-.51-.37-1.74-.37-1.74l-1.35.29"/><path class="cls-3" d="m228.61,363.8l-1.35.29s.26,1.23.37,1.74c.09.42.22.83.74,1.08.62.3-.03,1.07.07,1.61.1.54.84.36,1.23.27"/><path class="cls-8" d="m233.38,367.96c.39-.08,1.15-.22,1.02-.75-.13-.53-1.04-.97-.59-1.5.37-.44.32-.87.23-1.29-.11-.51-.37-1.74-.37-1.74l-1.35.29"/><path class="cls-8" d="m232.31,362.98l-1.35.29s.26,1.23.37,1.74c.09.42.22.83.74,1.08.62.3-.03,1.07.07,1.61.1.54.84.36,1.23.27"/><path class="cls-3" d="m233.38,367.96c.39-.08,1.15-.22,1.02-.75-.13-.53-1.04-.97-.59-1.5.37-.44.32-.87.23-1.29-.11-.51-.37-1.74-.37-1.74l-1.35.29"/><path class="cls-3" d="m232.31,362.98l-1.35.29s.26,1.23.37,1.74c.09.42.22.83.74,1.08.62.3-.03,1.07.07,1.61.1.54.84.36,1.23.27"/><path class="cls-8" d="m236.99,367c.39-.08,1.15-.22,1.02-.75-.13-.53-1.04-.97-.59-1.5.37-.44.32-.87.23-1.29-.11-.51-.37-1.74-.37-1.74l-1.35.29"/><path class="cls-8" d="m235.92,362.02l-1.35.29s.26,1.23.37,1.74c.09.42.22.83.74,1.08.62.3-.03,1.07.07,1.61.1.54.84.36,1.23.27"/><path class="cls-3" d="m236.99,367c.39-.08,1.15-.22,1.02-.75-.13-.53-1.04-.97-.59-1.5.37-.44.32-.87.23-1.29-.11-.51-.37-1.74-.37-1.74l-1.35.29"/><path class="cls-3" d="m235.92,362.02l-1.35.29s.26,1.23.37,1.74c.09.42.22.83.74,1.08.62.3-.03,1.07.07,1.61.1.54.84.36,1.23.27"/><path class="cls-8" d="m240.88,365.87c.39-.09,1.14-.27.98-.79-.16-.53-1.08-.92-.65-1.47.35-.45.28-.88.18-1.29-.13-.5-.44-1.72-.44-1.72l-1.33.34"/><path class="cls-8" d="m239.6,360.93l-1.33.34s.31,1.22.44,1.72c.11.41.26.82.78,1.05.64.28.02,1.07.14,1.6.12.54.86.33,1.24.22"/><path class="cls-3" d="m240.88,365.87c.39-.09,1.14-.27.98-.79-.16-.53-1.08-.92-.65-1.47.35-.45.28-.88.18-1.29-.13-.5-.44-1.72-.44-1.72l-1.33.34"/><path class="cls-3" d="m239.6,360.93l-1.33.34s.31,1.22.44,1.72c.11.41.26.82.78,1.05.64.28.02,1.07.14,1.6.12.54.86.33,1.24.22"/><path class="cls-8" d="m244.44,364.89c.39-.09,1.14-.27.98-.79-.16-.53-1.08-.92-.65-1.47.35-.45.28-.88.18-1.29-.13-.5-.44-1.72-.44-1.72l-1.33.34"/><path class="cls-8" d="m243.17,359.95l-1.33.34s.31,1.22.44,1.72c.11.41.26.82.78,1.05.64.28.02,1.07.14,1.6.12.54.86.33,1.24.22"/><path class="cls-3" d="m244.44,364.89c.39-.09,1.14-.27.98-.79-.16-.53-1.08-.92-.65-1.47.35-.45.28-.88.18-1.29-.13-.5-.44-1.72-.44-1.72l-1.33.34"/><path class="cls-3" d="m243.17,359.95l-1.33.34s.31,1.22.44,1.72c.11.41.26.82.78,1.05.64.28.02,1.07.14,1.6.12.54.86.33,1.24.22"/><path class="cls-8" d="m248.15,363.71c.39-.1,1.13-.29.97-.81-.17-.53-1.1-.9-.68-1.46.34-.46.27-.89.15-1.3-.14-.5-.48-1.71-.48-1.71l-1.33.37"/><path class="cls-8" d="m246.77,358.81l-1.33.37s.34,1.21.48,1.71c.11.41.28.81.8,1.03.64.26.04,1.07.17,1.6.13.54.86.31,1.25.2"/><path class="cls-3" d="m248.15,363.71c.39-.1,1.13-.29.97-.81-.17-.53-1.1-.9-.68-1.46.34-.46.27-.89.15-1.3-.14-.5-.48-1.71-.48-1.71l-1.33.37"/><path class="cls-3" d="m246.77,358.81l-1.33.37s.34,1.21.48,1.71c.11.41.28.81.8,1.03.64.26.04,1.07.17,1.6.13.54.86.31,1.25.2"/><path class="cls-8" d="m251.8,362.57c.39-.11,1.13-.3.96-.82-.17-.52-1.1-.89-.7-1.45.33-.46.26-.89.14-1.3-.14-.5-.49-1.71-.49-1.71l-1.32.38"/><path class="cls-8" d="m250.38,357.68l-1.32.38s.35,1.21.49,1.71c.12.41.28.81.81,1.02.64.26.05,1.07.19,1.6.13.53.87.3,1.25.18"/><path class="cls-3" d="m251.8,362.57c.39-.11,1.13-.3.96-.82-.17-.52-1.1-.89-.7-1.45.33-.46.26-.89.14-1.3-.14-.5-.49-1.71-.49-1.71l-1.32.38"/><path class="cls-3" d="m250.38,357.68l-1.32.38s.35,1.21.49,1.71c.12.41.28.81.81,1.02.64.26.05,1.07.19,1.6.13.53.87.3,1.25.18"/><path class="cls-8" d="m255.32,361.32c.39-.11,1.13-.31.95-.83-.18-.52-1.11-.88-.71-1.44.33-.46.25-.89.13-1.3-.15-.5-.51-1.7-.51-1.7l-1.32.4"/><path class="cls-8" d="m253.85,356.44l-1.32.4s.36,1.21.51,1.7c.12.41.29.81.82,1.02.65.25.06,1.06.2,1.6.14.53.87.29,1.25.17"/><path class="cls-3" d="m255.32,361.32c.39-.11,1.13-.31.95-.83-.18-.52-1.11-.88-.71-1.44.33-.46.25-.89.13-1.3-.15-.5-.51-1.7-.51-1.7l-1.32.4"/><path class="cls-3" d="m253.85,356.44l-1.32.4s.36,1.21.51,1.7c.12.41.29.81.82,1.02.65.25.06,1.06.2,1.6.14.53.87.29,1.25.17"/><path class="cls-8" d="m258.91,360.11c.39-.11,1.13-.31.95-.83-.18-.52-1.11-.88-.71-1.44.33-.46.25-.89.13-1.3-.15-.5-.51-1.7-.51-1.7l-1.32.4"/><path class="cls-8" d="m257.44,355.23l-1.32.4s.36,1.21.51,1.7c.12.41.29.81.82,1.02.65.25.06,1.06.2,1.6.14.53.87.29,1.25.17"/><path class="cls-3" d="m258.91,360.11c.39-.11,1.13-.31.95-.83-.18-.52-1.11-.88-.71-1.44.33-.46.25-.89.13-1.3-.15-.5-.51-1.7-.51-1.7l-1.32.4"/><path class="cls-3" d="m257.44,355.23l-1.32.4s.36,1.21.51,1.7c.12.41.29.81.82,1.02.65.25.06,1.06.2,1.6.14.53.87.29,1.25.17"/><path class="cls-8" d="m262.79,358.73c.39-.11,1.13-.31.95-.83-.18-.52-1.11-.88-.71-1.44.33-.46.25-.89.13-1.3-.15-.5-.51-1.7-.51-1.7l-1.32.4"/><path class="cls-8" d="m261.31,353.85l-1.32.4s.36,1.21.51,1.7c.12.41.29.81.82,1.02.65.25.06,1.06.2,1.6.14.53.87.29,1.25.17"/><path class="cls-3" d="m262.79,358.73c.39-.11,1.13-.31.95-.83-.18-.52-1.11-.88-.71-1.44.33-.46.25-.89.13-1.3-.15-.5-.51-1.7-.51-1.7l-1.32.4"/><path class="cls-3" d="m261.31,353.85l-1.32.4s.36,1.21.51,1.7c.12.41.29.81.82,1.02.65.25.06,1.06.2,1.6.14.53.87.29,1.25.17"/><path class="cls-8" d="m266.35,357.44c.39-.11,1.13-.31.95-.83-.18-.52-1.11-.88-.71-1.44.33-.46.25-.89.13-1.3-.15-.5-.51-1.7-.51-1.7l-1.32.4"/><path class="cls-8" d="m264.88,352.56l-1.32.4s.36,1.21.51,1.7c.12.41.29.81.82,1.02.65.25.06,1.06.2,1.6.14.53.87.29,1.25.17"/><path class="cls-3" d="m266.35,357.44c.39-.11,1.13-.31.95-.83-.18-.52-1.11-.88-.71-1.44.33-.46.25-.89.13-1.3-.15-.5-.51-1.7-.51-1.7l-1.32.4"/><path class="cls-3" d="m264.88,352.56l-1.32.4s.36,1.21.51,1.7c.12.41.29.81.82,1.02.65.25.06,1.06.2,1.6.14.53.87.29,1.25.17"/><path class="cls-8" d="m269.65,356.01c.39-.11,1.13-.31.95-.83-.18-.52-1.11-.88-.71-1.44.33-.46.25-.89.13-1.3-.15-.5-.51-1.7-.51-1.7l-1.32.4"/><path class="cls-8" d="m268.18,351.14l-1.32.4s.36,1.21.51,1.7c.12.41.29.81.82,1.02.65.25.06,1.06.2,1.6.14.53.87.29,1.25.17"/><path class="cls-3" d="m269.65,356.01c.39-.11,1.13-.31.95-.83-.18-.52-1.11-.88-.71-1.44.33-.46.25-.89.13-1.3-.15-.5-.51-1.7-.51-1.7l-1.32.4"/><path class="cls-3" d="m268.18,351.14l-1.32.4s.36,1.21.51,1.7c.12.41.29.81.82,1.02.65.25.06,1.06.2,1.6.14.53.87.29,1.25.17"/><path class="cls-3" d="m136.06,379.09c.4.04,1.16.13,1.19-.42.03-.55-.71-1.23-.13-1.61.48-.31.56-.74.6-1.16.05-.52.16-1.77.16-1.77l-1.37-.12"/><path class="cls-3" d="m136.51,374.01l-1.37-.12s-.11,1.25-.16,1.77c-.04.42-.03.86.39,1.25.51.47-.34,1.01-.41,1.56-.07.55.7.59,1.1.62"/><path class="cls-3" d="m132.35,378.76c.4.04,1.16.13,1.19-.42.03-.55-.71-1.23-.13-1.61.48-.31.56-.74.6-1.16.05-.52.16-1.77.16-1.77l-1.37-.12"/><path class="cls-8" d="m420.05,374.46l1.37-.11s.1,1.25.14,1.77c.03.42.02.86-.4,1.24-.51.47.33,1.01.39,1.56.06.55-.7.59-1.1.61"/><path class="cls-8" d="m424.17,379.24c-.4.04-1.16.12-1.19-.43-.03-.55.72-1.22.14-1.6-.47-.31-.56-.74-.59-1.16-.04-.52-.14-1.77-.14-1.77l1.37-.11"/><path class="cls-3" d="m420.05,374.46l1.37-.11s.1,1.25.14,1.77c.03.42.02.86-.4,1.24-.51.47.33,1.01.39,1.56.06.55-.7.59-1.1.61"/><path class="cls-3" d="m424.17,379.24c-.4.04-1.16.12-1.19-.43-.03-.55.72-1.22.14-1.6-.47-.31-.56-.74-.59-1.16-.04-.52-.14-1.77-.14-1.77l1.37-.11"/><path class="cls-8" d="m423.76,374.16l1.37-.11s.1,1.25.14,1.77c.03.42.02.86-.4,1.24-.51.47.33,1.01.39,1.56.06.55-.7.59-1.1.61"/><path class="cls-8" d="m427.88,378.94c-.4.04-1.16.12-1.19-.43-.03-.55.72-1.22.14-1.6-.47-.31-.56-.74-.59-1.16-.04-.52-.14-1.77-.14-1.77l1.37-.11"/><path class="cls-3" d="m423.76,374.16l1.37-.11s.1,1.25.14,1.77c.03.42.02.86-.4,1.24-.51.47.33,1.01.39,1.56.06.55-.7.59-1.1.61"/><path class="cls-3" d="m427.88,378.94c-.4.04-1.16.12-1.19-.43-.03-.55.72-1.22.14-1.6-.47-.31-.56-.74-.59-1.16-.04-.52-.14-1.77-.14-1.77l1.37-.11"/><path class="cls-8" d="m427.48,373.86l1.37-.11s.1,1.25.14,1.77c.03.42.02.86-.4,1.24-.51.47.33,1.01.39,1.56.06.55-.7.59-1.1.61"/><path class="cls-8" d="m431.59,378.64c-.4.04-1.16.12-1.19-.43-.03-.55.72-1.22.14-1.6-.48-.31-.56-.74-.59-1.16-.04-.52-.14-1.77-.14-1.77l1.37-.11"/><path class="cls-3" d="m427.48,373.86l1.37-.11s.1,1.25.14,1.77c.03.42.02.86-.4,1.24-.51.47.33,1.01.39,1.56.06.55-.7.59-1.1.61"/><path class="cls-3" d="m431.59,378.64c-.4.04-1.16.12-1.19-.43-.03-.55.72-1.22.14-1.6-.48-.31-.56-.74-.59-1.16-.04-.52-.14-1.77-.14-1.77l1.37-.11"/><path class="cls-8" d="m431.19,373.56l1.37-.11s.1,1.25.14,1.77c.03.42.02.86-.4,1.24-.51.47.33,1.01.39,1.56.06.55-.7.59-1.1.61"/><path class="cls-8" d="m435.31,378.34c-.4.04-1.16.12-1.19-.43-.03-.55.72-1.22.14-1.6-.47-.31-.56-.74-.59-1.16-.04-.52-.14-1.77-.14-1.77l1.37-.11"/><path class="cls-3" d="m431.19,373.56l1.37-.11s.1,1.25.14,1.77c.03.42.02.86-.4,1.24-.51.47.33,1.01.39,1.56.06.55-.7.59-1.1.61"/><path class="cls-3" d="m435.31,378.34c-.4.04-1.16.12-1.19-.43-.03-.55.72-1.22.14-1.6-.47-.31-.56-.74-.59-1.16-.04-.52-.14-1.77-.14-1.77l1.37-.11"/><path class="cls-8" d="m434.91,373.26l1.37-.11s.1,1.25.14,1.77c.03.42.02.86-.4,1.24-.51.47.33,1.01.39,1.56.06.55-.7.59-1.1.61"/><path class="cls-8" d="m439.02,378.04c-.4.04-1.16.12-1.19-.43-.03-.55.72-1.22.14-1.6-.47-.31-.56-.74-.59-1.16-.04-.52-.14-1.77-.14-1.77l1.37-.11"/><path class="cls-3" d="m434.91,373.26l1.37-.11s.1,1.25.14,1.77c.03.42.02.86-.4,1.24-.51.47.33,1.01.39,1.56.06.55-.7.59-1.1.61"/><path class="cls-3" d="m439.02,378.04c-.4.04-1.16.12-1.19-.43-.03-.55.72-1.22.14-1.6-.47-.31-.56-.74-.59-1.16-.04-.52-.14-1.77-.14-1.77l1.37-.11"/><path class="cls-8" d="m438.62,372.96l1.37-.11s.1,1.25.14,1.77c.03.42.02.86-.4,1.24-.51.47.33,1.01.39,1.56.06.55-.7.59-1.1.61"/><path class="cls-8" d="m442.74,377.74c-.4.04-1.16.12-1.19-.43-.03-.55.72-1.22.14-1.6-.47-.31-.56-.74-.59-1.16-.04-.52-.14-1.77-.14-1.77l1.37-.11"/><path class="cls-3" d="m438.62,372.96l1.37-.11s.1,1.25.14,1.77c.03.42.02.86-.4,1.24-.51.47.33,1.01.39,1.56.06.55-.7.59-1.1.61"/><path class="cls-3" d="m442.74,377.74c-.4.04-1.16.12-1.19-.43-.03-.55.72-1.22.14-1.6-.47-.31-.56-.74-.59-1.16-.04-.52-.14-1.77-.14-1.77l1.37-.11"/><path class="cls-8" d="m442.33,372.66l1.37-.11s.1,1.25.14,1.77c.03.42.02.86-.4,1.24-.51.47.33,1.01.39,1.56.06.55-.7.59-1.1.61"/><path class="cls-8" d="m446.45,377.45c-.4.04-1.16.12-1.19-.43-.03-.55.72-1.22.14-1.6-.47-.31-.56-.74-.59-1.16-.04-.52-.14-1.77-.14-1.77l1.37-.11"/><path class="cls-3" d="m442.33,372.66l1.37-.11s.1,1.25.14,1.77c.03.42.02.86-.4,1.24-.51.47.33,1.01.39,1.56.06.55-.7.59-1.1.61"/><path class="cls-3" d="m446.45,377.45c-.4.04-1.16.12-1.19-.43-.03-.55.72-1.22.14-1.6-.47-.31-.56-.74-.59-1.16-.04-.52-.14-1.77-.14-1.77l1.37-.11"/><path class="cls-8" d="m446.05,372.37l1.37-.11s.1,1.25.14,1.77c.03.42.02.86-.4,1.24-.51.47.33,1.01.39,1.56.06.55-.7.59-1.1.61"/><path class="cls-8" d="m450.17,377.15c-.4.04-1.16.12-1.19-.43-.03-.55.72-1.22.14-1.6-.48-.31-.56-.74-.59-1.16-.04-.52-.14-1.77-.14-1.77l1.37-.11"/><path class="cls-3" d="m446.05,372.37l1.37-.11s.1,1.25.14,1.77c.03.42.02.86-.4,1.24-.51.47.33,1.01.39,1.56.06.55-.7.59-1.1.61"/><path class="cls-3" d="m450.17,377.15c-.4.04-1.16.12-1.19-.43-.03-.55.72-1.22.14-1.6-.48-.31-.56-.74-.59-1.16-.04-.52-.14-1.77-.14-1.77l1.37-.11"/><path class="cls-8" d="m449.76,372.07l1.37-.11s.1,1.25.14,1.77c.03.42.02.86-.4,1.24-.51.47.33,1.01.39,1.56.06.55-.7.59-1.1.61"/><path class="cls-8" d="m453.88,376.85c-.4.04-1.16.12-1.19-.43-.03-.55.72-1.22.14-1.6-.47-.31-.56-.74-.59-1.16-.04-.52-.14-1.77-.14-1.77l1.37-.11"/><path class="cls-3" d="m449.76,372.07l1.37-.11s.1,1.25.14,1.77c.03.42.02.86-.4,1.24-.51.47.33,1.01.39,1.56.06.55-.7.59-1.1.61"/><path class="cls-3" d="m453.88,376.85c-.4.04-1.16.12-1.19-.43-.03-.55.72-1.22.14-1.6-.47-.31-.56-.74-.59-1.16-.04-.52-.14-1.77-.14-1.77l1.37-.11"/><path class="cls-8" d="m453.48,371.77l1.37-.11s.1,1.25.14,1.77c.03.42.02.86-.4,1.24-.51.47.33,1.01.39,1.56.06.55-.7.59-1.1.61"/><path class="cls-8" d="m457.59,376.55c-.4.04-1.16.12-1.19-.43-.03-.55.72-1.22.14-1.6-.47-.31-.56-.74-.59-1.16-.04-.52-.14-1.77-.14-1.77l1.37-.11"/><path class="cls-3" d="m453.48,371.77l1.37-.11s.1,1.25.14,1.77c.03.42.02.86-.4,1.24-.51.47.33,1.01.39,1.56.06.55-.7.59-1.1.61"/><path class="cls-3" d="m457.84,376.41c-.4.06-1.15.19-1.21-.36-.06-.55.64-1.27.04-1.61-.49-.28-.6-.71-.66-1.13-.07-.51-.25-1.76-.25-1.76l1.36-.19"/><path class="cls-3" d="m457.74,376.42c.4-.05,1.16-.12,1.07-.67-.09-.54-.96-1.05-.47-1.54.4-.4.39-.84.34-1.26-.07-.51-.23-1.76-.23-1.76l-1.37.18"/><path class="cls-3" d="m461.48,375.86c-.4.05-1.16.17-1.2-.38-.05-.55.67-1.25.07-1.61-.49-.29-.59-.72-.64-1.14-.06-.51-.21-1.76-.21-1.76l1.37-.17"/><path class="cls-3" d="m461.38,375.86c.4-.04,1.16-.1,1.09-.64-.08-.55-.93-1.07-.43-1.55.41-.4.41-.83.36-1.25-.05-.51-.19-1.77-.19-1.77l-1.37.15"/><path class="cls-3" d="m465.53,375.24c-.39.07-1.15.22-1.22-.32-.07-.55.61-1.28,0-1.61-.5-.27-.62-.69-.69-1.11-.09-.51-.3-1.75-.3-1.75l1.36-.23"/><path class="cls-3" d="m465.43,375.25c.4-.06,1.16-.15,1.06-.69-.1-.54-.98-1.02-.51-1.53.39-.41.37-.85.3-1.27-.08-.51-.27-1.75-.27-1.75l-1.36.21"/><path class="cls-3" d="m469.55,374.53c-.39.07-1.15.22-1.22-.32-.07-.55.61-1.28,0-1.61-.5-.27-.62-.69-.69-1.11-.09-.51-.3-1.75-.3-1.75l1.36-.23"/><path class="cls-3" d="m469.44,374.54c.4-.06,1.16-.15,1.06-.69-.1-.54-.98-1.02-.51-1.53.39-.41.37-.85.3-1.27-.08-.51-.27-1.75-.27-1.75l-1.36.21"/><path class="cls-3" d="m473.56,373.69c-.39.09-1.14.26-1.23-.28-.09-.54.56-1.3-.06-1.61-.51-.25-.64-.67-.73-1.09-.1-.51-.35-1.74-.35-1.74l1.35-.28"/><path class="cls-3" d="m473.46,373.71c.39-.07,1.15-.19,1.03-.73-.12-.54-1.02-.99-.56-1.51.38-.43.34-.86.26-1.28-.1-.51-.33-1.74-.33-1.74l-1.35.26"/><path class="cls-3" d="m477.4,372.94c-.39.09-1.14.26-1.23-.28-.09-.54.56-1.3-.06-1.61-.51-.25-.64-.67-.73-1.09-.1-.51-.35-1.74-.35-1.74l1.35-.28"/><path class="cls-3" d="m477.29,372.95c.39-.07,1.15-.19,1.03-.73-.12-.54-1.02-.99-.56-1.51.38-.43.34-.86.26-1.28-.1-.51-.33-1.74-.33-1.74l-1.35.26"/><path class="cls-3" d="m481.24,372.17c-.39.09-1.14.26-1.23-.28-.09-.54.56-1.3-.06-1.61-.51-.25-.64-.67-.73-1.09-.1-.51-.35-1.74-.35-1.74l1.35-.28"/><path class="cls-3" d="m481.13,372.18c.39-.07,1.15-.19,1.03-.73-.12-.54-1.02-.99-.56-1.51.38-.43.34-.86.26-1.28-.1-.51-.33-1.74-.33-1.74l-1.35.26"/><path class="cls-3" d="m485.04,371.36c-.39.09-1.14.26-1.23-.28-.09-.54.56-1.3-.06-1.61-.51-.25-.64-.67-.73-1.09-.1-.51-.35-1.74-.35-1.74l1.35-.28"/><path class="cls-3" d="m484.94,371.38c.39-.07,1.15-.19,1.03-.73-.12-.54-1.02-.99-.56-1.51.38-.43.34-.86.26-1.28-.1-.51-.33-1.74-.33-1.74l-1.35.26"/><path class="cls-3" d="m488.91,370.54c-.39.09-1.14.26-1.23-.28-.09-.54.56-1.3-.06-1.61-.51-.25-.64-.67-.73-1.09-.1-.51-.35-1.74-.35-1.74l1.35-.28"/><path class="cls-3" d="m488.81,370.55c.39-.07,1.15-.19,1.03-.73-.12-.54-1.02-.99-.56-1.51.38-.43.34-.86.26-1.28-.1-.51-.33-1.74-.33-1.74l-1.35.26"/><path class="cls-3" d="m492.75,369.55c-.39.1-1.13.3-1.24-.24-.11-.54.52-1.32-.11-1.61-.52-.24-.66-.65-.76-1.06-.12-.5-.41-1.73-.41-1.73l1.34-.32"/><path class="cls-3" d="m492.64,369.57c.39-.08,1.15-.23,1.01-.76-.14-.53-1.05-.96-.61-1.49.36-.44.31-.87.22-1.29-.11-.5-.39-1.73-.39-1.73l-1.34.3"/><path class="cls-3" d="m496.63,368.5c-.39.11-1.12.33-1.25-.2-.13-.54.48-1.34-.16-1.6-.52-.22-.68-.63-.8-1.04-.14-.5-.47-1.71-.47-1.71l1.33-.36"/><path class="cls-3" d="m496.53,368.52c.39-.1,1.14-.27.98-.8-.16-.53-1.08-.92-.66-1.47.35-.45.28-.88.18-1.29-.13-.5-.44-1.72-.44-1.72l-1.33.34"/><path class="cls-3" d="m500.37,367.38c-.39.11-1.12.33-1.25-.2-.13-.54.48-1.34-.16-1.6-.52-.22-.68-.63-.8-1.04-.14-.5-.47-1.71-.47-1.71l1.33-.36"/><path class="cls-3" d="m500.27,367.4c.39-.1,1.14-.27.98-.8-.16-.53-1.08-.92-.66-1.47.35-.45.28-.88.18-1.29-.13-.5-.44-1.72-.44-1.72l-1.33.34"/><path class="cls-8" d="m412.81,379.94c-.4,0-1.17.02-1.15-.53.02-.55.82-1.16.27-1.59-.45-.35-.49-.78-.49-1.21,0-.52,0-1.78,0-1.78h1.38"/><path class="cls-8" d="m412.83,374.85h1.38s0,1.26,0,1.78c0,.42-.05.86-.5,1.21-.55.42.25,1.04.26,1.59.02.55-.75.53-1.15.52"/><path class="cls-3" d="m412.81,379.94c-.4,0-1.17.02-1.15-.53.02-.55.82-1.16.27-1.59-.45-.35-.49-.78-.49-1.21,0-.52,0-1.78,0-1.78h1.38"/><path class="cls-3" d="m412.83,374.85h1.38s0,1.26,0,1.78c0,.42-.05.86-.5,1.21-.55.42.25,1.04.26,1.59.02.55-.75.53-1.15.52"/><path class="cls-8" d="m409.05,379.95c-.4,0-1.17.02-1.15-.53.02-.55.82-1.16.27-1.59-.45-.35-.49-.78-.49-1.21,0-.52,0-1.78,0-1.78h1.38"/><path class="cls-8" d="m409.06,374.86h1.38s0,1.26,0,1.78c0,.42-.05.86-.5,1.21-.55.42.25,1.04.26,1.59.02.55-.75.53-1.15.52"/><path class="cls-3" d="m409.05,379.95c-.4,0-1.17.02-1.15-.53.02-.55.82-1.16.27-1.59-.45-.35-.49-.78-.49-1.21,0-.52,0-1.78,0-1.78h1.38"/><path class="cls-3" d="m409.06,374.86h1.38s0,1.26,0,1.78c0,.42-.05.86-.5,1.21-.55.42.25,1.04.26,1.59.02.55-.75.53-1.15.52"/><path class="cls-8" d="m405.42,379.97c-.4,0-1.17.02-1.15-.53.02-.55.82-1.16.27-1.59-.45-.35-.49-.78-.49-1.21,0-.52,0-1.78,0-1.78h1.38"/><path class="cls-8" d="m405.43,374.87h1.38s0,1.26,0,1.78c0,.42-.05.86-.5,1.21-.55.42.25,1.04.26,1.59.02.55-.75.53-1.15.52"/><path class="cls-3" d="m405.42,379.97c-.4,0-1.17.02-1.15-.53.02-.55.82-1.16.27-1.59-.45-.35-.49-.78-.49-1.21,0-.52,0-1.78,0-1.78h1.38"/><path class="cls-3" d="m405.43,374.87h1.38s0,1.26,0,1.78c0,.42-.05.86-.5,1.21-.55.42.25,1.04.26,1.59.02.55-.75.53-1.15.52"/><path class="cls-8" d="m401.67,379.92c-.4,0-1.17.02-1.15-.53.02-.55.82-1.16.27-1.59-.45-.35-.49-.78-.49-1.21,0-.52,0-1.78,0-1.78h1.38"/><path class="cls-8" d="m401.69,374.82h1.38s0,1.26,0,1.78c0,.42-.05.86-.5,1.21-.55.42.25,1.04.26,1.59.02.55-.75.53-1.15.52"/><path class="cls-3" d="m401.67,379.92c-.4,0-1.17.02-1.15-.53.02-.55.82-1.16.27-1.59-.45-.35-.49-.78-.49-1.21,0-.52,0-1.78,0-1.78h1.38"/><path class="cls-3" d="m401.69,374.82h1.38s0,1.26,0,1.78c0,.42-.05.86-.5,1.21-.55.42.25,1.04.26,1.59.02.55-.75.53-1.15.52"/><path class="cls-8" d="m398,379.84c-.4,0-1.17.01-1.14-.54.03-.55.83-1.15.29-1.58-.44-.35-.49-.79-.48-1.21,0-.52.02-1.78.02-1.78l1.38.02"/><path class="cls-8" d="m398.06,374.75l1.38.02s-.01,1.26-.02,1.78c0,.42-.06.86-.51,1.2-.55.42.24,1.04.25,1.59.01.55-.75.52-1.16.51"/><path class="cls-3" d="m398,379.84c-.4,0-1.17.01-1.14-.54.03-.55.83-1.15.29-1.58-.44-.35-.49-.79-.48-1.21,0-.52.02-1.78.02-1.78l1.38.02"/><path class="cls-3" d="m398.06,374.75l1.38.02s-.01,1.26-.02,1.78c0,.42-.06.86-.51,1.2-.55.42.24,1.04.25,1.59.01.55-.75.52-1.16.51"/><path class="cls-8" d="m394.25,379.68c-.4-.01-1.17-.02-1.13-.57.04-.55.86-1.13.33-1.58-.43-.37-.46-.8-.45-1.23.02-.52.07-1.77.07-1.77l1.38.05"/><path class="cls-8" d="m394.46,374.58l1.38.05s-.05,1.26-.07,1.77c-.02.42-.08.86-.54,1.19-.56.4.21,1.05.21,1.6,0,.55-.77.5-1.17.48"/><path class="cls-3" d="m394.25,379.68c-.4-.01-1.17-.02-1.13-.57.04-.55.86-1.13.33-1.58-.43-.37-.46-.8-.45-1.23.02-.52.07-1.77.07-1.77l1.38.05"/><path class="cls-3" d="m394.46,374.58l1.38.05s-.05,1.26-.07,1.77c-.02.42-.08.86-.54,1.19-.56.4.21,1.05.21,1.6,0,.55-.77.5-1.17.48"/><path class="cls-8" d="m390.47,379.44c-.4-.01-1.17-.02-1.13-.57.04-.55.86-1.13.33-1.58-.43-.37-.46-.8-.45-1.23.02-.52.07-1.77.07-1.77l1.38.05"/><path class="cls-8" d="m390.67,374.35l1.38.05s-.05,1.26-.07,1.77c-.02.42-.08.86-.54,1.19-.56.4.21,1.05.21,1.6,0,.55-.77.5-1.17.48"/><path class="cls-3" d="m390.47,379.44c-.4-.01-1.17-.02-1.13-.57.04-.55.86-1.13.33-1.58-.43-.37-.46-.8-.45-1.23.02-.52.07-1.77.07-1.77l1.38.05"/><path class="cls-3" d="m390.67,374.35l1.38.05s-.05,1.26-.07,1.77c-.02.42-.08.86-.54,1.19-.56.4.21,1.05.21,1.6,0,.55-.77.5-1.17.48"/><path class="cls-8" d="m386.7,379.26c-.4-.02-1.17-.04-1.12-.59.05-.55.88-1.12.35-1.57-.43-.37-.45-.81-.43-1.23.03-.52.1-1.77.1-1.77l1.38.08"/><path class="cls-8" d="m386.98,374.18l1.38.08s-.07,1.26-.1,1.77c-.02.42-.09.86-.56,1.18-.57.4.19,1.05.18,1.6-.01.55-.78.49-1.18.46"/><path class="cls-3" d="m386.7,379.26c-.4-.02-1.17-.04-1.12-.59.05-.55.88-1.12.35-1.57-.43-.37-.45-.81-.43-1.23.03-.52.1-1.77.1-1.77l1.38.08"/><path class="cls-3" d="m386.98,374.18l1.38.08s-.07,1.26-.1,1.77c-.02.42-.09.86-.56,1.18-.57.4.19,1.05.18,1.6-.01.55-.78.49-1.18.46"/><path class="cls-8" d="m382.94,378.92c-.4-.02-1.17-.04-1.12-.59.05-.55.88-1.12.35-1.57-.43-.37-.45-.81-.43-1.23.03-.52.1-1.77.1-1.77l1.38.08"/><path class="cls-8" d="m383.22,373.83l1.38.08s-.07,1.26-.1,1.77c-.02.42-.09.86-.56,1.18-.57.4.19,1.05.18,1.6-.01.55-.78.49-1.18.46"/><path class="cls-3" d="m382.94,378.92c-.4-.02-1.17-.04-1.12-.59.05-.55.88-1.12.35-1.57-.43-.37-.45-.81-.43-1.23.03-.52.1-1.77.1-1.77l1.38.08"/><path class="cls-3" d="m383.22,373.83l1.38.08s-.07,1.26-.1,1.77c-.02.42-.09.86-.56,1.18-.57.4.19,1.05.18,1.6-.01.55-.78.49-1.18.46"/><path class="cls-8" d="m379.18,378.62c-.4-.02-1.17-.04-1.12-.59.05-.55.88-1.12.35-1.57-.43-.37-.45-.81-.43-1.23.03-.52.1-1.77.1-1.77l1.38.08"/><path class="cls-8" d="m379.46,373.53l1.38.08s-.07,1.26-.1,1.77c-.02.42-.09.86-.56,1.18-.57.4.19,1.05.18,1.6-.01.55-.78.49-1.18.46"/><path class="cls-3" d="m379.18,378.62c-.4-.02-1.17-.04-1.12-.59.05-.55.88-1.12.35-1.57-.43-.37-.45-.81-.43-1.23.03-.52.1-1.77.1-1.77l1.38.08"/><path class="cls-3" d="m379.46,373.53l1.38.08s-.07,1.26-.1,1.77c-.02.42-.09.86-.56,1.18-.57.4.19,1.05.18,1.6-.01.55-.78.49-1.18.46"/><path class="cls-8" d="m375.47,378.21c-.4-.02-1.17-.04-1.12-.59.05-.55.88-1.12.35-1.57-.43-.37-.45-.81-.43-1.23.03-.52.1-1.77.1-1.77l1.38.08"/><path class="cls-8" d="m375.75,373.12l1.38.08s-.07,1.26-.1,1.77c-.02.42-.09.86-.56,1.18-.57.4.19,1.05.18,1.6-.01.55-.78.49-1.18.46"/><path class="cls-3" d="m375.47,378.21c-.4-.02-1.17-.04-1.12-.59.05-.55.88-1.12.35-1.57-.43-.37-.45-.81-.43-1.23.03-.52.1-1.77.1-1.77l1.38.08"/><path class="cls-3" d="m375.75,373.12l1.38.08s-.07,1.26-.1,1.77c-.02.42-.09.86-.56,1.18-.57.4.19,1.05.18,1.6-.01.55-.78.49-1.18.46"/><path class="cls-8" d="m371.59,377.82c-.4-.03-1.17-.07-1.1-.62.06-.55.91-1.09.4-1.56-.42-.38-.43-.82-.39-1.24.04-.52.15-1.77.15-1.77l1.37.11"/><path class="cls-8" d="m372.01,372.74l1.37.11s-.1,1.25-.15,1.77c-.04.42-.12.85-.59,1.16-.58.38.16,1.05.14,1.6-.03.55-.79.47-1.19.43"/><path class="cls-3" d="m371.59,377.82c-.4-.03-1.17-.07-1.1-.62.06-.55.91-1.09.4-1.56-.42-.38-.43-.82-.39-1.24.04-.52.15-1.77.15-1.77l1.37.11"/><path class="cls-3" d="m372.01,372.74l1.37.11s-.1,1.25-.15,1.77c-.04.42-.12.85-.59,1.16-.58.38.16,1.05.14,1.6-.03.55-.79.47-1.19.43"/><path class="cls-8" d="m367.88,377.39c-.4-.03-1.17-.09-1.09-.63.07-.55.92-1.08.42-1.55-.41-.39-.42-.83-.37-1.25.05-.51.17-1.77.17-1.77l1.37.13"/><path class="cls-8" d="m368.38,372.31l1.37.13s-.12,1.25-.17,1.77c-.04.42-.13.85-.61,1.15-.59.37.15,1.06.11,1.61-.03.55-.8.45-1.2.41"/><path class="cls-3" d="m367.88,377.39c-.4-.03-1.17-.09-1.09-.63.07-.55.92-1.08.42-1.55-.41-.39-.42-.83-.37-1.25.05-.51.17-1.77.17-1.77l1.37.13"/><path class="cls-3" d="m368.38,372.31l1.37.13s-.12,1.25-.17,1.77c-.04.42-.13.85-.61,1.15-.59.37.15,1.06.11,1.61-.03.55-.8.45-1.2.41"/><path class="cls-8" d="m364.23,376.84c-.4-.03-1.17-.09-1.09-.63.07-.55.92-1.08.42-1.55-.41-.39-.42-.83-.37-1.25.05-.51.17-1.77.17-1.77l1.37.13"/><path class="cls-8" d="m364.73,371.77l1.37.13s-.12,1.25-.17,1.77c-.04.42-.13.85-.61,1.15-.59.37.15,1.06.11,1.61-.03.55-.8.45-1.2.41"/><path class="cls-3" d="m364.23,376.84c-.4-.03-1.17-.09-1.09-.63.07-.55.92-1.08.42-1.55-.41-.39-.42-.83-.37-1.25.05-.51.17-1.77.17-1.77l1.37.13"/><path class="cls-3" d="m364.73,371.77l1.37.13s-.12,1.25-.17,1.77c-.04.42-.13.85-.61,1.15-.59.37.15,1.06.11,1.61-.03.55-.8.45-1.2.41"/><path class="cls-8" d="m360.51,376.37c-.4-.03-1.17-.09-1.09-.63.07-.55.92-1.08.42-1.55-.41-.39-.42-.83-.37-1.25.05-.51.17-1.77.17-1.77l1.37.13"/><path class="cls-8" d="m361.02,371.3l1.37.13s-.12,1.25-.17,1.77c-.04.42-.13.85-.61,1.15-.59.37.15,1.06.11,1.61-.03.55-.8.45-1.2.41"/><path class="cls-3" d="m360.51,376.37c-.4-.03-1.17-.09-1.09-.63.07-.55.92-1.08.42-1.55-.41-.39-.42-.83-.37-1.25.05-.51.17-1.77.17-1.77l1.37.13"/><path class="cls-3" d="m361.02,371.3l1.37.13s-.12,1.25-.17,1.77c-.04.42-.13.85-.61,1.15-.59.37.15,1.06.11,1.61-.03.55-.8.45-1.2.41"/><path class="cls-8" d="m356.7,375.84c-.4-.04-1.16-.1-1.09-.65.08-.55.94-1.07.44-1.55-.41-.4-.41-.83-.36-1.26.06-.51.19-1.77.19-1.77l1.37.15"/><path class="cls-8" d="m357.26,370.78l1.37.15s-.14,1.25-.19,1.77c-.05.42-.14.85-.62,1.15-.59.36.13,1.06.09,1.61-.04.55-.8.44-1.2.4"/><path class="cls-3" d="m356.7,375.84c-.4-.04-1.16-.1-1.09-.65.08-.55.94-1.07.44-1.55-.41-.4-.41-.83-.36-1.26.06-.51.19-1.77.19-1.77l1.37.15"/><path class="cls-3" d="m357.26,370.78l1.37.15s-.14,1.25-.19,1.77c-.05.42-.14.85-.62,1.15-.59.36.13,1.06.09,1.61-.04.55-.8.44-1.2.4"/><path class="cls-8" d="m352.8,375.18c-.4-.05-1.16-.15-1.06-.69.1-.54.98-1.03.5-1.53-.39-.41-.37-.85-.31-1.27.08-.51.26-1.76.26-1.76l1.36.2"/><path class="cls-8" d="m353.55,370.14l1.36.2s-.18,1.24-.26,1.76c-.06.42-.17.84-.67,1.12-.6.34.09,1.06.03,1.61-.06.55-.82.41-1.21.35"/><path class="cls-3" d="m352.8,375.18c-.4-.05-1.16-.15-1.06-.69.1-.54.98-1.03.5-1.53-.39-.41-.37-.85-.31-1.27.08-.51.26-1.76.26-1.76l1.36.2"/><path class="cls-3" d="m353.55,370.14l1.36.2s-.18,1.24-.26,1.76c-.06.42-.17.84-.67,1.12-.6.34.09,1.06.03,1.61-.06.55-.82.41-1.21.35"/><path class="cls-8" d="m349.13,374.54c-.4-.05-1.16-.15-1.06-.69.1-.54.98-1.03.5-1.53-.39-.41-.37-.85-.31-1.27.08-.51.26-1.76.26-1.76l1.36.2"/><path class="cls-8" d="m349.88,369.5l1.36.2s-.18,1.24-.26,1.76c-.06.42-.17.84-.67,1.12-.6.34.09,1.06.03,1.61-.06.55-.82.41-1.21.35"/><path class="cls-3" d="m349.13,374.54c-.4-.05-1.16-.15-1.06-.69.1-.54.98-1.03.5-1.53-.39-.41-.37-.85-.31-1.27.08-.51.26-1.76.26-1.76l1.36.2"/><path class="cls-3" d="m349.88,369.5l1.36.2s-.18,1.24-.26,1.76c-.06.42-.17.84-.67,1.12-.6.34.09,1.06.03,1.61-.06.55-.82.41-1.21.35"/><path class="cls-8" d="m345.32,373.91c-.4-.06-1.16-.16-1.05-.7.11-.54.99-1.01.52-1.52-.39-.42-.36-.85-.29-1.27.08-.51.29-1.75.29-1.75l1.36.23"/><path class="cls-8" d="m346.16,368.89l1.36.23s-.21,1.24-.29,1.75c-.07.42-.19.84-.69,1.11-.61.33.08,1.06,0,1.61-.07.55-.82.4-1.22.33"/><path class="cls-3" d="m345.32,373.91c-.4-.06-1.16-.16-1.05-.7.11-.54.99-1.01.52-1.52-.39-.42-.36-.85-.29-1.27.08-.51.29-1.75.29-1.75l1.36.23"/><path class="cls-3" d="m346.16,368.89l1.36.23s-.21,1.24-.29,1.75c-.07.42-.19.84-.69,1.11-.61.33.08,1.06,0,1.61-.07.55-.82.4-1.22.33"/><path class="cls-8" d="m341.65,373.15c-.4-.06-1.16-.16-1.05-.7.11-.54.99-1.01.52-1.52-.39-.42-.36-.85-.29-1.27.08-.51.29-1.75.29-1.75l1.36.23"/><path class="cls-8" d="m342.49,368.12l1.36.23s-.21,1.24-.29,1.75c-.07.42-.19.84-.69,1.11-.61.33.08,1.06,0,1.61-.07.55-.82.4-1.22.33"/><path class="cls-3" d="m341.65,373.15c-.4-.06-1.16-.16-1.05-.7.11-.54.99-1.01.52-1.52-.39-.42-.36-.85-.29-1.27.08-.51.29-1.75.29-1.75l1.36.23"/><path class="cls-3" d="m342.49,368.12l1.36.23s-.21,1.24-.29,1.75c-.07.42-.19.84-.69,1.11-.61.33.08,1.06,0,1.61-.07.55-.82.4-1.22.33"/><path class="cls-8" d="m338.09,372.35c-.4-.06-1.16-.16-1.05-.7.11-.54.99-1.01.52-1.52-.39-.42-.36-.85-.29-1.27.08-.51.29-1.75.29-1.75l1.36.23"/><path class="cls-8" d="m338.93,367.32l1.36.23s-.21,1.24-.29,1.75c-.07.42-.19.84-.69,1.11-.61.33.08,1.06,0,1.61-.07.55-.82.4-1.22.33"/><path class="cls-3" d="m338.09,372.35c-.4-.06-1.16-.16-1.05-.7.11-.54.99-1.01.52-1.52-.39-.42-.36-.85-.29-1.27.08-.51.29-1.75.29-1.75l1.36.23"/><path class="cls-3" d="m338.93,367.32l1.36.23s-.21,1.24-.29,1.75c-.07.42-.19.84-.69,1.11-.61.33.08,1.06,0,1.61-.07.55-.82.4-1.22.33"/><path class="cls-8" d="m334.4,371.51c-.4-.06-1.16-.16-1.05-.7.11-.54.99-1.01.52-1.52-.39-.42-.36-.85-.29-1.27.08-.51.29-1.75.29-1.75l1.36.23"/><path class="cls-8" d="m335.24,366.49l1.36.23s-.21,1.24-.29,1.75c-.07.42-.19.84-.69,1.11-.61.33.08,1.06,0,1.61-.07.55-.82.4-1.22.33"/><path class="cls-3" d="m334.4,371.51c-.4-.06-1.16-.16-1.05-.7.11-.54.99-1.01.52-1.52-.39-.42-.36-.85-.29-1.27.08-.51.29-1.75.29-1.75l1.36.23"/><path class="cls-3" d="m335.24,366.49l1.36.23s-.21,1.24-.29,1.75c-.07.42-.19.84-.69,1.11-.61.33.08,1.06,0,1.61-.07.55-.82.4-1.22.33"/><path class="cls-8" d="m330.49,370.68c-.39-.08-1.15-.21-1.02-.75.13-.53,1.04-.97.59-1.5-.37-.43-.32-.87-.24-1.28.11-.51.37-1.74.37-1.74l1.35.28"/><path class="cls-8" d="m331.54,365.7l1.35.28s-.26,1.23-.37,1.74c-.09.42-.22.83-.73,1.08-.62.3.03,1.07-.07,1.61-.09.54-.84.36-1.23.28"/><path class="cls-3" d="m330.49,370.68c-.39-.08-1.15-.21-1.02-.75.13-.53,1.04-.97.59-1.5-.37-.43-.32-.87-.24-1.28.11-.51.37-1.74.37-1.74l1.35.28"/><path class="cls-3" d="m331.54,365.7l1.35.28s-.26,1.23-.37,1.74c-.09.42-.22.83-.73,1.08-.62.3.03,1.07-.07,1.61-.09.54-.84.36-1.23.28"/><path class="cls-8" d="m326.91,369.78c-.39-.08-1.15-.21-1.02-.75.13-.53,1.04-.97.59-1.5-.37-.43-.32-.87-.24-1.28.11-.51.37-1.74.37-1.74l1.35.28"/><path class="cls-8" d="m327.96,364.8l1.35.28s-.26,1.23-.37,1.74c-.09.42-.22.83-.73,1.08-.62.3.03,1.07-.07,1.61-.09.54-.84.36-1.23.28"/><path class="cls-3" d="m326.91,369.78c-.39-.08-1.15-.21-1.02-.75.13-.53,1.04-.97.59-1.5-.37-.43-.32-.87-.24-1.28.11-.51.37-1.74.37-1.74l1.35.28"/><path class="cls-3" d="m327.96,364.8l1.35.28s-.26,1.23-.37,1.74c-.09.42-.22.83-.73,1.08-.62.3.03,1.07-.07,1.61-.09.54-.84.36-1.23.28"/><path class="cls-8" d="m323.35,368.77c-.39-.08-1.15-.23-1.01-.76.14-.53,1.05-.96.6-1.49-.36-.44-.31-.87-.22-1.29.11-.51.38-1.73.38-1.73l1.34.3"/><path class="cls-8" d="m324.46,363.79l1.34.3s-.27,1.23-.38,1.73c-.09.41-.23.83-.74,1.07-.63.3.02,1.07-.08,1.61-.1.54-.85.36-1.24.26"/><path class="cls-3" d="m323.35,368.77c-.39-.08-1.15-.23-1.01-.76.14-.53,1.05-.96.6-1.49-.36-.44-.31-.87-.22-1.29.11-.51.38-1.73.38-1.73l1.34.3"/><path class="cls-3" d="m324.46,363.79l1.34.3s-.27,1.23-.38,1.73c-.09.41-.23.83-.74,1.07-.63.3.02,1.07-.08,1.61-.1.54-.85.36-1.24.26"/><path class="cls-8" d="m319.66,367.91c-.39-.08-1.15-.23-1.01-.76.14-.53,1.05-.96.6-1.49-.36-.44-.31-.87-.22-1.29.11-.51.38-1.73.38-1.73l1.34.3"/><path class="cls-8" d="m320.77,362.94l1.34.3s-.27,1.23-.38,1.73c-.09.41-.23.83-.74,1.07-.63.3.02,1.07-.08,1.61-.1.54-.85.36-1.24.26"/><path class="cls-3" d="m319.66,367.91c-.39-.08-1.15-.23-1.01-.76.14-.53,1.05-.96.6-1.49-.36-.44-.31-.87-.22-1.29.11-.51.38-1.73.38-1.73l1.34.3"/><path class="cls-3" d="m320.77,362.94l1.34.3s-.27,1.23-.38,1.73c-.09.41-.23.83-.74,1.07-.63.3.02,1.07-.08,1.61-.1.54-.85.36-1.24.26"/><path class="cls-8" d="m316.06,366.93c-.39-.08-1.15-.23-1.01-.76.14-.53,1.05-.96.6-1.49-.36-.44-.31-.87-.22-1.29.11-.51.38-1.73.38-1.73l1.34.3"/><path class="cls-8" d="m317.17,361.95l1.34.3s-.27,1.23-.38,1.73c-.09.41-.23.83-.74,1.07-.63.3.02,1.07-.08,1.61-.1.54-.85.36-1.24.26"/><path class="cls-3" d="m316.06,366.93c-.39-.08-1.15-.23-1.01-.76.14-.53,1.05-.96.6-1.49-.36-.44-.31-.87-.22-1.29.11-.51.38-1.73.38-1.73l1.34.3"/><path class="cls-3" d="m317.17,361.95l1.34.3s-.27,1.23-.38,1.73c-.09.41-.23.83-.74,1.07-.63.3.02,1.07-.08,1.61-.1.54-.85.36-1.24.26"/><path class="cls-8" d="m312.17,365.76c-.39-.1-1.14-.28-.98-.8.16-.53,1.09-.91.67-1.47-.34-.45-.28-.88-.17-1.3.13-.5.46-1.72.46-1.72l1.33.35"/><path class="cls-8" d="m313.49,360.83l1.33.35s-.32,1.22-.46,1.72c-.11.41-.27.82-.79,1.04-.64.27-.03,1.07-.15,1.6-.12.54-.86.32-1.25.21"/><path class="cls-3" d="m312.17,365.76c-.39-.1-1.14-.28-.98-.8.16-.53,1.09-.91.67-1.47-.34-.45-.28-.88-.17-1.3.13-.5.46-1.72.46-1.72l1.33.35"/><path class="cls-3" d="m313.49,360.83l1.33.35s-.32,1.22-.46,1.72c-.11.41-.27.82-.79,1.04-.64.27-.03,1.07-.15,1.6-.12.54-.86.32-1.25.21"/><path class="cls-8" d="m308.62,364.75c-.39-.1-1.14-.28-.98-.8.16-.53,1.09-.91.67-1.47-.34-.45-.28-.88-.17-1.3.13-.5.46-1.72.46-1.72l1.33.35"/><path class="cls-8" d="m309.94,359.82l1.33.35s-.32,1.22-.46,1.72c-.11.41-.27.82-.79,1.04-.64.27-.03,1.07-.15,1.6-.12.54-.86.32-1.25.21"/><path class="cls-3" d="m308.62,364.75c-.39-.1-1.14-.28-.98-.8.16-.53,1.09-.91.67-1.47-.34-.45-.28-.88-.17-1.3.13-.5.46-1.72.46-1.72l1.33.35"/><path class="cls-3" d="m309.94,359.82l1.33.35s-.32,1.22-.46,1.72c-.11.41-.27.82-.79,1.04-.64.27-.03,1.07-.15,1.6-.12.54-.86.32-1.25.21"/><path class="cls-8" d="m304.93,363.54c-.39-.11-1.13-.3-.96-.82.17-.52,1.1-.89.7-1.45-.33-.46-.26-.89-.14-1.3.14-.5.49-1.71.49-1.71l1.32.38"/><path class="cls-8" d="m306.34,358.65l1.32.38s-.35,1.21-.49,1.71c-.12.41-.28.81-.81,1.02-.64.26-.05,1.07-.18,1.6-.13.53-.87.3-1.25.19"/><path class="cls-3" d="m304.93,363.54c-.39-.11-1.13-.3-.96-.82.17-.52,1.1-.89.7-1.45-.33-.46-.26-.89-.14-1.3.14-.5.49-1.71.49-1.71l1.32.38"/><path class="cls-3" d="m306.34,358.65l1.32.38s-.35,1.21-.49,1.71c-.12.41-.28.81-.81,1.02-.64.26-.05,1.07-.18,1.6-.13.53-.87.3-1.25.19"/><path class="cls-8" d="m301.28,362.37c-.39-.11-1.13-.31-.95-.83.18-.52,1.11-.88.71-1.45-.33-.46-.25-.89-.13-1.3.15-.5.51-1.7.51-1.7l1.32.39"/><path class="cls-8" d="m302.74,357.49l1.32.39s-.36,1.21-.51,1.7c-.12.41-.29.81-.82,1.02-.65.25-.06,1.07-.2,1.6-.14.53-.87.29-1.25.17"/><path class="cls-3" d="m301.28,362.37c-.39-.11-1.13-.31-.95-.83.18-.52,1.11-.88.71-1.45-.33-.46-.25-.89-.13-1.3.15-.5.51-1.7.51-1.7l1.32.39"/><path class="cls-3" d="m302.74,357.49l1.32.39s-.36,1.21-.51,1.7c-.12.41-.29.81-.82,1.02-.65.25-.06,1.07-.2,1.6-.14.53-.87.29-1.25.17"/><path class="cls-8" d="m297.77,361.09c-.38-.11-1.12-.32-.94-.84.18-.52,1.12-.87.72-1.44-.33-.47-.24-.89-.12-1.3.15-.49.52-1.7.52-1.7l1.32.41"/><path class="cls-8" d="m299.28,356.22l1.32.41s-.37,1.2-.52,1.7c-.13.41-.3.81-.83,1.01-.65.25-.07,1.06-.21,1.6-.14.53-.87.28-1.25.16"/><path class="cls-3" d="m297.77,361.09c-.38-.11-1.12-.32-.94-.84.18-.52,1.12-.87.72-1.44-.33-.47-.24-.89-.12-1.3.15-.49.52-1.7.52-1.7l1.32.41"/><path class="cls-3" d="m299.28,356.22l1.32.41s-.37,1.2-.52,1.7c-.13.41-.3.81-.83,1.01-.65.25-.07,1.06-.21,1.6-.14.53-.87.28-1.25.16"/><path class="cls-8" d="m294.19,359.86c-.38-.11-1.12-.32-.94-.84.18-.52,1.12-.87.72-1.44-.33-.47-.24-.89-.12-1.3.15-.49.52-1.7.52-1.7l1.32.41"/><path class="cls-8" d="m295.7,354.99l1.32.41s-.37,1.2-.52,1.7c-.13.41-.3.81-.83,1.01-.65.25-.07,1.06-.21,1.6-.14.53-.87.28-1.25.16"/><path class="cls-3" d="m294.19,359.86c-.38-.11-1.12-.32-.94-.84.18-.52,1.12-.87.72-1.44-.33-.47-.24-.89-.12-1.3.15-.49.52-1.7.52-1.7l1.32.41"/><path class="cls-3" d="m295.7,354.99l1.32.41s-.37,1.2-.52,1.7c-.13.41-.3.81-.83,1.01-.65.25-.07,1.06-.21,1.6-.14.53-.87.28-1.25.16"/><path class="cls-8" d="m290.33,358.44c-.38-.11-1.12-.32-.94-.84.18-.52,1.12-.87.72-1.44-.33-.47-.24-.89-.12-1.3.15-.49.52-1.7.52-1.7l1.32.41"/><path class="cls-8" d="m291.84,353.58l1.32.41s-.37,1.2-.52,1.7c-.13.41-.3.81-.83,1.01-.65.25-.07,1.06-.21,1.6-.14.53-.87.28-1.25.16"/><path class="cls-3" d="m290.33,358.44c-.38-.11-1.12-.32-.94-.84.18-.52,1.12-.87.72-1.44-.33-.47-.24-.89-.12-1.3.15-.49.52-1.7.52-1.7l1.32.41"/><path class="cls-3" d="m291.84,353.58l1.32.41s-.37,1.2-.52,1.7c-.13.41-.3.81-.83,1.01-.65.25-.07,1.06-.21,1.6-.14.53-.87.28-1.25.16"/><path class="cls-8" d="m286.77,357.12c-.38-.11-1.12-.32-.94-.84.18-.52,1.12-.87.72-1.44-.33-.47-.24-.89-.12-1.3.15-.49.52-1.7.52-1.7l1.32.41"/><path class="cls-8" d="m288.29,352.25l1.32.41s-.37,1.2-.52,1.7c-.13.41-.3.81-.83,1.01-.65.25-.07,1.06-.21,1.6-.14.53-.87.28-1.25.16"/><path class="cls-3" d="m286.77,357.12c-.38-.11-1.12-.32-.94-.84.18-.52,1.12-.87.72-1.44-.33-.47-.24-.89-.12-1.3.15-.49.52-1.7.52-1.7l1.32.41"/><path class="cls-3" d="m288.29,352.25l1.32.41s-.37,1.2-.52,1.7c-.13.41-.3.81-.83,1.01-.65.25-.07,1.06-.21,1.6-.14.53-.87.28-1.25.16"/><path class="cls-8" d="m283.49,355.67c-.38-.11-1.12-.32-.94-.84.18-.52,1.12-.87.72-1.44-.33-.47-.24-.89-.12-1.3.15-.49.52-1.7.52-1.7l1.32.41"/><path class="cls-8" d="m285,350.8l1.32.41s-.37,1.2-.52,1.7c-.13.41-.3.81-.83,1.01-.65.25-.07,1.06-.21,1.6-.14.53-.87.28-1.25.16"/><path class="cls-3" d="m283.49,355.67c-.38-.11-1.12-.32-.94-.84.18-.52,1.12-.87.72-1.44-.33-.47-.24-.89-.12-1.3.15-.49.52-1.7.52-1.7l1.32.41"/><path class="cls-3" d="m285,350.8l1.32.41s-.37,1.2-.52,1.7c-.13.41-.3.81-.83,1.01-.65.25-.07,1.06-.21,1.6-.14.53-.87.28-1.25.16"/><path class="cls-3" d="m416.88,379.84c-.4.04-1.16.12-1.19-.43-.03-.55.72-1.22.14-1.6-.47-.31-.56-.74-.59-1.16-.04-.52-.14-1.77-.14-1.77l1.37-.11"/><path class="cls-3" d="m416.48,374.76l1.37-.11s.1,1.25.14,1.77c.03.42.02.86-.4,1.24-.51.47.33,1.01.39,1.56.06.55-.7.59-1.1.61"/><path class="cls-3" d="m420.6,379.54c-.4.04-1.16.12-1.19-.43-.03-.55.72-1.22.14-1.6-.47-.31-.56-.74-.59-1.16-.04-.52-.14-1.77-.14-1.77l1.37-.11"/></g></g></svg>