<?xml version="1.0" encoding="UTF-8"?>
<svg id="Layer_2" data-name="Layer 2" xmlns="http://www.w3.org/2000/svg" viewBox="0 0 51.83 51.83">
  <defs>
    <style>
      .cls-1 {
        fill: #f1f5f9;
      }

      .cls-2 {
        fill: #0f172a;
        fill-rule: evenodd;
      }
    </style>
  </defs>
  <g id="Layer_1-2" data-name="Layer 1">
    <g>
      <rect class="cls-1" width="51.83" height="51.83"/>
      <path class="cls-2" d="M36.45,24.83v-1.6h-10.53v1.6h10.53ZM15.38,30.82v1.3s.02.09.05.12c.03.03.08.05.12.05h20.72s.09-.02.12-.05c.03-.03.05-.08.05-.12v-1.3H15.38ZM15.38,27.02v1.6h21.07v-1.6H15.38ZM36.28,19.54h-10.36v1.5h10.53v-1.32s-.02-.09-.05-.12c-.03-.03-.08-.05-.12-.05ZM16.08,20.53l.68-.05.26-.63c.03-.05.08-.08.13-.08s.1.03.13.08l.26.63.68.05c.05,0,.1.05.13.11.03.05,0,.1-.05.16l-.52.45.16.66c0,.05,0,.11-.05.13-.05.03-.1.03-.16,0l-.58-.37-.58.37s-.05.03-.08.03-.05,0-.08-.03c-.05-.03-.05-.08-.05-.13l.16-.66-.52-.45c-.05-.03-.05-.1-.05-.16.03-.08.05-.11.13-.11ZM19.2,23.55h0l.68-.05.26-.63c.03-.05.08-.08.13-.08s.1.03.13.08l.26.63.68.05c.05,0,.1.05.13.1.03.05,0,.11-.05.16l-.53.45.16.66c0,.05,0,.1-.05.16-.05.03-.1.03-.16,0l-.58-.37-.58.37s-.05.03-.08.03-.05,0-.08-.03c-.05-.03-.08-.08-.05-.16l.16-.66-.52-.45c-.05-.03-.05-.11-.05-.16.03-.08.08-.1.13-.1ZM19.2,20.53l.68-.05.26-.63c.03-.05.08-.08.13-.08s.1.03.13.08l.26.63.68.05c.05,0,.1.05.13.11.03.05,0,.1-.05.16l-.53.45.16.66c.03.05,0,.11-.05.16-.03.03-.05.03-.08.03s-.05,0-.08-.03l-.58-.37-.58.37s-.1.03-.16,0c-.05-.03-.08-.08-.05-.13l.16-.66-.52-.45c-.05-.03-.05-.1-.05-.16.03-.1.08-.13.13-.13ZM22.36,23.55h0l.68-.05.26-.63c.03-.05.08-.08.13-.08s.11.03.13.08l.26.63.68.05c.05,0,.11.05.13.1.03.05,0,.11-.05.16l-.52.45.16.66c.03.05,0,.1-.05.16-.05.03-.1.03-.16,0l-.58-.37-.58.37h-.08s-.05,0-.08-.03c-.05-.03-.08-.08-.05-.16l.16-.66-.52-.45c-.05-.03-.05-.1-.05-.16.03-.05.08-.08.13-.08ZM22.36,20.53l.68-.05.26-.63c.03-.05.08-.08.13-.08s.11.03.13.08l.26.63.68.05c.05,0,.11.05.13.11.03.05,0,.1-.05.16l-.52.45.16.66c.03.05,0,.11-.05.16-.05.03-.1.03-.16,0l-.58-.37-.58.37s-.05.03-.08.03-.05,0-.08-.03c-.05-.03-.08-.08-.05-.13l.16-.66-.52-.45c-.05-.03-.05-.1-.05-.16.03-.1.08-.13.13-.13ZM16.08,23.55h0l.68-.05.26-.63c.05-.11.21-.11.26,0l.26.63.68.05c.05,0,.1.05.13.1.03.05,0,.11-.05.16l-.52.45.16.66c0,.05,0,.1-.05.16-.05.03-.1.03-.16,0l-.58-.37-.58.37s-.05.03-.08.03-.05,0-.08-.03c-.05-.03-.08-.08-.05-.16l.16-.66-.52-.45c-.05-.03-.05-.11-.05-.16.03-.08.05-.1.13-.1ZM15.56,18.12h20.72c.44,0,.83.18,1.12.47h0c.29.29.47.69.47,1.12v12.41c0,.44-.18.84-.47,1.12-.29.29-.69.47-1.12.47H15.56c-.44,0-.83-.18-1.12-.47h0c-.29-.29-.47-.69-.47-1.12v-12.41c0-.44.18-.84.47-1.12.29-.29.69-.47,1.12-.47Z"/>
    </g>
  </g>
</svg>
