<?xml version="1.0" encoding="UTF-8"?>
<svg id="Layer_2" data-name="Layer 2" xmlns="http://www.w3.org/2000/svg" viewBox="0 0 51.83 51.83">
  <defs>
    <style>
      .cls-1 {
        fill: #f1f5f9;
      }

      .cls-2 {
        fill: #0f172a;
        fill-rule: evenodd;
      }
    </style>
  </defs>
  <g id="Layer_1-2" data-name="Layer 1">
    <g>
      <rect class="cls-1" width="51.83" height="51.83"/>
      <path class="cls-2" d="M35.49,19.89c0,.5-.36.94-.85,1.04l-.57.12v8.81c0,.38-.15.73-.42,1l-3.15,3.15c-.27.27-.62.42-1,.42h-7.17c-.38,0-.73-.15-1-.42l-3.15-3.15c-.27-.27-.42-.62-.42-1v-8.81l-.57-.12c-.49-.1-.85-.54-.85-1.04v-1.42c0-.58.48-1.06,1.06-1.06h4.61c.58,0,1.06.48,1.06,1.06v1.42c0,.5-.36.94-.85,1.04l-.57.12v7.78l1.69,1.69h5.12s1.69-1.69,1.69-1.69v-7.78l-.57-.12c-.49-.1-.85-.54-.85-1.04v-1.42c0-.58.48-1.06,1.06-1.06h4.61c.58,0,1.06.48,1.06,1.06v1.42h0ZM34.43,16h-4.61c-1.37,0-2.48,1.11-2.48,2.48v1.42c0,.97.57,1.84,1.42,2.24v6.11l-.87.87h-3.94s-.87-.87-.87-.87v-6.11c.85-.4,1.42-1.27,1.42-2.24v-1.42c0-1.37-1.11-2.48-2.48-2.48h-4.61c-1.37,0-2.48,1.11-2.48,2.48v1.42c0,.97.57,1.84,1.42,2.24v7.72c0,.76.29,1.47.83,2.01l3.15,3.15c.54.54,1.25.83,2,.83h7.17c.76,0,1.47-.29,2.01-.83l3.15-3.15c.54-.54.83-1.25.83-2.01v-7.72c.85-.4,1.42-1.27,1.42-2.24v-1.42c0-1.37-1.11-2.48-2.48-2.48h0Z"/>
    </g>
  </g>
</svg>
