<?xml version="1.0" encoding="UTF-8"?>
<svg id="Layer_2" data-name="Layer 2" xmlns="http://www.w3.org/2000/svg" viewBox="0 0 51.83 51.83">
  <defs>
    <style>
      .cls-1 {
        fill: #f1f5f9;
      }

      .cls-2 {
        fill: #0f172a;
        fill-rule: evenodd;
      }
    </style>
  </defs>
  <g id="Layer_1-2" data-name="Layer 1">
    <g>
      <rect class="cls-1" width="51.83" height="51.83"/>
      <path class="cls-2" d="M35.9,22.37c-.22-.76-.31-1.74.05-3.3-5.37.11-7.15,1.4-10.3,1.49-1.25.04-2.06-.2-2.96-.48-1.05-.32-2.22-.67-4.56-.52.51.72,1.14,1.86,1.5,3.42,2.73-.33,3.99.09,5.1.46.67.23,1.28.44,2.21.41,1.11-.04,2.02-.28,3.03-.55,1.48-.39,3.17-.85,5.91-.92h0ZM36.36,23.55c-2.87.04-4.58.5-6.07.89-1.1.29-2.09.55-3.3.59-1.12.04-1.84-.2-2.64-.47-.99-.33-2.11-.7-4.51-.41.06.47.09.97.09,1.5,0,.75-.07,1.46-.17,2.11,2.64-.31,3.88.11,4.98.47.67.23,1.28.44,2.21.41,1.11-.04,2.02-.28,3.03-.55,1.58-.42,3.41-.91,6.49-.94.14-.71.25-1.42.25-2.1,0-.62-.17-1.06-.36-1.5ZM17.54,20.85v9.92c.59-1.18,1.2-2.94,1.2-5.12s-.62-3.78-1.2-4.8ZM36.24,28.36c-2.79.05-4.47.5-5.94.89-1.1.29-2.09.55-3.3.59-1.12.04-1.84-.2-2.64-.47-1.04-.35-2.22-.73-4.87-.37-.37,1.34-.89,2.41-1.33,3.14,2.48-.16,3.74.18,4.87.48.79.21,1.5.41,2.59.38,3.17-.1,4.95-1.25,10.39-1.34-.13-1.04,0-2.1.2-3.15,0-.05.02-.1.02-.14h0ZM14.54,17.25v17.99c0,.33.27.6.6.6s.6-.27.6-.6v-17.99h.6v17.99c0,.33.27.6.6.6s.6-.27.6-.6v-1.86c2.75-.25,4.04.08,5.17.39.89.24,1.7.46,2.94.42,3.29-.1,5.09-1.35,11.07-1.35.19,0,.36-.08.47-.23.11-.14.16-.34.11-.52-.28-1.12-.13-2.25.08-3.38.23-1.25.53-2.48.53-3.67,0-.98-.31-1.61-.61-2.3-.37-.85-.67-1.83-.02-4.12.05-.18.02-.38-.1-.53-.11-.15-.29-.24-.48-.24-6.01,0-7.81,1.4-11.11,1.5-1.09.04-1.79-.19-2.57-.43-1.22-.37-2.6-.79-5.5-.53v-1.14h0c.35,0,.63-.28.63-.63s-.28-.63-.63-.63h-3c-.35,0-.63.28-.63.63s.28.63.63.63h0Z"/>
    </g>
  </g>
</svg>
