<?xml version="1.0" encoding="UTF-8"?>
<svg id="Layer_2" data-name="Layer 2" xmlns="http://www.w3.org/2000/svg" viewBox="0 0 51.83 51.83">
  <defs>
    <style>
      .cls-1 {
        fill: #f1f5f9;
      }

      .cls-2 {
        fill: #0f172a;
        fill-rule: evenodd;
      }
    </style>
  </defs>
  <g id="Layer_1-2" data-name="Layer 1">
    <g>
      <rect class="cls-1" width="51.83" height="51.83"/>
      <path class="cls-2" d="M25.91,27.47l-7.61,2.72v2.36l7.32-2.61c.19-.07.41-.07.6,0l7.32,2.61v-2.36l-7.62-2.72ZM25.91,23.22l-7.61,2.72v2.36l7.32-2.62c.08-.03.17-.04.24-.05.12,0,.24,0,.35.05l7.32,2.61v-2.36l-7.62-2.72ZM25.91,18.97l-7.61,2.72v2.36l7.32-2.61c.08-.03.16-.05.25-.05.12,0,.24.01.35.05l7.32,2.61v-2.36l-7.62-2.72ZM25.91,31.72l-8.2,2.93c-.09.03-.19.05-.3.05-.49,0-.89-.4-.89-.89v-12.76c0-.38.23-.71.59-.84l8.51-3.04c.08-.03.17-.05.25-.05.12,0,.24.01.35.05l8.51,3.04c.35.13.59.47.59.84v12.76c0,.49-.4.89-.89.89-.1,0-.2-.02-.3-.05l-8.2-2.93Z"/>
    </g>
  </g>
</svg>
