<?xml version="1.0" encoding="UTF-8"?>
<svg id="Layer_2" data-name="Layer 2" xmlns="http://www.w3.org/2000/svg" viewBox="0 0 51.83 51.83">
  <defs>
    <style>
      .cls-1 {
        fill: #f1f5f9;
      }

      .cls-2 {
        fill: #0f172a;
        fill-rule: evenodd;
      }
    </style>
  </defs>
  <g id="Layer_1-2" data-name="Layer 1">
    <g>
      <rect class="cls-1" width="51.83" height="51.83"/>
      <path class="cls-2" d="M32.01,20.16l-.62-.62-8.64,8.64.62.62,8.64-8.64ZM32.14,18.36l1.04,1.03,1.17-.32,2.2-2.11-.14-.72c-1.42.6-2.43.78-3.98.91l-.29,1.21ZM19.52,29.91c-.27-.27-.27-.7,0-.97.27-.27.7-.27.97,0l2.14,2.13c.27.27.27.7,0,.97-.27.27-.7.27-.97,0l-2.14-2.13ZM18.17,31.25c-.27-.27-.27-.7,0-.97.27-.27.7-.27.97,0l2.14,2.13c.27.27.27.7,0,.97-.27.27-.7.27-.97,0l-2.14-2.13ZM24.77,24.23c-.63-1.4-.14-3.07.85-4.18.08-.08.17-.2.23-.31-.04,0-.08-.01-.12-.01-.56-.03-1.34.23-1.64.74-.54.92-.79,1.68-1.09,2.68-.51,1.72-1.2,2.34-2.82,3.18-.02.01-.04.02-.05.03-.68.32-1.49.45-2.22.6-.47.1-1.13.24-1.48.59-1.85,1.85-1.46,5.1.31,6.86,1.78,1.78,4.99,2.09,6.88.3.57-.54.68-1.38.8-2.1.09-.54.22-1.23.54-1.69.47-.66.92-.88,1.71-.95.44-.04.86-.05,1.3-.11.49-.06,1.08-.36,1.18-.89,0-.04.03-.18-.02-.21-.11-.05-.33,0-.44.03-.97.28-1.91-.09-2.64-.73l-2.2,2.2c-.27.27-.7.27-.97,0l-1.59-1.59c-.27-.27-.27-.7,0-.97,1.16-1.16,2.31-2.31,3.47-3.47ZM27.02,27.08c.37.3.82.52,1.3.38.45-.13.95-.16,1.39.05.41.19.68.55.78.98.31,1.4-1.05,2.54-2.34,2.71-.46.06-.9.07-1.36.11-.35.03-.51.1-.72.39-.23.32-.31,1.16-.38,1.56-.17.9-.45,1.77-1.13,2.42-2.42,2.29-6.48,1.98-8.78-.32-2.28-2.28-2.68-6.43-.31-8.8.46-.46,1.1-.7,1.71-.85.76-.2,1.67-.28,2.37-.61,1.24-.64,1.76-1.05,2.15-2.36.33-1.11.63-1.96,1.22-2.97.54-.93,1.86-1.48,2.9-1.42.55.03,1.14.27,1.37.81.26.64-.13,1.32-.54,1.78-.51.58-.88,1.4-.78,2.18l4.9-4.9.45-1.88c.07-.29.32-.5.61-.52,1.99-.15,2.93-.3,4.8-1.18.19-.09.41-.09.6,0,.19.1.32.27.36.48l.36,1.94c.04.23-.03.46-.2.62l-2.59,2.5c-.08.08-.18.13-.29.16l-1.55.42-6.31,6.31Z"/>
    </g>
  </g>
</svg>
