<?xml version="1.0" encoding="UTF-8"?>
<svg id="Layer_2" data-name="Layer 2" xmlns="http://www.w3.org/2000/svg" viewBox="0 0 51.83 51.83">
  <defs>
    <style>
      .cls-1 {
        fill: #f1f5f9;
      }

      .cls-2 {
        fill: #0f172a;
        fill-rule: evenodd;
      }
    </style>
  </defs>
  <g id="Layer_1-2" data-name="Layer 1">
    <g>
      <rect class="cls-1" width="51.83" height="51.83"/>
      <path class="cls-2" d="M17.14,26.97h0c.16-1.5.44-2.99,1.25-4.23h0c.83,1.3,1.36,2.74,1.65,4.23h.01c.16.81.24,1.63.24,2.48v1.19c-1.15-.26-2.28-.59-3.37-.99.09-.8.14-1.75.22-2.68M34.7,26.97h0c-.16-1.5-.44-2.99-1.25-4.23h0c-.83,1.3-1.36,2.74-1.65,4.23h-.01c-.16.81-.24,1.63-.24,2.48v1.19c1.15-.26,2.28-.59,3.37-.99-.09-.8-.14-1.75-.22-2.68ZM25.92,31.25c-1.39,0-2.78-.12-4.15-.35v-1.46c0-.84-.07-1.66-.22-2.47h0c-.35-1.96-1.1-3.83-2.24-5.51.93-1.07,2.12-1.9,3.43-2.42l.36,5.95c.02.41.36.71.78.69.41-.02.72-.37.69-.78l-.42-6.89s0-.04,0-.06l-.02-.28c.58-.14,1.18-.21,1.78-.21s1.2.07,1.78.21l-.02.28s0,.04,0,.06l-.42,6.89c-.02.41.29.76.69.78.42.02.76-.29.78-.69l.36-5.95c1.31.51,2.5,1.34,3.43,2.42-1.13,1.68-1.89,3.55-2.24,5.51h0c-.14.81-.22,1.64-.22,2.47v1.46c-1.38.22-2.77.34-4.15.35ZM25.92,34.39h0,0c-8.49,0-16.43-3.05-10.39-5.77l-.13,1.45c-.03.33.17.64.48.76l.6.22c3.01,1.11,6.23,1.68,9.43,1.68,3.21,0,6.42-.57,9.43-1.68l.6-.22c.31-.11.51-.42.48-.76l-.13-1.45c6.04,2.72-1.9,5.76-10.39,5.76h0s0,0,0,0ZM25.92,16c-.75,0-1.5.09-2.23.28-.57.15-.98.65-1.03,1.23-4.03,1.29-6.9,5.23-7,9.46h0c-2.47.95-3.77,2.21-3.77,3.66.11,3.48,7.07,5.21,14.02,5.21,6.96,0,13.92-1.74,14.02-5.21,0-1.45-1.3-2.71-3.77-3.66h0c-.1-4.23-2.97-8.17-7-9.46-.05-.58-.45-1.08-1.03-1.23-.73-.19-1.48-.28-2.23-.28Z"/>
    </g>
  </g>
</svg>
