<?xml version="1.0" encoding="UTF-8"?>
<svg id="Layer_2" data-name="Layer 2" xmlns="http://www.w3.org/2000/svg" viewBox="0 0 51.83 51.83">
  <defs>
    <style>
      .cls-1 {
        fill: #f1f5f9;
      }

      .cls-2 {
        fill: #0f172a;
        fill-rule: evenodd;
      }
    </style>
  </defs>
  <g id="Layer_1-2" data-name="Layer 1">
    <g>
      <rect class="cls-1" width="51.83" height="51.83"/>
      <path class="cls-2" d="M18.12,31.54l-1.42,4.11,2.88-.99-.11-.15c-.55-.77-.97-1.63-1.23-2.54l-.12-.43ZM20.93,23.36l-.54,1.58v.04c.77,3.17,2.86,5.86,5.75,7.37l.05.03,2.79-.96-.29-.15c-1.6-.86-3.07-1.97-4.34-3.27-1.3-1.28-2.41-2.74-3.27-4.35l-.15-.29ZM19.59,27.26l-.34.97v.02c-.04,2.05.38,4.24,1.76,5.82l.06.07,3.27-1.13-.23-.16c-1.92-1.31-3.44-3.14-4.38-5.27l-.15-.33ZM28.03,24.63c-.3,0-.56-.19-.67-.46-.11-.27-.05-.59.16-.81l5.18-5.19c.29-.28.75-.27,1.03.01.28.28.29.75.01,1.04l-5.18,5.18c-.14.14-.33.22-.53.22ZM28.54,26.47c2.18-1.82,5.34-2.02,7.74-.49.33.23.41.69.17,1.03-.23.34-.69.42-1.03.19-1.88-1.16-4.31-.98-6,.46-.32.24-.77.16-1.01-.16-.25-.32-.19-.78.12-1.03ZM25.95,15.65c1.53,2.39,1.32,5.55-.49,7.72-.25.33-.71.4-1.05.15-.32-.25-.39-.71-.14-1.04,1.43-1.67,1.61-4.11.46-5.98-.23-.34-.15-.79.19-1.03.33-.23.78-.16,1.03.17ZM30.77,15.98c-.29.28-.75.26-1.03-.02-.28-.29-.29-.74,0-1.04.29-.28.75-.27,1.03.02.28.28.29.75,0,1.04ZM22.62,17.08c-.29.28-.75.26-1.03-.02-.29-.29-.29-.74,0-1.04.29-.28.75-.27,1.03.02.28.28.29.75,0,1.04ZM33.76,22.8c-.28-.29-.27-.75.01-1.03.29-.29.74-.29,1.04,0,.28.29.27.75-.02,1.03-.28.28-.75.29-1.04,0ZM35.28,29.16c.29-.28.75-.27,1.03.01.29.29.29.74,0,1.04-.29.28-.75.27-1.03-.01-.28-.28-.29-.75-.01-1.04ZM31.7,30.48l.03-.03c.36-.35-.13-1.62-.31-2.01-.08-.18-.09-.38-.03-.57.07-.19.21-.34.39-.42.18-.08.38-.09.57-.02.18.07.33.21.42.39.5,1.07.98,2.71.01,3.68-.22.21-.49.36-.77.45l-14.75,5.08c-.16.06-.33.08-.5.08-.49,0-.95-.25-1.23-.64-.28-.4-.36-.91-.2-1.37l5.08-14.75c.72-1.73,2.13-1.47,3.61-.98.37.15.55.57.41.94-.14.38-.56.57-.94.44-.4-.14-1.53-.57-1.68.09-.14.61.38,1.74.67,2.28.74,1.41,1.81,2.7,2.93,3.82,1.32,1.28,4.28,3.94,6.26,3.54h.04Z"/>
    </g>
  </g>
</svg>
