<?xml version="1.0" encoding="UTF-8"?>
<svg id="Layer_2" data-name="Layer 2" xmlns="http://www.w3.org/2000/svg" viewBox="0 0 51.83 51.83">
  <defs>
    <style>
      .cls-1 {
        fill: #f1f5f9;
      }

      .cls-2 {
        fill: #0f172a;
        fill-rule: evenodd;
      }
    </style>
  </defs>
  <g id="Layer_1-2" data-name="Layer 1">
    <g>
      <rect class="cls-1" width="51.83" height="51.83"/>
      <path class="cls-2" d="M29.63,24.98c.81,0,1.47-.66,1.47-1.47s-.66-1.47-1.47-1.47-1.47.66-1.47,1.47.66,1.47,1.47,1.47M22.2,24.98c.81,0,1.47-.66,1.47-1.47s-.66-1.47-1.47-1.47-1.47.66-1.47,1.47.66,1.47,1.47,1.47ZM27.38,30.81v-.41c0-.36.29-.65.65-.65s.65.29.65.65v.42c.3.06.53.32.53.64s-.23.59-.54.64c-.05.31-.32.54-.64.54s-.58-.23-.64-.53h-.84c-.06.3-.32.53-.64.53s-.58-.23-.64-.53h-.84c-.06.3-.32.53-.64.53s-.59-.23-.64-.54c-.31-.05-.54-.32-.54-.64s.23-.58.53-.64v-.42c0-.36.29-.65.65-.65s.65.29.65.65v.41h.82v-.41c0-.36.29-.65.65-.65s.65.29.65.65v.41h.82ZM25.92,19.41l.6-.6c.26-.25.66-.24.92,0,.25.25.26.66,0,.92l-1.06,1.06c-.26.25-.67.25-.92,0l-1.06-1.06c-.25-.26-.24-.66,0-.92.25-.25.66-.26.92,0l.6.6ZM32.32,24.16c-.07.28-.18.55-.33.79.22.26.21.64-.04.89-.24.24-.63.25-.89.03-.25.15-.51.26-.79.33-.02.34-.31.61-.65.61s-.63-.27-.65-.61c-.28-.07-.55-.18-.79-.33-.16.15-.39.2-.6.15-.23-.06-.41-.24-.47-.47-.06-.21,0-.44.15-.6-.15-.25-.26-.51-.33-.79-.34-.02-.61-.31-.61-.65s.27-.63.61-.65c.07-.28.18-.55.33-.79-.15-.16-.2-.39-.15-.6.06-.23.24-.41.47-.47.21-.06.44,0,.6.15.25-.15.51-.26.79-.33.02-.34.31-.61.65-.61s.63.27.65.61c.28.07.55.18.79.33.16-.15.39-.2.6-.15.23.06.41.24.47.47.06.21,0,.44-.15.6.15.25.26.51.33.79.34.02.61.31.61.65s-.27.63-.61.65ZM23.65,25.88c-.24.15-.51.26-.79.33-.02.34-.31.61-.65.61s-.63-.27-.65-.61c-.28-.07-.55-.18-.79-.33-.16.15-.39.2-.6.15-.23-.06-.41-.24-.47-.47-.06-.21,0-.44.15-.6-.15-.25-.26-.51-.33-.79-.34-.02-.61-.31-.61-.65s.27-.63.61-.65c.07-.28.18-.55.33-.79-.15-.16-.2-.39-.15-.6.06-.23.24-.41.47-.47.21-.06.44,0,.6.15.24-.15.51-.26.79-.33.02-.34.31-.61.65-.61s.63.27.65.61c.28.07.55.18.79.33.16-.15.39-.2.6-.15.23.06.41.24.47.47.06.21,0,.44-.15.6.15.25.26.51.33.79.34.02.61.31.61.65s-.27.63-.61.65c-.07.28-.18.55-.33.79.15.16.2.39.15.6-.06.23-.24.41-.47.47-.21.06-.44,0-.6-.15ZM25.92,27.62l-.07.07c-.16.17-.41.24-.64.18-.23-.06-.41-.24-.47-.47-.06-.23,0-.47.18-.63l.53-.53c.25-.25.67-.25.92,0l.53.53c.25.26.24.66,0,.92-.25.25-.66.25-.92,0l-.07-.07ZM30.04,29.37c-.61-.3-1.3-.45-1.97-.43-.17,0-.35-.05-.47-.17-.13-.12-.2-.28-.21-.46-.01-.36.27-.67.63-.67,1.04-.03,2.08.24,2.98.75,2.21-1.54,2.58-3.94,2.16-6.45-1.06-6.22-13.44-5.97-14.46-.03-.43,2.51-.07,4.93,2.15,6.48.9-.51,1.94-.77,2.98-.75.36,0,.64.32.63.67,0,.18-.08.34-.2.46-.13.12-.3.18-.47.17-.68-.02-1.36.13-1.98.43,0,.01,0,.02,0,.04-.11,1.29.27,3.03,1.15,3.99.77.79,1.86,1.2,2.97,1.13,1.1.07,2.19-.35,2.96-1.13,1.02-1.12,1.15-2.57,1.15-4,0,0,0-.02,0-.03ZM20.48,30.14c-.16.1-.31.2-.46.31-.59.41-1.2.79-1.83,1.13-.6.34-1.26.53-1.95.56-.4,0-.8-.1-1.15-.28-.6-.31-1.02-.87-1.14-1.53-.11-.69.16-1.39.71-1.82.55-.45,1.3-.58,1.97-.33.22.08.37.28.41.51.04.23-.06.46-.24.61-.18.15-.43.18-.64.1-.23-.09-.49-.04-.67.12-.18.14-.27.37-.24.59.05.26.22.47.45.59.59.3,1.36,0,1.9-.28.59-.32,1.16-.67,1.71-1.06.12-.08.24-.16.36-.23-2.23-1.81-2.73-4.5-2.27-7.23l.04-.2c1.53-7.21,15.29-8.05,17.03.2.46,2.73-.05,5.41-2.27,7.23.12.08.24.16.36.24.55.38,1.12.74,1.7,1.06.54.28,1.31.59,1.9.28.23-.12.4-.33.46-.59.03-.23-.06-.45-.25-.6-.18-.16-.44-.21-.67-.12-.33.12-.71-.04-.84-.37-.13-.33.03-.71.37-.84.67-.25,1.42-.12,1.97.33.55.43.83,1.14.71,1.83-.12.66-.55,1.22-1.14,1.53-.36.18-.75.28-1.16.28-.69-.03-1.35-.22-1.95-.56-.63-.34-1.24-.72-1.83-1.13-.15-.1-.31-.2-.46-.3-.06,1.48-.49,3.03-1.5,4.14-1.02,1.06-2.46,1.63-3.93,1.56-1.47.08-2.91-.49-3.94-1.56-1.01-1.1-1.44-2.66-1.5-4.14Z"/>
    </g>
  </g>
</svg>
