<?xml version="1.0" encoding="UTF-8"?>
<svg id="Layer_2" data-name="Layer 2" xmlns="http://www.w3.org/2000/svg" viewBox="0 0 51.83 51.83">
  <defs>
    <style>
      .cls-1 {
        fill: #0f172a;
      }

      .cls-2 {
        fill: #f1f5f9;
      }
    </style>
  </defs>
  <g id="Layer_1-2" data-name="Layer 1">
    <g>
      <rect class="cls-2" width="51.83" height="51.83"/>
      <path class="cls-1" d="M19.89,26.37c-.12-3.19,2.11-6.12,3.88-7.4-2.03.83-6.89,5.16-6.89,9.54,0,1.99,1,4.31,3.82,4.31,1.99,0,3.32-1.64,3.32-3.17s-.92-3.37-4.14-3.27ZM30.79,26.37c-.12-3.19,2.11-6.12,3.88-7.4-2.03.83-6.89,5.16-6.89,9.54,0,1.99,1,4.31,3.82,4.31,1.99,0,3.32-1.64,3.32-3.17s-.92-3.37-4.14-3.27ZM24.18,17.41c.81,0,1.46.65,1.46,1.44,0,.56-.33,1.08-.9,1.38-1.29.69-2.78,2.91-3.17,4.56,2.53.57,4.04,2.54,4.04,4.85s-1.98,4.78-4.92,4.78c-3.72,0-5.42-3.06-5.42-5.91,0-6.1,6.72-11.1,8.9-11.1ZM35.08,17.41c.81,0,1.46.65,1.46,1.44,0,.56-.33,1.08-.9,1.38-1.29.69-2.78,2.91-3.17,4.56,2.53.57,4.04,2.54,4.04,4.85s-1.98,4.78-4.92,4.78c-3.72,0-5.42-3.06-5.42-5.91,0-6.1,6.72-11.1,8.9-11.1Z"/>
    </g>
  </g>
</svg>
