<?xml version="1.0" encoding="UTF-8"?>
<svg id="Layer_2" data-name="Layer 2" xmlns="http://www.w3.org/2000/svg" viewBox="0 0 51.83 51.83">
  <defs>
    <style>
      .cls-1 {
        fill: #f1f5f9;
      }

      .cls-2 {
        fill: #0f172a;
        fill-rule: evenodd;
      }
    </style>
  </defs>
  <g id="Layer_1-2" data-name="Layer 1">
    <g>
      <rect class="cls-1" width="51.83" height="51.83"/>
      <path class="cls-2" d="M35.28,28.36h-3.86c-.38,0-.69-.31-.69-.69s.31-.69.69-.69h3.86c.38,0,.69.31.69.69s-.31.69-.69.69M34.81,31.13h-2.95c-.38,0-.69-.31-.69-.69s.31-.69.69-.69h2.95c.38,0,.69.31.69.69,0,.41-.31.69-.69.69ZM34.43,33.92h-2.17c-.38,0-.69-.31-.69-.69s.31-.69.69-.69h2.17c.38,0,.69.31.69.69s-.31.69-.69.69ZM31.85,24.22h2.95c.38,0,.69.31.69.69s-.31.69-.69.69h-2.95c-.38,0-.69-.31-.69-.69,0-.41.31-.69.69-.69ZM21.38,26.06c.44-.11.86-.33,1.18-.65l2.39-2.26c.97-.94,1.66-2.14,1.95-3.45l.44-2.01c.03-.19.22-.28.38-.25.53.09.97.5,1.07,1.07.09.63.13,1.22.06,1.76-.16,1.51-.75,2.95-.79,3.01-.09.22-.06.47.06.66.13.19.35.31.6.31h1.19l-.06.13c-.88,3.67-3.86,3.42-3.99,3.39-.19-.03-.38.03-.53.16-.16.13-.25.28-.25.47-.03.19.03.38.16.53.13.16.28.25.47.25,0,0,.13.03.31.03.6,0,2.04-.13,3.33-1.19.06.53.35,1,.75,1.32-.22.35-.35.75-.35,1.13,0,.63.28,1.19.75,1.6-.22.35-.35.75-.35,1.16,0,.28.06.57.16.82-1.35.22-2.92.35-4.65.35h-.25c-1.16,0-2.2-.6-2.83-1.6l-.35-.6c-.13-.22-.35-.31-.6-.31h-.27v-5.82ZM15.24,23.16h.47c.43,0,.79.35.79.78v9.81c0,.43-.35.78-.79.78h-.47c-.43,0-.79-.35-.79-.78v-9.81c0-.43.35-.78.79-.78ZM37.38,27.67c0-.63-.28-1.22-.79-1.63.22-.35.35-.72.35-1.13,0-1.16-.94-2.1-2.1-2.1h-5.15c.19-.6.44-1.51.53-2.42.06-.66.03-1.35-.09-2.14-.19-1.13-1.07-2.04-2.23-2.23-.91-.16-1.79.44-2.01,1.35l-.44,2.01c-.22,1.04-.75,1.98-1.54,2.73l-2.39,2.26s-.09.09-.14.12v-.55c0-.43-.35-.78-.79-.78h-2.03c-.43,0-.79.35-.79.78v9.81c0,.43.35.78.79.78h2.03c.43,0,.79-.35.79-.78v-.21l.02.03c.88,1.38,2.36,2.23,3.99,2.26h.41c1.51,0,3.77-.09,5.81-.57.22.06.44.13.63.13h2.17c1.16,0,2.1-.94,2.1-2.1,0-.41-.13-.82-.38-1.16.5-.41.75-.97.75-1.6,0-.41-.13-.79-.35-1.13.56-.5.85-1.07.85-1.73Z"/>
    </g>
  </g>
</svg>
