<?xml version="1.0" encoding="UTF-8"?>
<svg id="Layer_2" data-name="Layer 2" xmlns="http://www.w3.org/2000/svg" viewBox="0 0 51.83 51.83">
  <defs>
    <style>
      .cls-1 {
        fill: #f1f5f9;
      }

      .cls-2 {
        fill: #0f172a;
        fill-rule: evenodd;
      }
    </style>
  </defs>
  <g id="Layer_1-2" data-name="Layer 1">
    <g>
      <rect class="cls-1" width="51.83" height="51.83"/>
      <path class="cls-2" d="M33.38,28.44l1.81,1.12c.07.04.11.11.12.19,0,.08-.02.15-.07.21l-4.29,4.29c-.06.06-.14.08-.22.07-.08-.01-.15-.06-.19-.13l-1.04-1.9c-.05-.1-.04-.22.04-.3l3.51-3.51c.08-.08.21-.1.31-.04ZM18.45,28.44c.1-.06.23-.05.31.04l3.51,3.51c.08.08.1.2.04.3l-1.04,1.9c-.04.07-.11.12-.19.13-.08.01-.16-.02-.22-.07l-4.29-4.29c-.05-.05-.08-.13-.07-.21,0-.08.05-.15.12-.19l1.81-1.12ZM22.66,30.22l-2.26-2.26,1.01-1.01c.38-.38.64-.85.75-1.37.35-1.59,1.34-6.04,1.75-7.86.03-.12.13-.2.25-.2h.74c.07,0,.13.03.18.07.05.05.07.11.07.17h0v9.44h0c0,.34-.13.66-.37.9l-2.12,2.12ZM17.65,27.14l-1.81,1.12c-.46.29-.77.77-.83,1.31-.06.54.12,1.08.51,1.46,1.15,1.15,3.12,3.12,4.29,4.29.4.4.96.58,1.51.5.55-.08,1.04-.42,1.31-.91.34-.63.75-1.37,1.04-1.89.29-.53.29-1.15.02-1.66l2.18-2.18s.04-.04.06-.06c.02.02.04.04.06.06l2.18,2.18c-.26.51-.26,1.14.02,1.66.29.52.69,1.27,1.04,1.89.27.49.75.83,1.31.91.55.08,1.11-.11,1.51-.5,1.17-1.17,3.14-3.14,4.29-4.29.38-.38.57-.92.51-1.46-.06-.54-.37-1.02-.83-1.31h0l-1.81-1.12c-.48-.3-1.06-.34-1.57-.15l-1.12-1.12c-.17-.17-.29-.39-.34-.62l-1.75-7.86c-.18-.81-.9-1.39-1.73-1.39h-.74c-.37,0-.72.11-1.02.32-.3-.21-.65-.32-1.02-.32h-.74c-.83,0-1.55.58-1.73,1.39l-1.75,7.86c-.05.24-.17.45-.34.62l-1.12,1.12c-.5-.19-1.08-.15-1.57.15ZM29.17,30.22l-2.12-2.12c-.24-.24-.37-.56-.37-.9v-9.43h0c0-.07.03-.13.07-.18.05-.05.11-.07.18-.07h.74c.12,0,.22.08.25.2.4,1.82,1.39,6.27,1.75,7.86.11.52.38.99.75,1.37l1.01,1.01-2.26,2.26Z"/>
    </g>
  </g>
</svg>
