<?xml version="1.0" encoding="UTF-8"?>
<svg id="Layer_2" data-name="Layer 2" xmlns="http://www.w3.org/2000/svg" viewBox="0 0 51.83 51.83">
  <defs>
    <style>
      .cls-1 {
        fill: #0f172a;
      }

      .cls-2 {
        fill: #f1f5f9;
      }
    </style>
  </defs>
  <g id="Layer_1-2" data-name="Layer 1">
    <g>
      <rect class="cls-2" width="51.83" height="51.83"/>
      <path class="cls-1" d="M24.88,30.98c-.07-.19-.14-.37-.22-.56-.41-1.06-.8-2.12-1.2-3.18-.13-.35-.27-.7-.4-1.05-.01-.03-.02-.05-.06-.03-1.57.86-3.16,1.68-4.7,2.59-.23.13-.45.28-.66.43-.14.11-.31.18-.49.22-.37.05-.72-.17-.82-.53-.01-.05-.04-.1-.06-.15-.06-.13-.1-.27-.11-.42-.05-.7-.06-1.4-.03-2.1,0-.46.03-.93.05-1.39.03-.48.07-.97.13-1.45.07-.57.16-1.14.28-1.71.2-.99.55-1.95,1.06-2.82.5-.87,1.23-1.59,2.1-2.09.56-.31,1.17-.53,1.81-.64.67-.12,1.36-.15,2.03-.09,1.58.13,3.11.58,4.51,1.32.73.37,1.42.81,2.06,1.31.35.27.66.59.92.94.17.22.28.49.32.76.04.28-.02.57-.17.81-.16.26-.38.48-.63.64-.46.33-.96.62-1.45.9-1.55.9-3.11,1.78-4.68,2.64q-.08.04-.04.12c.29.72.57,1.46.84,2.19.42,1.14.86,2.26,1.29,3.39,0,.03.04.05.07.05.6.03,1.21.04,1.81.02.31,0,.61-.02.91-.06.16-.02.32-.04.48-.09.24-.08.45-.22.62-.41.26-.29.5-.61.7-.95.6-.93,1.15-1.89,1.69-2.85.59-1.07,1.19-2.13,1.8-3.18.06-.1.12-.2.19-.3.24-.34.71-.42,1.05-.19.09.06.16.14.22.24.14.24.14.54,0,.78-.14.27-.29.53-.44.79-.72,1.22-1.38,2.47-2.09,3.69-.45.76-.89,1.53-1.4,2.26-.22.34-.48.65-.77.93-.09.09-.18.17-.29.24-.04.03-.04.04,0,.07.73.56,1.42,1.18,2.06,1.84.16.16.31.32.45.5.19.24.21.56.06.82-.13.27-.42.43-.72.39-.2-.01-.39-.1-.52-.25-.3-.32-.6-.63-.91-.93-.6-.57-1.23-1.09-1.91-1.57-.15-.1-.3-.19-.45-.28-.02-.01-.05-.02-.08-.01-.61.04-1.21.04-1.82.03-.07,0-.07,0-.04.06.25.63.51,1.25.81,1.85.13.23.14.52.01.75-.19.37-.65.51-1.02.31-.1-.05-.19-.13-.25-.22-.12-.16-.21-.34-.29-.52-.35-.74-.65-1.51-.96-2.27-.01-.04-.05-.07-.1-.07-.67-.05-1.34-.12-2-.18-.64-.06-1.29-.11-1.93-.16l-1.86-.13c-.29-.02-.59-.05-.88-.05-.03,0-.07,0-.1,0-.06,0-.12.04-.16.09-.12.17-.22.35-.3.55-.35.79-.7,1.59-1,2.41-.04.14-.09.27-.16.39-.22.35-.69.46-1.04.23-.26-.17-.39-.47-.34-.78.05-.22.12-.43.21-.64.32-.83.67-1.66,1.04-2.47.13-.31.32-.59.55-.83.28-.28.66-.45,1.06-.47.33-.02.65-.01.98.02.31.02.62.04.93.06.42.03.84.06,1.27.09.32.02.64.05.96.08.34.03.69.06,1.03.09.4.04.79.07,1.19.11,0,0,.02,0,.02,0M20.63,22.02c-.02.79.04,1.58.18,2.36.06.34.14.68.26,1.01.02.05.04.06.09.03.76-.41,1.52-.82,2.27-1.23.63-.34,1.25-.69,1.87-1.04.04-.02.05-.04.03-.08-.09-.18-.18-.37-.29-.54-.45-.72-.99-1.38-1.59-1.98-.72-.73-1.55-1.33-2.47-1.78-.04-.02-.06-.03-.07.03-.09.48-.16.96-.2,1.44-.05.59-.08,1.18-.08,1.78ZM22.05,17.6s.04.02.06.03c.34.18.67.39.99.62.88.64,1.68,1.39,2.36,2.24.48.56.88,1.18,1.21,1.84.02.05.05.02.07,0,.73-.42,1.47-.84,2.19-1.27.29-.17.57-.35.84-.55.05-.04.05-.06.01-.1-.14-.17-.3-.33-.47-.47-.47-.39-.98-.73-1.52-1.02-1.43-.84-3.05-1.32-4.71-1.39-.34-.01-.69.01-1.03.07h0ZM19.27,19.17c-.05.07-.11.14-.16.22-.36.56-.64,1.17-.83,1.81-.2.7-.35,1.42-.43,2.15-.1.71-.14,1.43-.17,2.15-.02.55-.03,1.11-.04,1.66v.19s.03-.01.04-.02c.66-.39,1.33-.76,2.01-1.12.04-.02.04-.04.02-.08-.11-.23-.19-.48-.25-.73-.24-.94-.36-1.91-.37-2.88,0-.54,0-1.08.02-1.62.02-.34.04-.68.08-1.02.03-.24.06-.47.08-.71h0Z"/>
    </g>
  </g>
</svg>
