<?xml version="1.0" encoding="UTF-8"?>
<svg id="Layer_2" data-name="Layer 2" xmlns="http://www.w3.org/2000/svg" viewBox="0 0 51.83 51.83">
  <defs>
    <style>
      .cls-1 {
        fill: #f1f5f9;
      }

      .cls-2 {
        fill: #0f172a;
        fill-rule: evenodd;
      }
    </style>
  </defs>
  <g id="Layer_1-2" data-name="Layer 1">
    <g>
      <rect class="cls-1" width="51.83" height="51.83"/>
      <path class="cls-2" d="M21.94,17.65h0c1.02-1.02,2.42-1.65,3.97-1.65s2.94.63,3.96,1.64h0c1.02,1.03,1.65,2.43,1.65,3.98,0,.35-.03.71-.1,1.05.76.26,1.44.69,2.02,1.23.04.03.08.07.12.11,1.02,1.02,1.65,2.42,1.65,3.97s-.63,2.96-1.65,3.97c-.8.8-1.84,1.36-3.01,1.56.03.13.04.27.04.41,0,.53-.22,1.01-.56,1.36h0c-.35.34-.83.56-1.35.56-1.73-.09-3.8-.02-5.55,0-.53,0-1.01-.22-1.36-.56-.35-.35-.56-.83-.56-1.36,0-.14.02-.27.04-.41-1.16-.2-2.21-.76-3.01-1.56-1.02-1.02-1.65-2.42-1.65-3.97s.63-2.96,1.65-3.97h0c.6-.59,1.32-1.05,2.13-1.34-.07-.35-.1-.7-.1-1.05,0-1.54.63-2.94,1.64-3.96h0ZM25.92,17.75c-2.14,0-3.87,1.73-3.87,3.87,0,.95.35,1.87.98,2.58-.26-.05-.53-.08-.8-.08-2.14,0-3.87,1.73-3.87,3.87s1.73,3.87,3.87,3.87c2.66,0,3.34-2.64,3.34-1.35v.05c0,.5-.14.98-.41,1.4-.58.88-1.5,1.5-2.1,1.83-.06.03-.09.09-.09.15,0,.09.07.17.17.17,1.6-.08,3.95-.08,5.55,0,.09,0,.17-.07.17-.17,0-.06-.04-.12-.09-.15-.6-.33-1.51-.95-2.1-1.83-.27-.42-.41-.9-.41-1.4v-.05c0-1.29.67,1.35,3.34,1.35,2.14,0,3.87-1.73,3.87-3.87s-1.73-3.87-3.87-3.87c-.27,0-.54.03-.8.08.63-.71.98-1.63.98-2.58,0-2.14-1.73-3.87-3.87-3.87Z"/>
    </g>
  </g>
</svg>
