<?xml version="1.0" encoding="UTF-8"?>
<svg id="Layer_2" data-name="Layer 2" xmlns="http://www.w3.org/2000/svg" viewBox="0 0 51.83 51.83">
  <defs>
    <style>
      .cls-1 {
        fill: #f1f5f9;
      }

      .cls-2 {
        fill: #0f172a;
        fill-rule: evenodd;
      }
    </style>
  </defs>
  <g id="Layer_1-2" data-name="Layer 1">
    <g>
      <rect class="cls-1" width="51.83" height="51.83"/>
      <path class="cls-2" d="M34.25,21.15c-1.62-.67-2.9-1.95-3.57-3.57,1.3-.12,2.35.08,2.92.65.57.57.77,1.63.65,2.92h0ZM29.88,29.82c-1.97,2-4.43,3.45-7.13,4.2-.79-2.32-2.61-4.14-4.93-4.93.75-2.71,2.19-5.17,4.2-7.13,2-1.96,4.47-3.38,7.17-4.11.81,2.24,2.57,4,4.81,4.81-.73,2.7-2.15,5.17-4.11,7.17ZM20.68,34.3h-.02c-.86.07-1.71-.21-2.38-.76-.56-.67-.83-1.53-.76-2.39,0-.18.03-.37.04-.55h0c1.68.66,3.01,1.98,3.66,3.66-.18.02-.37.05-.55.05ZM34.69,17.15c-2.75-2.75-9.76-.21-13.75,3.72-2.94,2.91-4.93,7.04-4.94,10.27-.08,1.27.36,2.53,1.21,3.48.94.85,2.19,1.28,3.45,1.21h.02c3.24,0,7.36-1.99,10.28-4.93,3.93-3.98,6.47-11,3.72-13.75ZM29.54,22.29c-.3-.3-.78-.3-1.08,0l-.61.61-.6-.61h0c-.3-.29-.78-.29-1.07,0-.29.29-.3.77,0,1.07l.61.61-.83.83-.99-.99c-.3-.29-.78-.28-1.07,0-.29.29-.3.77,0,1.07l.99.99-.83.83-.6-.6h0c-.3-.29-.78-.28-1.07,0-.29.29-.3.77,0,1.07l.61.61-.61.6c-.29.3-.28.77,0,1.07.29.29.77.3,1.07,0l.6-.61.61.61h0c.3.29.78.29,1.07,0,.29-.29.3-.77,0-1.07l-.61-.61.83-.83.99.99h0c.3.29.78.28,1.07,0,.29-.29.3-.77,0-1.07l-.99-.99.83-.83.61.6h0c.3.29.78.28,1.07,0,.29-.29.3-.77,0-1.07l-.61-.61.61-.61c.3-.3.3-.78,0-1.08Z"/>
    </g>
  </g>
</svg>
