<?xml version="1.0" encoding="UTF-8"?>
<svg id="Layer_2" data-name="Layer 2" xmlns="http://www.w3.org/2000/svg" viewBox="0 0 51.83 51.83">
  <defs>
    <style>
      .cls-1 {
        fill: #0f172a;
      }

      .cls-2 {
        fill: #f1f5f9;
      }
    </style>
  </defs>
  <g id="Layer_1-2" data-name="Layer 1">
    <g>
      <rect class="cls-2" width="51.83" height="51.83"/>
      <g>
        <path class="cls-1" d="M40.58,23.6c-.38-.48-.92-.76-1.52-.76-.89,0-1.77.25-2.57.7v-3.42c0-1.33-1.08-2.41-2.41-2.41h-4.53v-1.24c0-1.05-.85-1.9-1.9-1.9h-2.85c-1.05,0-1.9.86-1.9,1.9v1.24h-4.5c-1.33,0-2.41,1.08-2.41,2.41v9.03c0,1.33,1.08,2.41,2.41,2.41h8.55l1.43,1.2c.06.06.13.13.16.22l.79,1.71c.25.54.82.92,1.43.92.35,0,.66-.13.95-.32l.16-.13c.7-.54,1.01-1.46.79-2.31l-.09-.32,1.05-.73,1.2,2.06c.28.48.82.79,1.36.79.48,0,.92-.22,1.24-.57.54-.7.76-1.55.57-2.44l-.57-2.47,1.52-1.08c.95-.7,1.65-1.68,1.96-2.82.16-.57.03-1.2-.32-1.68ZM32.19,19.04h1.9c.6,0,1.11.48,1.11,1.11v4.43l-.79.63-2.22-1.17v-5ZM24.24,16.48c0-.32.25-.6.6-.6h2.85c.32,0,.6.25.6.6v1.24h-4.05v-1.24ZM20.31,30.26h-1.93c-.6,0-1.11-.48-1.11-1.11v-9.03c0-.6.48-1.11,1.11-1.11h1.93v4.86c-1.02.38-1.75,1.35-1.75,2.5s.73,2.12,1.75,2.5v1.39ZM20.09,26.37c0-.63.51-1.14,1.14-1.14s1.14.51,1.14,1.14c0,.63-.51,1.14-1.14,1.14-.63,0-1.14-.51-1.14-1.14ZM26.99,29.08c-.35.29-.57.7-.6,1.14h-4.75v-1.22c1.28-.2,2.26-1.29,2.26-2.63,0-1.33-.98-2.43-2.26-2.63v-4.7h9.22v4.66h-.03c-.41,0-.79.09-1.14.25-.48.22-.82.63-.92,1.14-.1.51.06,1.05.41,1.43l1.65,1.68-.98.82-.29-.16c-.35-.19-.73-.29-1.11-.29-.48,0-.95.16-1.33.44l-.13.06ZM39.63,24.93c-.22.86-.73,1.58-1.46,2.09l-2.25,1.55.76,3.36c.09.48,0,.95-.32,1.3-.06.06-.13.09-.19.09-.09,0-.19-.03-.22-.13l-1.93-3.26-2.98,2.09.32,1.2c.09.35-.03.7-.32.92l-.16.13s-.09.06-.16.06c-.09,0-.19-.06-.22-.16l-.79-1.77c-.13-.25-.29-.51-.51-.66l-1.46-1.2c-.13-.09-.13-.29,0-.38l.16-.13c.16-.13.35-.19.51-.19s.29.03.44.13l1.08.63,2.79-2.31-2.66-2.72c-.13-.13-.09-.35.06-.44.19-.09.41-.13.63-.13.25,0,.51.06.73.19l3.04,1.62,2.09-1.74c.66-.54,1.52-.86,2.38-.86.44-.03.73.35.63.73Z"/>
        <path class="cls-1" d="M26.11,33.36c-6.81,3.96-11.24,2.72-12.99.48-1.55-2-1.14-4.91,1.01-7.06.25-.25.25-.67,0-.92-.25-.25-.67-.25-.92,0-2.66,2.6-3.1,6.24-1.11,8.8,1.2,1.58,3.2,2.5,5.57,2.6h.38c2.6,0,5.57-.95,8.71-2.76.32-.19.41-.57.25-.89-.19-.32-.6-.41-.92-.25Z"/>
        <path class="cls-1" d="M28.59,20.32c-.19-.19-.46-.26-.73-.2l-4.32,1.08c-.41.1-.66.52-.56.93.03.13.1.26.2.35l3.24,3.24c.3.3.78.3,1.08,0,.1-.1.17-.22.2-.35l1.08-4.32c.07-.26-.01-.53-.2-.72ZM26.56,23.68l-1.33-1.33,1.78-.44-.44,1.78Z"/>
      </g>
    </g>
  </g>
</svg>
