{"scene":0,"asset":{"generator":"ImageToStl.com","version":"2.0"},"scenes":[{"name":"Scene","nodes":[0]}],"nodes":[{"name":"Node0","children":[1]},{"name":"Node1","mesh":0}],"materials":[{"name":"x1","pbrMetallicRoughness":{"baseColorFactor":[0.85,0.85,0.85,1.0],"metallicFactor":0.05,"roughnessFactor":0.5},"doubleSided":true}],"meshes":[{"name":"Mesh0","primitives":[{"indices":3,"material":0,"attributes":{"POSITION":0,"NORMAL":1,"TEXCOORD_0":2}}]}],"accessors":[{"bufferView":0,"componentType":5126,"count":23755,"type":"VEC3","min":[-0.938012,0.0,-0.390619],"max":[0.938022,1.817695,0.391525]},{"bufferView":1,"componentType":5126,"count":23755,"type":"VEC3"},{"bufferView":2,"componentType":5126,"count":23755,"type":"VEC2"},{"bufferView":3,"componentType":5123,"count":315108,"type":"SCALAR"}],"bufferViews":[{"target":34962,"buffer":0,"byteLength":285060,"byteOffset":0},{"target":34962,"buffer":0,"byteLength":285060,"byteOffset":285060},{"target":34962,"buffer":0,"byteLength":190040,"byteOffset":570120},{"target":34963,"buffer":0,"byteLength":630216,"byteOffset":760160}],"buffers":[{"byteLength":1390376,"uri":"data:application/octet-stream;base64,"}]}